<svg width="240" height="80" viewBox="0 0 240 80" fill="none" xmlns="http://www.w3.org/2000/svg">
<path d="M145 61.85C146.92 61.91 146.8 60.85 146.8 59.85V51.71C146.8 50.32 146.8 49.78 145 49.78C143 49.78 143 50.26 143.09 52.07L143.27 59.44C143.25 61.07 143.19 61.79 145 61.85ZM139.8 62.4V61.85C141.41 61.67 141.53 61.61 141.47 59.44L141.41 51.11H141.35L136.45 62.28H136L131.45 51.41H131.39L131.09 57.2C131.03 58.89 131.03 59.74 131.03 60.58C131.03 61.42 131.57 61.73 132.89 61.85V62.4H128.16V61.85C129.36 61.73 129.71 61.49 129.89 60.65C130.082 59.4079 130.202 58.1558 130.25 56.9L130.55 52.68C130.73 50.02 130.61 49.96 128.82 49.78V49.23H132.11L136.72 59.44L141.38 49.23H150.6C153.17 49.23 155.09 49.78 156.29 50.98C156.855 51.5514 157.298 52.2316 157.592 52.9794C157.886 53.7272 158.025 54.5269 158 55.33C158.038 56.3642 157.837 57.3932 157.412 58.3368C156.987 59.2804 156.35 60.1131 155.55 60.77C153.803 62.0038 151.685 62.6004 149.55 62.46H139.8V62.4ZM148.48 59.74C148.48 61.31 149.13 61.67 150.63 61.67C154.4 61.67 156.14 58.83 156.14 55.57C156.208 54.6155 156.022 53.66 155.6 52.8009C155.179 51.9418 154.537 51.21 153.74 50.68C152.71 50.0734 151.524 49.7814 150.33 49.84C149.802 49.7985 149.271 49.8807 148.78 50.08C148.6 50.2 148.54 50.44 148.54 51.23V59.74H148.48ZM165.87 51C165.15 52.82 164.49 54.69 163.87 56.44H167.76L165.87 51ZM172.93 61.81C174.25 61.81 174.37 61.51 174.37 60.12V55.51C174.37 54.06 174.25 54 173.05 53.82V53.34C174.085 53.1664 175.093 52.8606 176.05 52.43V54.18C176.521 53.8055 177.023 53.471 177.55 53.18C178.084 52.7665 178.735 52.5321 179.41 52.51C181.14 52.51 182.22 53.72 182.22 55.9V60.18C182.22 61.69 182.34 61.75 183.59 61.93V62.54H179V61.93C180.31 61.81 180.43 61.63 180.43 60.06V56.26C180.43 54.75 179.89 53.72 178.43 53.72C177.517 53.7997 176.664 54.2084 176.03 54.87V60C176.03 61.51 176.15 61.57 177.47 61.75V62.36H167.84V61.75C169.15 61.57 169.33 61.39 169.09 60.61C168.85 59.83 168.37 58.61 167.95 57.34H163.47C163.11 58.34 162.81 59.22 162.47 60.06C161.99 61.39 162.17 61.63 163.79 61.75V62.36H159.24V61.75C160.55 61.57 160.85 61.45 161.57 59.58L165.94 48.41L166.6 48.23C168 52 169.4 56 170.78 59.68C171.2 60.83 171.56 61.79 172.93 61.79V61.81ZM194.24 61.81C193.078 61.9767 191.935 62.2615 190.83 62.66V61.19L189.51 61.97C188.989 62.3231 188.394 62.5522 187.77 62.64C186.611 62.5429 185.535 61.9955 184.775 61.1151C184.014 60.2347 183.628 59.0913 183.7 57.93C183.744 56.4524 184.364 55.0506 185.427 54.0232C186.49 52.9958 187.912 52.4241 189.39 52.43C189.88 52.4348 190.367 52.5193 190.83 52.68V50.74C190.83 49.29 190.71 49.23 189.15 49.11V48.57C190.308 48.4089 191.449 48.1446 192.56 47.78V59.86C192.56 61.01 192.74 61.13 193.56 61.19L194.28 61.25V61.79L194.24 61.81ZM190.83 54.39C190.572 54.0276 190.23 53.7335 189.832 53.5332C189.435 53.3328 188.995 53.2322 188.55 53.24C187.55 53.24 185.68 54.08 185.68 57.34C185.68 60 187.29 61.27 188.68 61.27C189.447 61.2413 190.184 60.9641 190.78 60.48V54.37L190.83 54.39ZM202 60.52C201.592 61.1188 201.061 61.6232 200.441 61.9992C199.822 62.3753 199.13 62.6142 198.41 62.7C195.71 62.7 194.1 60.46 194.1 57.99C194.081 56.5674 194.59 55.1882 195.53 54.12C195.926 53.6387 196.417 53.2451 196.973 52.9644C197.529 52.6838 198.138 52.5222 198.76 52.49C199.644 52.5135 200.483 52.881 201.099 53.5142C201.716 54.1474 202.06 54.9963 202.06 55.88C202.06 56.3 201.94 56.48 201.58 56.6C201.22 56.72 198.47 56.9 195.83 56.96C195.83 59.96 197.57 61.25 199.12 61.25C200.07 61.2306 200.975 60.8392 201.64 60.16L202 60.52ZM198.23 53.22C197.23 53.22 196.23 54.12 195.95 55.94C197.21 55.94 198.41 55.94 199.66 55.88C200.08 55.88 200.2 55.75 200.2 55.45C200.223 55.1705 200.189 54.8892 200.1 54.6234C200.011 54.3575 199.868 54.1127 199.681 53.9039C199.494 53.6951 199.266 53.5268 199.011 53.4092C198.756 53.2916 198.48 53.2272 198.2 53.22H198.23ZM205.83 54.79C206.48 53.7 207.44 52.43 208.52 52.43C208.83 52.4157 209.133 52.5208 209.368 52.7236C209.602 52.9264 209.75 53.2115 209.78 53.52C209.77 53.7499 209.698 53.9727 209.571 54.1647C209.444 54.3566 209.268 54.5106 209.06 54.61C208.966 54.6636 208.858 54.6866 208.751 54.6758C208.643 54.6651 208.541 54.6211 208.46 54.55C208.36 54.4026 208.226 54.2813 208.069 54.196C207.913 54.1108 207.738 54.0642 207.56 54.06C206.96 54.06 206.31 54.73 205.83 56V60C205.83 61.45 205.95 61.57 207.62 61.75V62.36H202.53V61.75C203.91 61.63 204.03 61.51 204.03 60V55.45C204.03 54 203.91 53.88 202.65 53.7V53.22C203.727 53.061 204.777 52.7548 205.77 52.31L205.83 54.79ZM215.52 55.33C215.1 54 214.32 53.16 213.25 53.16C213.055 53.1598 212.862 53.1992 212.682 53.2759C212.503 53.3526 212.341 53.465 212.206 53.6062C212.072 53.7474 211.967 53.9145 211.899 54.0974C211.831 54.2803 211.801 54.4751 211.81 54.67C211.81 55.67 212.71 56.18 213.67 56.6C215.34 57.26 216.42 58.11 216.42 59.6C216.42 61.6 214.56 62.68 212.77 62.68C211.865 62.7096 210.976 62.431 210.25 61.89C210.017 61.0465 209.899 60.1752 209.9 59.3L210.49 59.18C210.91 60.63 211.87 61.95 213.19 61.95C213.397 61.9556 213.603 61.9187 213.795 61.8416C213.987 61.7644 214.161 61.6486 214.306 61.5014C214.451 61.3542 214.565 61.1787 214.639 60.9858C214.714 60.7929 214.748 60.5867 214.74 60.38C214.74 59.38 214.08 58.87 213.01 58.38C211.69 57.78 210.25 57.05 210.25 55.3C210.25 53.73 211.57 52.46 213.61 52.46C214.295 52.4518 214.974 52.5775 215.61 52.83C215.833 53.5991 215.994 54.385 216.09 55.18L215.52 55.33ZM222.34 52.43C222.983 52.4346 223.618 52.5692 224.208 52.8256C224.797 53.0819 225.329 53.4548 225.771 53.9218C226.213 54.3889 226.555 54.9404 226.779 55.5432C227.002 56.1461 227.101 56.7879 227.07 57.43C227.122 58.0975 227.037 58.7686 226.822 59.4025C226.606 60.0363 226.264 60.6197 225.816 61.1173C225.368 61.6149 224.824 62.0162 224.216 62.2968C223.608 62.5775 222.949 62.7317 222.28 62.75C221.639 62.7541 221.004 62.63 220.411 62.3851C219.819 62.1402 219.282 61.7793 218.831 61.3238C218.38 60.8682 218.025 60.3271 217.786 59.7323C217.547 59.1375 217.429 58.5009 217.44 57.86C217.404 57.1839 217.502 56.5073 217.73 55.8696C217.957 55.2319 218.309 54.6457 218.765 54.1451C219.221 53.6446 219.772 53.2396 220.385 52.9537C220.999 52.6679 221.664 52.5069 222.34 52.48V52.43ZM222.1 53.16C220.79 53.16 219.59 54.55 219.59 57.02C219.59 59.8 220.79 61.91 222.59 61.91C223.97 61.91 225.11 60.91 225.11 57.91C225.05 55.31 224.03 53.2 222.11 53.2L222.1 53.16ZM233.41 62.4V61.79C234.73 61.67 234.85 61.49 234.85 59.92V56.24C234.85 54.73 234.31 53.7 232.85 53.7C231.937 53.7797 231.084 54.1884 230.45 54.85V60C230.45 61.51 230.57 61.57 231.89 61.75V62.36H227.1V61.75C228.6 61.57 228.72 61.51 228.72 60V55.45C228.72 54 228.6 53.94 227.4 53.76V53.28C228.452 53.1092 229.477 52.8033 230.45 52.37V54.12C230.921 53.7455 231.423 53.411 231.95 53.12C232.481 52.7085 233.129 52.4742 233.8 52.45C235.54 52.45 236.62 53.66 236.62 55.84V60.1C236.62 61.61 236.74 61.67 237.99 61.85V62.46H233.38L233.41 62.4ZM140.5 75.2C140.164 76.3092 139.764 77.3978 139.3 78.46C138.024 78.7679 136.721 78.9488 135.41 79C130.2 79 127.87 75.38 127.87 72C127.87 67.53 131.28 64.63 135.95 64.63C137.2 64.699 138.442 64.8797 139.66 65.17C139.84 66.38 139.96 67.23 140.08 68.37L139.42 68.49C138.88 66.26 137.62 65.35 135.35 65.35C131.82 65.35 129.96 68.35 129.96 71.57C129.96 75.57 132.3 78.28 135.47 78.28C137.62 78.28 138.76 77.13 139.78 75.02L140.5 75.2ZM147.74 78.94C147.37 78.9129 147.019 78.7654 146.74 78.52C146.477 78.2386 146.291 77.8942 146.2 77.52C145.3 78.12 144.29 78.91 143.63 78.91C142.926 78.8969 142.256 78.6074 141.764 78.104C141.272 77.6007 140.997 76.9239 141 76.22C141 75.14 141.59 74.47 142.79 74.05C143.987 73.7239 145.135 73.2361 146.2 72.6V72.18C146.2 70.61 145.48 69.7 144.35 69.7C144.162 69.6874 143.974 69.7188 143.8 69.7917C143.627 69.8646 143.473 69.977 143.35 70.12C143.016 70.5426 142.789 71.0403 142.69 71.57C142.675 71.7302 142.597 71.8779 142.473 71.9809C142.35 72.0839 142.19 72.1339 142.03 72.12C141.765 72.12 141.511 72.0146 141.323 71.8271C141.135 71.6396 141.03 71.3852 141.03 71.12C141.03 70.82 141.32 70.52 141.74 70.22C142.729 69.4953 143.845 68.9627 145.03 68.65C145.683 68.6275 146.322 68.8404 146.83 69.25C147.196 69.5951 147.477 70.0204 147.65 70.4924C147.824 70.9644 147.885 71.4702 147.83 71.97V76.07C147.83 77.07 148.25 77.4 148.61 77.4C148.882 77.3829 149.146 77.3006 149.38 77.16L149.62 77.76L147.74 78.94ZM146.18 73.38C145.7 73.63 144.69 74.11 144.18 74.29C143.34 74.71 142.86 75.14 142.86 75.92C142.849 76.1339 142.881 76.3478 142.954 76.5492C143.027 76.7506 143.14 76.9354 143.285 77.0927C143.43 77.2501 143.606 77.3769 143.8 77.4658C143.995 77.5546 144.206 77.6036 144.42 77.61C145.064 77.5379 145.67 77.265 146.15 76.83L146.18 73.38ZM155.82 78.64V78C157.13 77.88 157.25 77.7 157.25 76.19V72.54C157.25 71.03 156.71 70 155.25 70C154.337 70.0797 153.484 70.4884 152.85 71.15V76.34C152.85 77.85 152.97 77.91 154.29 78.09V78.7H149.56V78.09C151.06 77.91 151.18 77.85 151.18 76.34V71.75C151.18 70.37 151.06 70.25 149.86 70.06V69.58C150.911 69.4093 151.935 69.1069 152.91 68.68V70.43C153.393 70.072 153.894 69.7382 154.41 69.43C154.928 69.0295 155.556 68.7989 156.21 68.77C157.94 68.77 159.02 69.97 159.02 72.15V76.4C159.02 77.91 159.14 77.97 160.39 78.15V78.76H155.79L155.82 78.64ZM168.44 76.64C168.016 77.2541 167.465 77.7706 166.826 78.1552C166.186 78.5397 165.471 78.7834 164.73 78.87C164.133 78.8683 163.542 78.7448 162.994 78.5069C162.446 78.2689 161.952 77.9217 161.543 77.4864C161.134 77.0511 160.818 76.5369 160.615 75.9752C160.411 75.4136 160.325 74.8163 160.36 74.22C160.356 73.3703 160.555 72.532 160.941 71.7752C161.328 71.0184 161.89 70.3651 162.58 69.87C163.516 69.1125 164.668 68.6714 165.87 68.61C166.585 68.5823 167.289 68.7934 167.87 69.21C167.98 69.2806 168.07 69.3784 168.132 69.494C168.193 69.6097 168.224 69.7392 168.22 69.87C168.219 70.0894 168.15 70.3029 168.023 70.4818C167.896 70.6607 167.717 70.7962 167.51 70.87C167.39 70.87 167.27 70.81 167.09 70.63C166.493 70.0555 165.699 69.7301 164.87 69.72C163.44 69.72 162.18 70.93 162.18 73.28C162.18 76.36 164.27 77.39 165.47 77.39C165.98 77.3976 166.485 77.2932 166.95 77.0841C167.414 76.875 167.828 76.5664 168.16 76.18L168.44 76.64ZM176.76 76.76C176.355 77.3601 175.824 77.865 175.204 78.2397C174.584 78.6144 173.89 78.8499 173.17 78.93C170.48 78.93 168.92 76.7 168.92 74.22C168.897 72.798 169.411 71.4196 170.36 70.36C170.746 69.8827 171.227 69.4911 171.773 69.2104C172.319 68.9298 172.917 68.7661 173.53 68.73C174.408 68.7633 175.239 69.1329 175.851 69.7621C176.463 70.3913 176.81 71.232 176.82 72.11C176.82 72.53 176.7 72.71 176.34 72.83C175.98 72.95 173.23 73.13 170.6 73.19C170.6 76.19 172.33 77.42 173.89 77.42C174.838 77.4023 175.74 77.0105 176.4 76.33L176.76 76.76ZM173.05 69.57C172.05 69.57 171.05 70.48 170.78 72.29C172.03 72.29 173.23 72.29 174.49 72.23C174.91 72.23 175.03 72.11 175.03 71.81C175.053 71.53 175.019 71.2482 174.93 70.9818C174.841 70.7154 174.698 70.47 174.511 70.2604C174.324 70.0508 174.096 69.8815 173.842 69.7628C173.587 69.6442 173.311 69.5785 173.03 69.57H173.05ZM180.83 71.08C181.49 69.99 182.45 68.73 183.46 68.73C183.73 68.7033 184.001 68.7746 184.223 68.931C184.444 69.0874 184.602 69.3183 184.668 69.5816C184.733 69.8449 184.702 70.123 184.579 70.3651C184.457 70.6072 184.251 70.797 184 70.9C183.906 70.9536 183.798 70.9766 183.691 70.9659C183.583 70.9551 183.481 70.9111 183.4 70.84C183.3 70.6952 183.168 70.5762 183.013 70.4928C182.858 70.4093 182.686 70.3638 182.51 70.36C181.91 70.36 181.25 71.02 180.77 72.23V76.23C180.77 77.68 180.89 77.8 182.57 77.98V78.59H177.57V78C178.95 77.88 179.07 77.76 179.07 76.25V71.69C179.07 70.25 178.95 70.12 177.69 69.94V69.46C178.764 69.3009 179.81 68.9947 180.8 68.55L180.86 71.09L180.83 71.08ZM199.83 75.19C199.493 76.2975 199.096 77.3857 198.64 78.45C197.364 78.7572 196.061 78.9381 194.75 78.99C189.54 78.99 187.21 75.37 187.21 71.99C187.21 67.52 190.62 64.62 195.28 64.62C196.531 64.6875 197.772 64.8682 198.99 65.16C199.17 66.37 199.29 67.22 199.41 68.36L198.75 68.48C198.22 66.25 196.96 65.34 194.69 65.34C191.15 65.34 189.3 68.34 189.3 71.56C189.3 75.56 191.63 78.27 194.81 78.27C196.96 78.27 198.1 77.12 199.11 75.01L199.83 75.19ZM207 76.77C206.595 77.3701 206.064 77.875 205.444 78.2497C204.824 78.6244 204.13 78.8599 203.41 78.94C200.72 78.94 199.16 76.71 199.16 74.23C199.137 72.808 199.651 71.4296 200.6 70.37C200.986 69.8927 201.467 69.5011 202.013 69.2205C202.559 68.9398 203.157 68.7761 203.77 68.74C204.637 68.7882 205.453 69.1642 206.053 69.7919C206.653 70.4196 206.991 71.2519 207 72.12C207 72.54 206.88 72.72 206.52 72.84C206.16 72.96 203.41 73.14 200.78 73.2C200.78 76.2 202.51 77.43 204.07 77.43C205.018 77.4123 205.92 77.0205 206.58 76.34L207 76.77ZM203.23 69.58C202.23 69.58 201.23 70.49 200.96 72.3C202.16 72.3 203.41 72.3 204.67 72.24C205.09 72.24 205.21 72.12 205.21 71.82C205.244 71.5379 205.218 71.2518 205.133 70.9808C205.048 70.7097 204.906 70.4599 204.716 70.2479C204.527 70.036 204.295 69.8668 204.035 69.7516C203.776 69.6364 203.494 69.5779 203.21 69.58H203.23ZM213.71 78.64V78C215.02 77.88 215.14 77.7 215.14 76.19V72.54C215.14 71.03 214.6 70 213.14 70C212.227 70.0797 211.374 70.4884 210.74 71.15V76.34C210.74 77.85 210.86 77.91 212.18 78.09V78.7H207.4V78.09C208.9 77.91 209.02 77.85 209.02 76.34V71.75C209.02 70.37 208.9 70.25 207.7 70.06V69.58C208.751 69.4093 209.775 69.1069 210.75 68.68V70.43C211.233 70.072 211.734 69.7382 212.25 69.43C212.768 69.0295 213.396 68.7989 214.05 68.77C215.78 68.77 216.86 69.97 216.86 72.15V76.4C216.86 77.91 216.98 77.97 218.23 78.15V78.76H213.69L213.71 78.64ZM222.2 78.64C221.925 78.7945 221.623 78.8962 221.31 78.94C219.93 78.94 219.15 78.03 219.15 76.28V69.82H217.6L217.54 69.58L218.13 68.92H219.13V67.29L220.57 65.84L220.87 65.9V68.9H223.32C223.408 69.0298 223.445 69.1879 223.423 69.3432C223.401 69.4986 223.321 69.6401 223.2 69.74H220.87V75.42C220.87 77.23 221.59 77.53 222.12 77.53C222.599 77.4975 223.067 77.3753 223.5 77.17L223.68 77.77L222.2 78.64ZM231.2 76.77C230.795 77.3701 230.264 77.875 229.644 78.2497C229.024 78.6244 228.33 78.8599 227.61 78.94C224.92 78.94 223.36 76.71 223.36 74.23C223.337 72.808 223.851 71.4296 224.8 70.37C225.189 69.8886 225.675 69.4945 226.226 69.2137C226.778 68.9328 227.382 68.7714 228 68.74C228.877 68.7757 229.706 69.146 230.318 69.7747C230.93 70.4034 231.278 71.2427 231.29 72.12C231.29 72.54 231.17 72.72 230.81 72.84C230.45 72.96 227.7 73.14 225.07 73.2C225.07 76.2 226.8 77.43 228.36 77.43C229.307 77.4101 230.209 77.0186 230.87 76.34L231.2 76.77ZM227.49 69.58C226.49 69.58 225.49 70.49 225.22 72.3C226.47 72.3 227.67 72.3 228.93 72.24C229.35 72.24 229.46 72.12 229.46 71.82C229.485 71.5397 229.452 71.2573 229.363 70.9903C229.274 70.7233 229.132 70.4772 228.945 70.2673C228.757 70.0575 228.529 69.8882 228.274 69.77C228.018 69.6518 227.741 69.5871 227.46 69.58H227.49ZM235.09 71.09C235.75 70 236.71 68.74 237.72 68.74C237.99 68.7133 238.261 68.7846 238.483 68.941C238.704 69.0974 238.862 69.3283 238.928 69.5916C238.993 69.8549 238.962 70.1331 238.839 70.3751C238.717 70.6172 238.511 70.807 238.26 70.91C238.166 70.9636 238.058 70.9866 237.951 70.9758C237.843 70.9651 237.741 70.9211 237.66 70.85C237.559 70.7064 237.426 70.5882 237.272 70.5049C237.117 70.4216 236.946 70.3754 236.77 70.37C236.17 70.37 235.51 71.03 235.03 72.24V76.24C235.03 77.69 235.15 77.81 236.83 77.99V78.6H231.83V78C233.21 77.88 233.32 77.76 233.32 76.25V71.69C233.32 70.25 233.21 70.12 231.95 69.94V69.46C233.024 69.3009 234.07 68.9947 235.06 68.55L235.12 71.09H235.09Z" fill="#050505"/>
<path d="M173.17 73.14C173.67 73.17 174.171 73.17 174.67 73.14C174.79 73.2 174.79 73.26 174.91 73.26L175.09 73.2V73.26C175.21 73.2 175.74 73.26 175.63 73.14C176.434 73.0982 177.24 73.1791 178.02 73.38C178.14 73.45 178.44 73.38 178.62 73.45C178.8 73.52 179.46 73.57 179.51 73.57C180.17 73.75 180.59 73.69 181.01 73.81C181.429 73.9815 181.878 74.0633 182.33 74.05C183.189 74.4494 184.083 74.7675 185 75C185.155 75.0224 185.301 75.0883 185.42 75.19C185.48 75.25 185.6 75.37 185.72 75.31C185.84 75.25 185.72 75.49 185.72 75.61C185.72 75.73 185.72 75.85 185.48 75.91C185.18 75.79 185.18 76.03 185.06 76.09C184.34 76.21 183.62 75.67 182.91 75.91C182.79 75.91 182.97 75.55 182.73 75.61C181.89 75.97 180.73 75.49 179.73 75L179.79 74.88C179.61 74.76 179.38 75.07 179.14 75C179.14 74.94 179.2 74.94 179.2 74.82C179.14 75 178.84 74.88 178.72 75C178.66 74.94 178.66 74.76 178.6 74.64L178.48 74.82C178.12 75.31 177.7 74.7 177.28 74.94C177.28 74.88 177.34 74.88 177.34 74.82C176.575 74.9857 175.788 75.0262 175.01 74.94C175.07 74.88 175.07 74.7 175.07 74.64C175.01 74.88 174.77 74.88 174.53 74.94C174.47 74.7 174.17 75.13 173.93 75V74.94C173.75 75.19 173.69 74.76 173.51 75.07L173.39 74.88C173.27 75.25 173.15 74.7 172.97 74.82V74.88C172.85 74.94 172.79 74.76 172.61 74.82V74.76C172.435 74.8202 172.245 74.8202 172.07 74.76C172.01 74.52 171.78 74.88 171.6 74.52C170.822 74.6208 170.032 74.6006 169.26 74.46C169.14 74.34 169.08 74.28 169.08 74.22C169.08 74.16 168.72 74.22 168.6 74.4C168.66 74.4 168.54 74.28 168.48 74.22C168.42 74.16 168.24 74.52 168.06 74.34C168.097 74.3115 168.127 74.2752 168.148 74.2337C168.168 74.1921 168.179 74.1464 168.18 74.1C168.01 74.28 167.77 74.22 167.59 74.28C167.65 74.22 167.65 74.22 167.65 74.1C167.41 74.34 167.23 74.04 167.05 74.16L167.11 74.04C166.81 73.86 166.99 74.34 166.75 74.22C166.773 74.1964 166.79 74.1679 166.801 74.1368C166.811 74.1057 166.814 74.0726 166.81 74.04C166.57 74.28 166.15 74.16 165.91 74.28V74.22C165.631 74.19 165.349 74.19 165.07 74.22C164.95 74.16 165.13 73.86 164.83 73.86C164.83 74.16 164.35 73.98 164.47 74.34C164.225 74.2461 163.962 74.2052 163.7 74.22C163.82 74.1 163.58 73.86 163.82 73.8L163.7 73.62C163.7 73.5 163.88 73.68 163.82 73.5C163.7 73.5 163.4 73.62 163.34 73.56C163.16 73.74 162.98 74.1 162.62 74.1C162.74 73.98 162.56 73.74 162.68 73.68L162.2 74.28C162.08 74.28 162.2 74.04 162.02 74.1C162.02 74.16 161.96 74.22 161.9 74.28C161.84 74.34 161.48 74.34 161.42 74.04C161.36 73.92 161.6 73.98 161.48 73.86C161.36 73.74 161.3 73.98 161.12 73.98V73.92C161 73.86 160.76 74.04 160.88 74.22C160.94 74.22 160.88 74.04 161 74.1C160.947 74.1777 160.876 74.2405 160.791 74.2825C160.707 74.3245 160.614 74.3443 160.52 74.34C160.58 74.28 160.58 74.22 160.58 74.1L159.93 74.28C159.57 74.04 159.15 74.52 158.93 74.22C158.99 74.22 158.93 74.4 158.93 74.4C158.75 74.4 158.75 74.16 158.63 74.22C158.63 74.1 158.51 74.28 158.39 74.28C158.27 74.28 158.39 74.22 158.45 74.22C158.268 74.3212 158.065 74.3793 157.857 74.3897C157.649 74.4001 157.441 74.3626 157.25 74.28C157.183 74.4079 157.078 74.5124 156.95 74.58L157.01 74.4C156.95 74.28 156.71 74.4 156.71 74.28H156.89C156.71 74.28 156.54 74.52 156.42 74.34C156.48 74.4 156.54 74.1 156.42 74.1C156.3 74.1 156.36 74.22 156.12 74.28L156 74.34C156 74.52 155.76 74.34 155.88 74.52C155.88 74.34 155.52 74.64 155.52 74.28L155.58 74.04C155.46 74.04 155.4 74.28 155.34 74.4C155.308 74.3676 155.287 74.3255 155.28 74.28C155.28 74.64 155.04 74.22 154.92 74.52C154.68 74.4 154.38 74.52 154.26 74.28C154.08 74.4 153.96 74.52 153.72 74.46C153.78 74.4 153.84 74.4 153.84 74.34C153.84 74.28 153.66 74.34 153.6 74.4C153.54 74.46 153.36 74.16 153.24 74.04C153.06 74.16 153.12 74.34 153.12 74.46C152.94 74.1 152.65 74.7 152.47 74.34C152.53 74.28 152.71 74.16 152.59 74.04C152.41 73.68 152.29 74.34 152.05 74.16L152.11 74.46C151.99 74.28 151.75 74.64 151.75 74.34C151.69 74.46 151.45 74.22 151.51 74.52C151.09 74.28 150.51 74.7 150.25 74.16L150.07 74.1C149.77 73.92 149.77 74.58 149.41 74.52C149.41 74.4 149.41 74.34 149.29 74.4L149.11 74.64C148.87 74.58 148.99 74.34 148.99 74.16C148.87 74.22 148.7 74.16 148.64 74.34L148.46 74.1C148.58 74.28 148.34 74.22 148.28 74.28L148.34 74.22C148.34 74.16 148.16 74.16 148.1 74.22C148.04 74.28 148.28 74.4 148.34 74.46C148.4 74.52 148.16 74.52 148.1 74.64C148.1 74.46 147.92 74.52 147.8 74.46C147.68 74.4 147.68 74.64 147.62 74.64C147.56 74.64 147.44 74.64 147.5 74.46C147.44 74.4 147.56 74.22 147.44 74.34C147.32 74.46 147.5 74.76 147.26 74.64C147.32 74.58 147.32 74.52 147.38 74.46L147.14 74.34V74.46C147.08 74.64 146.84 74.52 146.78 74.76C146.66 74.76 146.54 74.64 146.48 74.64C146.417 74.5923 146.337 74.5718 146.258 74.583C146.179 74.5943 146.108 74.6363 146.06 74.7V74.64C146 74.64 145.82 74.64 145.76 74.76C145.58 74.64 145.7 74.04 145.52 74.28C145.34 74.28 145.22 74.64 145.34 74.76C145.04 74.64 144.69 74.94 144.39 74.64C144.33 74.7 144.39 74.76 144.27 74.82C143.79 74.76 143.27 75.07 142.95 74.7C143.07 74.64 142.95 74.52 142.95 74.4C142.83 74.58 142.83 74.22 142.77 74.52C142.71 74.82 142.77 74.76 142.89 74.82C142.754 74.8717 142.609 74.8931 142.464 74.8827C142.319 74.8724 142.177 74.8305 142.05 74.76C142.11 74.82 142.05 74.88 141.99 74.94C141.99 74.7 141.81 74.64 141.63 74.7V74.88L141.51 74.7C141.45 74.76 141.45 75.07 141.27 74.88L141.21 74.7C141.04 74.82 140.86 75.07 140.68 74.94L140.56 74.7C140.5 74.7 140.38 74.88 140.5 74.94C140.2 74.82 140.02 74.76 139.9 74.58C139.636 74.7897 139.328 74.9365 138.999 75.0093C138.67 75.082 138.328 75.0789 138 75V74.87C137.82 74.75 137.94 75.12 137.82 75C137.88 74.87 137.7 74.75 137.82 74.57C137.58 74.45 137.52 74.81 137.4 74.81C137.4 75 137.52 74.69 137.46 74.93C137.46 75 137.17 74.81 137.11 75.06C137.08 74.9385 137.08 74.8115 137.11 74.69L136.99 74.81C136.81 74.51 137.34 74.33 137.17 73.97L137.05 74.03L136.93 74.21C136.63 74.27 136.81 74.81 136.51 74.75C136.45 74.63 136.75 74.69 136.69 74.51C136.63 74.33 136.39 74.63 136.27 74.57C136.31 74.6259 136.325 74.6949 136.314 74.7623C136.303 74.8297 136.266 74.8899 136.21 74.93C136.03 74.81 136.33 74.69 136.09 74.69C136.03 74.81 135.85 74.93 136.03 75.06C135.97 75.36 135.79 75 135.67 75.24C135.61 75 135.91 74.69 135.67 74.63C135.73 74.87 135.37 74.93 135.49 75.24C135.37 75.18 135.37 75 135.43 74.87C135.31 74.75 135.07 75.3 135.07 74.81L135.01 75.06C134.936 74.9876 134.875 74.9031 134.83 74.81C134.71 74.81 134.47 75.12 134.47 74.75C134.41 74.81 134.17 74.75 134.29 75C134.41 75.25 134.47 74.81 134.59 75.12C134.47 74.87 134.35 75.18 134.23 75.24V75.12C134.17 75.18 134.05 75.12 133.99 75.3C134.05 75.24 133.99 75.12 133.99 75.12L133.93 75.3C133.69 75.42 133.87 74.93 133.63 75L133.81 74.81C133.75 74.87 133.69 74.63 133.57 74.75C133.45 74.87 133.45 75.18 133.4 75.3C133.35 75.42 133.34 75.12 133.22 75.3L133.4 75.06C133.4 75 133.28 74.75 133.1 74.75C132.92 74.75 132.8 75.06 132.98 75.18C132.92 75.18 132.74 75.06 132.86 74.93C132.68 75 132.86 75.12 132.74 75.24C132.68 75.12 132.44 74.93 132.32 74.75L132.5 74.45H132.38C132.56 74.21 132.2 74.51 132.26 74.21C132.2 74.15 132.08 74.27 132.02 74.33C132.26 74.75 131.9 74.69 131.96 75.06C131.66 75.18 131.84 74.15 131.54 74.75C131.6 74.87 131.66 74.81 131.54 75C131.36 74.93 131.42 75.36 131.18 75.24C131.36 75.06 131 74.87 131.24 74.63C131.24 74.75 131.36 74.75 131.42 74.69C131.48 74.63 131.42 74.33 131.24 74.33C131.06 74.33 130.94 74.39 130.94 74.57C130.94 74.75 131.12 74.57 131.06 74.75C130.82 74.81 130.76 74.51 130.64 74.87C130.82 74.81 130.82 75.06 130.82 75.24L130.64 75.36L130.7 75.24C130.4 75.12 130.64 75.48 130.34 75.48L130.22 75.18C130.28 74.93 130.64 75.3 130.58 74.87C130.4 74.87 130.34 75.06 130.16 74.93L130.28 74.87C130.22 74.87 130.4 74.45 130.1 74.75C129.98 74.87 129.8 74.75 129.8 74.93C129.51 75 129.45 75.12 129.21 75.18C129.27 74.87 128.85 75.18 129.09 74.87C129.21 75.06 129.45 75 129.57 74.69C129.45 74.33 129.8 74.63 130.04 74.45C129.8 74.45 129.8 74.09 129.74 73.91C129.68 73.91 129.62 73.97 129.57 74.03C129.52 74.09 129.57 74.21 129.57 74.45C129.45 74.4258 129.326 74.4355 129.211 74.4778C129.096 74.5202 128.996 74.5937 128.92 74.69C128.8 74.57 128.86 74.39 128.98 74.39C128.724 74.4501 128.457 74.4501 128.2 74.39C127.96 74.45 127.78 74.69 127.6 74.57C127.42 74.75 127.6 74.39 127.42 74.39C127.24 74.57 127.12 74.39 126.88 74.45C126.632 74.3348 126.37 74.2541 126.1 74.21C126.04 74.21 125.98 74.15 125.92 74.15L125.86 74.09L125.8 74.03C125.8 74.03 125.74 74.03 125.74 73.85C125.74 73.67 125.8 73.61 125.8 73.61V73C125.98 72.88 125.98 72.58 126.22 72.64C126.412 72.5559 126.624 72.5338 126.829 72.5769C127.033 72.6199 127.219 72.7259 127.36 72.88C127.395 72.9974 127.395 73.1226 127.36 73.24C127.54 72.88 127.96 73.3 128.14 73.12C128.56 73.3 128.98 72.94 129.22 73.24C129.874 73.0736 130.546 72.9929 131.22 73L131.1 73.24C131.22 73.06 131.16 73.36 131.34 73.36C131.22 73.18 131.52 73.12 131.58 72.94C131.88 73.12 132.3 72.94 132.58 72.76V73C132.88 72.7 133.24 72.94 133.53 73C133.59 73.06 133.65 73.24 133.77 73.24C133.95 72.94 134.07 73 134.37 72.82C134.639 72.8287 134.904 72.8898 135.15 73C135.93 72.64 136.71 72.88 137.54 72.64L137.6 72.82C138.38 72.4 139.34 72.76 140.06 72.58L140 72.94C140.047 72.9689 140.102 72.9833 140.157 72.9814C140.212 72.9796 140.265 72.9615 140.31 72.9295C140.355 72.8974 140.389 72.8529 140.409 72.8014C140.428 72.7499 140.432 72.6938 140.42 72.64C140.66 72.76 140.96 72.46 141.07 72.76C141.31 72.82 141.31 72.58 141.49 72.58H142.39C142.33 72.64 142.33 72.82 142.45 72.82C142.57 72.82 142.99 72.94 142.87 72.52C143.29 72.76 143.87 72.34 144.31 72.64C144.25 72.52 144.37 72.52 144.43 72.46C144.79 72.46 145.2 72.7 145.5 72.52C145.56 72.58 145.38 72.7 145.56 72.7C145.74 72.7 145.56 72.58 145.68 72.52C146.28 72.34 146.94 72.76 147.48 72.7C148.473 72.5515 149.477 72.4913 150.48 72.52V72.58C150.78 72.28 151.26 72.88 151.48 72.4C151.54 72.46 151.78 72.46 151.72 72.58C151.96 72.34 152.44 72.76 152.79 72.52C152.73 72.52 152.73 72.52 152.67 72.58C153.03 72.76 153.39 72.52 153.75 72.7C153.69 72.76 153.63 72.76 153.63 72.82C153.81 73 153.99 72.46 154.05 72.88C154.11 72.88 154.11 72.7 154.05 72.7C154.951 72.7281 155.852 72.6678 156.74 72.52C157.4 72.76 156.8 73.18 157.28 72.88C157.34 72.94 157.34 72.76 157.34 72.82C157.52 72.7 157.64 73.24 157.76 73.06C157.7 72.82 157.88 72.94 157.88 72.76C158.3 72.94 158.36 73.12 158.66 72.94V73C159.02 72.64 159.44 72.88 159.8 72.46C161.8 72.46 163.8 72.28 165.72 72.34C167.143 72.373 168.562 72.4933 169.97 72.7C170.75 72.82 171.65 72.94 172.36 73.06L173.17 73.14Z" fill="#E1251B"/>
<path d="M74.0002 75.8C73.8727 75.8124 73.7496 75.8534 73.6402 75.92C73.4155 76.0299 73.1702 76.0912 72.9202 76.1C72.5002 76.1 72.2602 75.92 72.2602 75.56V72.06H73.8202L74.1202 71.51C74.1951 71.4278 74.2378 71.3212 74.2402 71.21C74.2432 71.1698 74.2375 71.1295 74.2234 71.0917C74.2094 71.054 74.1874 71.0197 74.1589 70.9912C74.1305 70.9628 74.0962 70.9408 74.0584 70.9267C74.0207 70.9127 73.9803 70.907 73.9402 70.91C73.8202 70.91 73.8202 70.97 73.7602 70.97C73.7235 71.0126 73.6771 71.0458 73.6249 71.0667C73.5726 71.0876 73.5161 71.0956 73.4602 71.09H72.2602V70.31C72.2002 69.94 72.0302 69.88 71.9102 69.88C71.7902 69.88 71.6102 70 71.4902 70.25C71.4293 70.3639 71.3479 70.4656 71.2502 70.55C71.0257 70.805 70.7852 71.0455 70.5302 71.27C70.2902 71.51 70.2302 71.57 70.2302 71.75C70.2302 71.93 70.4102 72.06 70.8902 72.06V75.26C70.852 75.4815 70.8645 75.7088 70.9267 75.9249C70.9888 76.1409 71.0991 76.3401 71.2492 76.5075C71.3992 76.6748 71.5852 76.8061 71.7932 76.8914C72.0012 76.9767 72.2258 77.0138 72.4502 77C73.2902 77 74.2502 76.57 74.2502 76.15C74.3102 75.92 74.1902 75.8 74.0002 75.8ZM70.2402 76C69.9402 75.94 69.7602 75.88 69.7602 75.58V73.51C69.7979 73.1871 69.7677 72.8599 69.6714 72.5494C69.5751 72.2389 69.4149 71.952 69.2011 71.7072C68.9873 71.4623 68.7246 71.2649 68.43 71.1276C68.1353 70.9903 67.8152 70.9162 67.4902 70.91C66.8887 70.9295 66.314 71.1636 65.8702 71.57V71.21C65.8758 71.1071 65.8416 71.006 65.7745 70.9277C65.7074 70.8495 65.6127 70.8001 65.5102 70.79C65.3207 70.7973 65.1399 70.8718 65.0002 71C64.6412 71.1989 64.2625 71.3597 63.8702 71.48C63.7855 71.4982 63.7096 71.5449 63.655 71.6122C63.6004 71.6794 63.5705 71.7634 63.5702 71.85C63.5702 72.15 63.8702 72.15 64.0502 72.21C64.4002 72.27 64.5202 72.33 64.5202 72.57V75.71C64.5287 75.7645 64.5264 75.8201 64.5135 75.8738C64.5005 75.9274 64.4771 75.9779 64.4446 76.0225C64.4121 76.0671 64.3711 76.1048 64.3241 76.1335C64.277 76.1623 64.2247 76.1815 64.1702 76.19C64.11 76.196 64.0519 76.2153 64 76.2464C63.9481 76.2775 63.9038 76.3197 63.8702 76.37C63.7566 76.2611 63.6073 76.1972 63.4502 76.19C63.2102 76.13 62.9702 76.13 62.7902 75.89C62.5946 75.575 62.4336 75.2397 62.3102 74.89C62.2436 74.7806 62.2025 74.6575 62.1902 74.53L59.5602 67.95V67.89C59.5002 67.65 59.3802 67.35 59.1402 67.35C58.9002 67.35 58.8402 67.47 58.4202 68.35C58.3002 68.59 58.1802 68.9 58.0002 69.35L55.0002 75.87C54.9548 75.9872 54.8822 76.0919 54.7883 76.1753C54.6943 76.2588 54.5819 76.3187 54.4602 76.35C54.3402 76.41 54.1002 76.47 54.1002 76.71C54.0974 76.7585 54.1047 76.807 54.1217 76.8525C54.1386 76.898 54.1649 76.9394 54.1987 76.9742C54.2326 77.009 54.2733 77.0364 54.3183 77.0546C54.3633 77.0728 54.4116 77.0815 54.4602 77.08H56.6702C56.7282 77.0888 56.7876 77.0837 56.8433 77.0651C56.899 77.0464 56.9494 77.0148 56.9905 76.9727C57.0315 76.9307 57.062 76.8795 57.0793 76.8234C57.0966 76.7673 57.1004 76.7078 57.0902 76.65C57.0902 76.35 56.7902 76.29 56.6202 76.29C56.4502 76.29 56.2002 76.23 56.2002 75.87C56.2002 75.75 56.2602 75.57 56.2602 75.51L57.0302 73.76C57.0902 73.64 57.1502 73.64 57.4502 73.64H60.2102C60.3902 73.64 60.4502 73.7 60.5602 74L60.9802 75C61.0402 75.06 61.0402 75.19 61.1002 75.31C61.2201 75.577 61.3009 75.8599 61.3402 76.15C61.3402 76.27 61.2802 76.27 61.0402 76.39C60.8002 76.51 60.5602 76.57 60.5602 76.82C60.5602 77.07 60.6202 77.18 61.0402 77.18H63.6202C63.8002 77.18 63.9202 77.12 63.9202 77.06C64.0203 77.1448 64.1492 77.1878 64.2802 77.18H64.4502C64.6302 77.18 64.8702 77.12 65.2902 77.12C65.5915 77.0975 65.8945 77.1177 66.1902 77.18H66.4902C66.5504 77.1905 66.6122 77.1874 66.6711 77.1709C66.73 77.1544 66.7845 77.1249 66.8305 77.0846C66.8765 77.0444 66.9129 76.9943 66.9371 76.9381C66.9613 76.882 66.9726 76.8211 66.9702 76.76C66.9702 76.45 66.6102 76.39 66.4302 76.33C66.0102 76.27 65.8902 76.21 65.8902 75.91V72.91C65.9896 72.6626 66.1654 72.4535 66.3921 72.3132C66.6188 72.1728 66.8844 72.1086 67.1502 72.13C67.4967 72.158 67.8194 72.3177 68.0518 72.5762C68.2843 72.8347 68.409 73.1724 68.4002 73.52V75.8C68.4002 76.16 68.2802 76.22 68.1602 76.28C68.0402 76.34 67.8702 76.4 67.8702 76.65C67.8702 76.9 67.9902 77.01 68.2802 77.01H68.5202C68.7002 77.01 68.8802 76.95 69.1802 76.95C69.4616 76.9304 69.7444 76.9506 70.0202 77.01H70.2602C70.317 77.013 70.3738 77.0039 70.4268 76.9832C70.4798 76.9625 70.5277 76.9307 70.5675 76.89C70.6072 76.8494 70.6379 76.8006 70.6573 76.7472C70.6767 76.6937 70.6845 76.6367 70.6802 76.58C70.7202 76.16 70.4202 76.1 70.2402 76ZM59.8902 72.36H57.4902L58.8102 69.58L59.8902 72.36ZM36.8902 71.09C35.6302 70.73 34.8902 70.43 34.8902 69.58C34.8902 68.49 35.8902 68.13 36.7502 68.13C37.2327 68.107 37.7095 68.242 38.1083 68.5145C38.5072 68.787 38.8062 69.1821 38.9602 69.64C39.0202 69.82 39.1402 70.18 39.4402 70.18C39.5514 70.1776 39.658 70.135 39.7402 70.06C39.7806 70.0228 39.8082 69.9737 39.819 69.9198C39.8298 69.8659 39.8232 69.8099 39.8002 69.76L39.6002 68C39.6068 67.9512 39.602 67.9015 39.5863 67.8548C39.5705 67.8081 39.5442 67.7657 39.5093 67.7308C39.4745 67.696 39.4321 67.6697 39.3854 67.6539C39.3387 67.6382 39.289 67.6334 39.2402 67.64C39.129 67.6424 39.0224 67.685 38.9402 67.76C38.9243 67.76 38.909 67.7537 38.8978 67.7424C38.8865 67.7312 38.8802 67.7159 38.8802 67.7C38.2583 67.3975 37.5713 67.2532 36.8802 67.28C35.3802 67.28 33.8802 68.06 33.8802 69.87C33.8802 71.68 35.5002 72.29 36.8802 72.71C38.0102 73.01 38.9702 73.31 38.9702 74.28C38.9219 74.8038 38.6691 75.2875 38.2667 75.6263C37.8643 75.9651 37.3446 76.1317 36.8202 76.09C36.2769 76.0998 35.7447 75.9351 35.302 75.6201C34.8592 75.3051 34.5291 74.8565 34.3602 74.34V74.22C34.3002 74.04 34.2402 73.74 33.9402 73.74C33.8202 73.74 33.7602 73.8 33.6502 73.86C33.5402 73.92 33.5302 74.16 33.5902 74.4L33.8502 76C33.9702 76.42 35.2902 76.85 36.1902 76.85C39.0002 76.89 40.0002 75.32 40.0002 74C40.0002 72 38.2802 71.45 36.9102 71.09H36.8902ZM45.2602 76.09H45.0902C44.9102 76.09 44.9102 76.03 44.8502 76.03C44.7902 76.03 44.7302 75.55 44.7302 75.31V72.42C44.7302 71.42 43.8902 70.91 42.5102 70.91H42.3902C41.8793 70.8646 41.369 71.0041 40.9524 71.3033C40.5357 71.6025 40.2404 72.0414 40.1202 72.54C40.1202 72.96 40.6602 73.2 40.9602 73.2C41.0244 73.2065 41.0892 73.1984 41.1499 73.1764C41.2105 73.1545 41.2655 73.1191 41.3106 73.073C41.3557 73.0269 41.3899 72.9712 41.4106 72.9101C41.4313 72.849 41.438 72.784 41.4302 72.72C41.4392 72.6354 41.4179 72.5504 41.3702 72.48C41.3702 72.42 41.3102 72.3 41.3102 72.24C41.3102 71.82 41.4902 71.69 42.2102 71.69C42.9302 71.69 43.2902 72.06 43.2902 72.6V73.38C40.6602 73.87 40.1202 74.59 40.1202 75.56C40.1202 76.53 40.6802 77 41.6902 77C42.357 76.9858 43.0045 76.7734 43.5502 76.39C43.6652 76.5693 43.8258 76.7147 44.0156 76.8114C44.2054 76.908 44.4175 76.9524 44.6302 76.94C44.7502 76.94 45.5802 76.94 45.5802 76.39C45.6402 76.28 45.6402 76 45.2802 76L45.2602 76.09ZM43.3502 74.16V75.37C43.3502 75.85 42.6302 76.15 42.2702 76.15C41.6702 76.15 41.4302 75.91 41.4302 75.37C41.4502 74.59 42.3502 74.35 43.3702 74.11L43.3502 74.16ZM52.1702 76C51.8702 75.94 51.6902 75.88 51.6902 75.58V73.51C51.728 73.1863 51.6975 72.8583 51.6006 72.5471C51.5037 72.2359 51.3426 71.9485 51.1277 71.7035C50.9129 71.4585 50.649 71.2613 50.3531 71.1246C50.0573 70.9879 49.736 70.9148 49.4102 70.91C48.8122 70.9319 48.2415 71.1658 47.8002 71.57V71.21C47.8058 71.1071 47.7715 71.006 47.7045 70.9277C47.6374 70.8495 47.5427 70.8001 47.4402 70.79C47.2752 70.8125 47.1214 70.8859 47.0002 71C46.6384 71.2003 46.2563 71.3612 45.8602 71.48C45.7755 71.4982 45.6996 71.5449 45.645 71.6122C45.5904 71.6794 45.5605 71.7634 45.5602 71.85C45.5602 72.15 45.8602 72.15 46.0402 72.21C46.4002 72.27 46.5202 72.33 46.5202 72.57V75.71C46.5286 75.7652 46.526 75.8216 46.5124 75.8758C46.4988 75.93 46.4746 75.9809 46.441 76.0256C46.4075 76.0703 46.3654 76.1079 46.3172 76.1361C46.2689 76.1643 46.2156 76.1827 46.1602 76.19C46.0402 76.25 45.8002 76.31 45.8002 76.55C45.8002 76.79 45.9202 76.92 46.2202 76.92H46.4002C46.5802 76.92 46.8202 76.86 47.2402 76.86C47.5415 76.8375 47.8445 76.8577 48.1402 76.92H48.4402C48.5013 76.9307 48.564 76.9274 48.6237 76.9104C48.6834 76.8933 48.7384 76.8629 48.7846 76.8215C48.8308 76.7801 48.867 76.7288 48.8905 76.6714C48.914 76.6139 48.9241 76.5519 48.9202 76.49C48.9202 76.19 48.5602 76.13 48.3802 76.07C47.9602 76.01 47.8402 75.95 47.8402 75.65V72.65C47.9377 72.4034 48.1118 72.1946 48.3368 72.0542C48.5617 71.9138 48.8258 71.8493 49.0902 71.87C49.4367 71.8955 49.7604 72.0527 49.9947 72.3093C50.229 72.566 50.3562 72.9025 50.3502 73.25V75.61C50.3502 75.97 50.2302 76.03 50.1102 76.09C49.9902 76.15 49.8102 76.21 49.8102 76.45C49.8102 76.69 49.9302 76.82 50.2302 76.82H50.4702C50.6502 76.82 50.8302 76.76 51.1302 76.76C51.4116 76.7404 51.6944 76.7606 51.9702 76.82H52.2102C52.2666 76.8214 52.3227 76.8112 52.3749 76.79C52.4272 76.7688 52.4746 76.737 52.514 76.6966C52.5534 76.6563 52.5841 76.6082 52.6041 76.5554C52.6241 76.5027 52.6329 76.4463 52.6302 76.39C52.6502 76.16 52.3502 76.1 52.1702 76ZM87.7102 69.18C87.7102 69.42 88.1302 70.08 88.4302 70.08C88.7302 70.08 89.1502 69.42 89.1502 69.18C89.1502 68.94 88.7302 68.27 88.4302 68.27C88.1302 68.27 87.7102 69 87.7102 69.22V69.18ZM77.0602 70.91C76.2485 70.9361 75.4795 71.2797 74.9185 71.8669C74.3575 72.4541 74.0493 73.238 74.0602 74.05C74.0451 74.4435 74.1132 74.8357 74.2599 75.2011C74.4067 75.5665 74.6289 75.8968 74.9121 76.1705C75.1952 76.4441 75.5328 76.655 75.903 76.7893C76.2731 76.9237 76.6674 76.9784 77.0602 76.95C77.4497 76.9597 77.8372 76.8899 78.1989 76.7449C78.5607 76.6 78.8891 76.3828 79.1642 76.1068C79.4392 75.8308 79.6552 75.5017 79.799 75.1394C79.9427 74.7772 80.0112 74.3895 80.0002 74C80.0394 73.5973 79.9914 73.1909 79.8597 72.8084C79.7279 72.4258 79.5153 72.0761 79.2365 71.783C78.9576 71.4899 78.6189 71.2602 78.2434 71.1096C77.8678 70.959 77.4643 70.8909 77.0602 70.91ZM76.8802 71.63C78.2602 71.63 78.7402 72.96 78.7402 74.17C78.7402 75.56 78.2002 76.28 77.2402 76.28C75.8102 76.28 75.3902 74.53 75.3902 73.63C75.3902 72.73 75.7502 71.63 76.8802 71.63ZM89.5702 76.1C89.2102 76.04 89.1502 75.98 89.1502 75.8V71.21C89.1558 71.1071 89.1216 71.006 89.0545 70.9277C88.9874 70.8495 88.8927 70.8001 88.7902 70.79C88.5914 70.8182 88.4044 70.9013 88.2502 71.03C87.9897 71.206 87.7073 71.3472 87.4102 71.45C87.3273 71.4702 87.2537 71.5177 87.2011 71.5848C87.1485 71.6519 87.12 71.7347 87.1202 71.82C87.1202 72.12 87.4102 72.12 87.5302 72.18C87.6502 72.24 87.8302 72.24 87.8302 72.54V75.54C87.8302 76.14 87.7102 76.14 87.5902 76.2C87.5043 76.2101 87.4258 76.2534 87.3716 76.3207C87.3174 76.3881 87.2917 76.474 87.3002 76.56C87.2982 76.6126 87.3078 76.665 87.3283 76.7136C87.3488 76.7621 87.3796 76.8055 87.4187 76.8408C87.4578 76.8761 87.5042 76.9023 87.5546 76.9178C87.6049 76.9332 87.658 76.9373 87.7102 76.93H88.0002C88.1802 76.93 88.3602 76.87 88.6002 76.87C88.8617 76.8577 89.1236 76.8779 89.3802 76.93H89.8002C90.2202 76.93 90.2802 76.69 90.2802 76.56C90.1702 76.22 89.8102 76.16 89.5702 76.1ZM92.9202 70.91C92.1076 70.9336 91.3371 71.2764 90.7756 71.8641C90.214 72.4519 89.9067 73.2372 89.9202 74.05C89.9051 74.4435 89.9732 74.8357 90.1199 75.2011C90.2667 75.5665 90.4889 75.8968 90.7721 76.1705C91.0552 76.4441 91.3928 76.655 91.763 76.7893C92.1331 76.9237 92.5274 76.9784 92.9202 76.95C93.3133 76.9586 93.704 76.8864 94.068 76.7378C94.432 76.5891 94.7616 76.3673 95.0364 76.086C95.3111 75.8047 95.5251 75.4699 95.6651 75.1025C95.8051 74.7351 95.8681 74.3428 95.8502 73.95C95.8817 73.5521 95.8284 73.1522 95.6938 72.7764C95.5592 72.4007 95.3464 72.0579 95.0694 71.7705C94.7925 71.4832 94.4577 71.2579 94.0872 71.1095C93.7167 70.9612 93.3189 70.8932 92.9202 70.91ZM92.7402 71.63C94.1202 71.63 94.6002 72.96 94.6002 74.17C94.6002 75.56 94.0602 76.28 93.1002 76.28C91.6602 76.28 91.2402 74.53 91.2402 73.63C91.2402 72.73 91.6002 71.63 92.7402 71.63ZM86.4602 76C86.1602 75.94 85.9802 75.88 85.9802 75.58V73.51C86.018 73.1863 85.9875 72.8583 85.8906 72.5471C85.7937 72.2359 85.6326 71.9485 85.4177 71.7035C85.2029 71.4585 84.939 71.2613 84.6431 71.1246C84.3473 70.9879 84.026 70.9148 83.7002 70.91C83.1022 70.9319 82.5315 71.1658 82.0902 71.57V71.21C82.0958 71.1071 82.0616 71.006 81.9945 70.9277C81.9274 70.8495 81.8327 70.8001 81.7302 70.79C81.5548 70.7957 81.3861 70.859 81.2502 70.97C80.8884 71.1703 80.5063 71.3312 80.1102 71.45C80.0255 71.4682 79.9496 71.5149 79.895 71.5822C79.8404 71.6495 79.8105 71.7334 79.8102 71.82C79.8102 72.12 80.1102 72.12 80.2902 72.18C80.6502 72.24 80.7702 72.3 80.7702 72.54V75.68C80.7786 75.7352 80.776 75.7916 80.7624 75.8458C80.7488 75.9 80.7246 75.9509 80.691 75.9956C80.6575 76.0403 80.6154 76.0779 80.5672 76.1061C80.5189 76.1343 80.4656 76.1527 80.4102 76.16C80.2902 76.22 80.0502 76.28 80.0502 76.52C80.0502 76.76 80.1702 76.89 80.4702 76.89H80.6502C80.8302 76.89 81.0702 76.83 81.4902 76.83C81.7915 76.8075 82.0945 76.8277 82.3902 76.89H82.6902C82.7513 76.9007 82.814 76.8974 82.8737 76.8804C82.9334 76.8633 82.9884 76.8329 83.0346 76.7915C83.0808 76.7501 83.117 76.6988 83.1405 76.6414C83.164 76.5839 83.1741 76.5219 83.1702 76.46C83.1702 76.16 82.8102 76.1 82.6302 76.04C82.2102 75.98 82.0902 75.92 82.0902 75.62V72.62C82.1896 72.3726 82.3654 72.1635 82.5921 72.0232C82.8188 71.8828 83.0844 71.8186 83.3502 71.84C83.695 71.8679 84.0161 72.0262 84.2484 72.2825C84.4806 72.5389 84.6064 72.8741 84.6002 73.22V75.58C84.6002 75.94 84.4802 76 84.3602 76.06C84.2402 76.12 84.0602 76.18 84.0602 76.42C84.0602 76.66 84.1802 76.79 84.4802 76.79H84.7202C84.9002 76.79 85.0802 76.73 85.3802 76.73C85.6616 76.7104 85.9444 76.7306 86.2202 76.79H86.4602C86.5166 76.7914 86.5727 76.7812 86.6249 76.76C86.6772 76.7388 86.7246 76.707 86.764 76.6666C86.8034 76.6263 86.8341 76.5782 86.8541 76.5254C86.8741 76.4727 86.8829 76.4163 86.8802 76.36C87.0002 76.16 86.7002 76.1 86.4602 76ZM117.16 61.27C116.62 61.15 116.32 61.09 116.32 60.67V57.38C116.32 55.51 115.42 53.28 112.85 53.28C111.832 53.3259 110.87 53.7587 110.16 54.49V47.49C110.167 47.4303 110.162 47.3698 110.144 47.3124C110.126 47.255 110.096 47.202 110.057 47.1568C110.017 47.1116 109.969 47.0751 109.914 47.0498C109.859 47.0246 109.8 47.011 109.74 47.01C109.458 47.0391 109.189 47.1427 108.96 47.31C108.413 47.6546 107.8 47.8827 107.16 47.98C107.077 47.9978 107.002 48.043 106.948 48.1082C106.894 48.1735 106.863 48.2551 106.86 48.34C106.86 48.64 107.22 48.7 107.46 48.7C108 48.76 108.36 48.88 108.36 49.43V60.65C108.36 61.07 108.12 61.19 107.7 61.37C107.46 61.43 107.22 61.55 107.22 61.85C107.217 61.8985 107.225 61.947 107.242 61.9925C107.259 62.038 107.285 62.0794 107.319 62.1142C107.353 62.149 107.393 62.1764 107.438 62.1946C107.483 62.2128 107.532 62.2215 107.58 62.22C107.802 62.2231 108.024 62.1996 108.24 62.15C108.6 62.15 109.02 62.09 109.38 62.09C109.778 62.0813 110.175 62.1013 110.57 62.15C110.93 62.15 111.23 62.22 111.41 62.22C111.59 62.22 111.89 62.22 111.89 61.79C111.89 61.55 111.59 61.49 111.35 61.43C110.81 61.37 110.16 61.25 110.16 60.22V56.06C110.16 55.15 111.47 54.43 112.31 54.43C112.43 54.43 114.52 54.49 114.52 57.2V60.83C114.52 61.13 114.28 61.25 113.99 61.43C113.7 61.61 113.57 61.61 113.57 61.85C113.57 62.09 113.63 62.22 114.05 62.22H114.4C114.7 62.22 115.12 62.15 115.66 62.15C116.042 62.1345 116.424 62.1579 116.8 62.22H117.34C117.7 62.22 117.88 62.09 117.88 61.79C117.88 61.49 117.46 61.37 117.16 61.31V61.27ZM34.0902 49.54V56.24C34.0902 58.89 34.7502 62.4 40.4402 62.4C41.1968 62.46 41.9578 62.367 42.6777 62.1265C43.3976 61.8859 44.0616 61.5028 44.6302 61C45.6704 59.7528 46.1833 58.1493 46.0602 56.53V50.2C46.0602 49.11 46.4802 48.93 46.7802 48.75C47.0802 48.57 47.2002 48.51 47.2002 48.21C47.19 48.1074 47.1407 48.0128 47.0624 47.9457C46.9842 47.8786 46.8831 47.8443 46.7802 47.85C46.5981 47.8402 46.4157 47.8605 46.2402 47.91C45.6839 47.94 45.1264 47.94 44.5702 47.91C44.2102 47.91 43.7902 47.85 43.4302 47.85C43.3408 47.8666 43.2586 47.9099 43.1944 47.9742C43.1301 48.0384 43.0868 48.1207 43.0702 48.21C43.0702 48.63 43.4302 48.69 43.7902 48.81C44.3302 48.93 44.8702 49.05 44.8702 50.2V56.66C44.8702 59.74 43.3702 61.31 40.5002 61.31C39.8993 61.3594 39.2948 61.278 38.7285 61.0712C38.1621 60.8645 37.6473 60.5374 37.2196 60.1125C36.7918 59.6876 36.4613 59.175 36.2508 58.6101C36.0403 58.0451 35.9548 57.4412 36.0002 56.84V49.6C36.0002 48.87 36.3602 48.75 36.7802 48.6C37.0202 48.54 37.3202 48.48 37.3202 48.12C37.3202 47.76 37.0802 47.75 36.6602 47.75H36.5402C36.2053 47.7378 35.8701 47.7612 35.5402 47.82C34.9617 47.88 34.3786 47.88 33.8002 47.82C33.5702 47.82 33.3302 47.75 33.0302 47.75C32.9102 47.75 32.4302 47.82 32.4302 48.12C32.4302 48.42 32.8502 48.6 33.2102 48.72C33.7302 48.87 34.0902 49 34.0902 49.54ZM66.5902 48.63C67.0702 48.75 67.6702 48.87 67.6702 49.63V59.83C67.6702 60.98 67.1302 61.1 66.6702 61.22C66.4302 61.28 66.1302 61.34 66.1302 61.7C66.1302 62.06 66.3702 62.19 66.4902 62.19H66.6102C67.1453 62.1386 67.6827 62.1152 68.2202 62.12C68.9402 62.12 69.7802 62.19 70.3802 62.19H71.0002C71.3602 62.19 71.4802 62 71.4802 61.88C71.4802 61.52 71.0602 61.4 70.7002 61.28C70.0402 61.1 69.6202 60.98 69.6202 60.28V55.21H76.9202V60.28C76.9202 60.95 76.5002 61.07 76.0802 61.28C75.6602 61.49 75.5502 61.46 75.5502 61.76C75.5502 62.06 75.6102 62.18 76.0202 62.18H76.6802C77.0402 62.18 77.5802 62.12 78.3602 62.12C78.6946 62.1095 79.0294 62.1296 79.3602 62.18C79.6502 62.18 79.8902 62.25 80.1302 62.25C80.3702 62.25 80.4902 62 80.4902 61.82C80.4902 61.64 80.1302 61.4 79.8302 61.34C79.3002 61.22 78.7002 61.04 78.7002 60.25V49.72C78.7002 48.93 79.1202 48.81 79.5402 48.72C79.7702 48.66 80.0102 48.6 80.0102 48.36C80.0102 48.12 79.8902 47.88 79.3002 47.88C79.1378 47.8703 78.9751 47.8906 78.8202 47.94C78.5802 47.94 78.3402 48 77.9202 48C77.6589 48.0037 77.3978 47.9837 77.1402 47.94C76.7202 47.94 76.2402 47.88 75.8202 47.88C75.4002 47.88 75.3502 48 75.3502 48.24C75.3502 48.48 75.6502 48.6 75.9402 48.72C76.2302 48.84 76.8402 49.02 76.8402 49.72V54.18H69.5402V49.72C69.5402 48.87 70.0202 48.72 70.4402 48.63C70.6802 48.57 70.9202 48.51 70.9202 48.21C70.9202 48.09 70.8602 47.85 70.3802 47.85C70.0789 47.8401 69.7774 47.8602 69.4802 47.91C68.8149 47.9719 68.1454 47.9719 67.4802 47.91C67.1202 47.91 66.7602 47.85 66.4002 47.85C66.0402 47.85 65.9202 48.15 65.9202 48.21C66.0002 48.51 66.2902 48.57 66.5902 48.63ZM106.92 60.89C106.747 60.8941 106.581 60.9577 106.45 61.07C106.082 61.271 105.669 61.3743 105.25 61.37C105.103 61.4 104.951 61.3966 104.806 61.36C104.66 61.3234 104.525 61.2545 104.41 61.1585C104.295 61.0624 104.202 60.9417 104.14 60.8052C104.078 60.6687 104.047 60.52 104.05 60.37V54.73H106.57L106.98 53.94C107.047 53.8306 107.088 53.7075 107.1 53.58C107.103 53.5398 107.097 53.4995 107.083 53.4618C107.069 53.424 107.047 53.3897 107.019 53.3612C106.99 53.3328 106.956 53.3108 106.918 53.2967C106.881 53.2827 106.84 53.277 106.8 53.28C106.74 53.28 106.68 53.34 106.62 53.4C106.453 53.5392 106.247 53.623 106.03 53.64H104.03V53.52C104.05 53.0957 104.03 52.6705 103.97 52.25C103.97 52.13 103.91 51.77 103.55 51.77C103.37 51.77 103.25 51.95 103.07 52.25C102.89 52.55 102.83 52.55 102.71 52.74C102.388 53.1323 102.029 53.4938 101.64 53.82C101.28 54.12 101.16 54.25 101.16 54.43C101.16 54.61 101.34 54.73 102.24 54.73V59.92C102.24 61.55 103.01 62.4 104.63 62.4C106.07 62.4 107.26 61.67 107.26 61.25C107.266 61.203 107.262 61.1553 107.247 61.1102C107.232 61.0652 107.208 61.0239 107.175 60.9895C107.143 60.955 107.103 60.9282 107.059 60.911C107.015 60.8938 106.967 60.8866 106.92 60.89ZM53.4802 49.23C53.5379 49.4483 53.5581 49.6749 53.5402 49.9V60.34C53.5402 60.89 53.1802 61.07 52.6502 61.34C52.3502 61.46 51.9902 61.58 51.9902 61.88C51.9902 62.18 52.1102 62.31 52.4102 62.31H52.5302C52.7702 62.31 53.3002 62.25 55.1002 62.25C55.3815 62.2379 55.6634 62.258 55.9402 62.31C56.1802 62.31 56.4202 62.37 56.6602 62.37C56.9002 62.37 56.8902 62.31 56.8902 62.25C56.9302 62.2092 56.9615 62.1607 56.9822 62.1074C57.0028 62.0541 57.0123 61.9971 57.0102 61.94C57.0102 61.58 56.6602 61.52 56.3602 61.4C55.8802 61.28 55.3602 61.16 55.3602 60.31V49.31H58.7702C59.8502 49.31 59.9102 49.74 59.9702 50.16C59.9702 50.4 60.0302 50.82 60.4502 50.82C60.5046 50.8248 60.5594 50.8163 60.6098 50.7955C60.6603 50.7746 60.705 50.7418 60.7402 50.7C60.8356 50.5592 60.8781 50.3891 60.8602 50.22L60.7402 48.65C60.7402 48.11 60.5602 47.93 60.0302 47.93H59.4302C58.5902 47.93 56.9102 47.99 54.2202 47.99C52.7802 47.99 51.7102 47.99 50.7502 47.93C49.9702 47.93 49.3102 47.87 48.6602 47.87C48.1802 47.87 48.1802 48.41 48.1202 48.71L47.8802 50.76C47.8802 50.94 48.0602 51.19 48.2402 51.19C48.6002 51.19 48.6602 50.88 48.7202 50.7L48.7802 50.46C49.0702 49.46 49.1302 49.31 50.2102 49.31L53.4802 49.23ZM100.76 61.31C100.22 61.19 99.7602 61.07 99.7602 60.46V47.46C99.7672 47.4003 99.7616 47.3398 99.7438 47.2824C99.7259 47.225 99.6963 47.172 99.6567 47.1268C99.6171 47.0816 99.5685 47.0451 99.514 47.0198C99.4595 46.9946 99.4003 46.981 99.3402 46.98C99.0795 47.0094 98.833 47.1136 98.6302 47.28C98.1257 47.5998 97.5763 47.8425 97.0002 48C96.9171 48.0178 96.8425 48.063 96.7881 48.1282C96.7337 48.1935 96.7028 48.2751 96.7002 48.36C96.7002 48.66 97.0002 48.72 97.2402 48.72C97.7202 48.78 98.0202 48.84 98.0202 49.45V60.71C98.0202 61.13 97.7202 61.25 97.4802 61.37C97.2402 61.49 97.0602 61.55 97.0602 61.79C97.0588 61.846 97.0687 61.9017 97.0892 61.9538C97.1097 62.0059 97.1405 62.0534 97.1796 62.0935C97.2187 62.1335 97.2655 62.1654 97.3171 62.1871C97.3687 62.2088 97.4242 62.22 97.4802 62.22H97.7202C97.9602 62.22 98.3202 62.15 98.9702 62.15C99.6202 62.15 100.05 62.22 100.35 62.22H100.77C100.95 62.22 101.37 62.22 101.37 61.79C101.37 61.36 101.12 61.37 100.76 61.31ZM87.5902 60C87.3487 60.0339 87.1226 60.1383 86.9402 60.3C86.3169 60.7684 85.5598 61.0243 84.7802 61.03C83.7802 61.03 81.8502 60.18 81.7802 57.1H87.0002C87.1593 57.1144 87.3197 57.0939 87.4702 57.04C87.5468 57.0011 87.6104 56.9406 87.6531 56.8659C87.6957 56.7913 87.7156 56.7058 87.7102 56.62C87.5925 55.7244 87.1613 54.8995 86.4931 54.2917C85.8249 53.6838 84.9629 53.3325 84.0602 53.3C81.6702 53.3 80.0602 55.3 80.0602 58.13C80.0573 59.2355 80.4884 60.298 81.2607 61.089C82.033 61.8801 83.0849 62.3364 84.1902 62.36C85.9902 62.36 87.8402 60.91 87.8402 60.3C87.8902 60 87.7102 60 87.5902 60ZM81.8502 56.26C81.8645 55.731 82.0632 55.2235 82.412 54.8255C82.7607 54.4274 83.2376 54.1637 83.7602 54.08C84.2703 54.1113 84.7523 54.3241 85.1192 54.6799C85.486 55.0357 85.7134 55.5111 85.7602 56.02C85.7602 56.2 85.7002 56.26 85.5202 56.26H81.8502ZM96.2102 61.26H95.9102C95.7328 61.2649 95.5606 61.2003 95.4302 61.08C95.1902 60.84 95.1902 60.29 95.1902 59.81V55.39C95.1902 53.39 92.6802 53.16 91.9002 53.16H91.7802C89.6302 53.16 88.4302 54.55 88.4302 55.57C88.4302 56.06 89.1502 56.42 89.5102 56.42C89.8702 56.42 90.1102 56.24 90.1102 55.88C90.1205 55.7536 90.1 55.6266 90.0502 55.51C90.0004 55.3759 89.9799 55.2327 89.9902 55.09C89.9902 54.25 90.4702 54.09 91.5402 54.09C92.6102 54.09 93.4002 54.7 93.4002 55.66V57C88.8502 57.79 88.4002 59.06 88.4002 60.2C88.4002 61.59 89.1802 62.26 90.6802 62.26C91.7397 62.255 92.7686 61.9038 93.6102 61.26C93.7573 61.5542 93.9895 61.7973 94.2767 61.9578C94.5638 62.1183 94.8925 62.1887 95.2202 62.16C95.2802 62.16 96.5402 62.16 96.5402 61.5C96.6302 61.43 96.5702 61.25 96.2102 61.25V61.26ZM91.5402 61.44C90.5402 61.44 90.1102 61.02 90.1102 60.05C90.1102 58.6 92.0202 58.24 93.2802 57.94C93.3128 57.9441 93.3458 57.9408 93.377 57.9304C93.4081 57.92 93.4366 57.9028 93.4602 57.88V60C93.4002 61 92.1402 61.43 91.5402 61.43V61.44Z" fill="#050505"/>
<path d="M239 41H32.48V41.6H239V41Z" fill="#C0511B"/>
<path d="M53.1202 31.4C52.5302 31.28 51.9302 31.1 51.8102 29.9L51.4502 17C51.3902 15 52.1702 14.84 52.7702 14.72C53.0602 14.66 53.4202 14.54 53.4202 14.19C53.4259 14.0871 53.3916 13.986 53.3245 13.9077C53.2575 13.8295 53.1628 13.7802 53.0602 13.77C52.8815 13.7602 52.7023 13.7805 52.5302 13.83C52.3502 13.83 52.1102 13.89 51.8102 13.89C51.6679 13.8923 51.5262 13.872 51.3902 13.83C51.1326 13.7863 50.8715 13.7663 50.6102 13.77C50.3102 13.77 50.0702 14.19 49.9502 14.48C49.8902 14.54 49.8902 14.6 49.8302 14.66L43.6102 27.15L43.5502 27.27C43.2502 27.87 42.9502 28.47 42.8902 28.53C42.8302 28.59 42.7102 28.35 42.4702 27.93L36.3102 14.58C36.3102 14.52 36.2502 14.46 36.2502 14.41C36.1302 14.17 36.0702 13.81 35.6502 13.81C35.4087 13.8001 35.1668 13.8203 34.9302 13.87C34.6902 13.87 34.4502 13.93 34.2102 13.93C33.972 13.9403 33.7334 13.9202 33.5002 13.87C33.2602 13.87 33.0202 13.81 32.7802 13.81C32.3002 13.81 32.2402 14.05 32.2402 14.23C32.2402 14.41 32.4802 14.64 32.7802 14.76C33.4402 15 34.6902 15.42 34.6902 19.76C34.6902 21.76 34.5102 23.71 34.3302 26.28C34.2702 27.28 34.1502 28.28 34.0902 29.52C33.9702 31.13 33.3202 31.31 32.8402 31.52C32.5402 31.58 32.2402 31.7 32.2402 32.12C32.2402 32.36 32.3602 32.54 32.6002 32.54C32.7823 32.5498 32.9647 32.5295 33.1402 32.48C33.6947 32.4196 34.2528 32.3995 34.8102 32.42C35.2902 32.42 35.8902 32.48 36.3702 32.48C36.6702 32.48 36.9702 32.54 37.0902 32.54C37.3902 32.54 37.8602 32.54 37.8602 32.12C37.8602 31.7 37.5002 31.64 37.1502 31.52C36.4302 31.34 35.4702 31.04 35.5302 28.89L35.8302 19.79C35.8288 19.6869 35.8493 19.5846 35.8902 19.49C35.9502 19.49 36.0102 19.55 36.1302 19.73L41.6302 31.28C41.635 31.326 41.6563 31.3686 41.6902 31.4C41.8102 31.7 41.9902 32.12 42.2902 32.12C42.5902 32.12 42.7102 31.76 43.0702 31.04C43.1302 30.92 43.1902 30.86 43.1902 30.8L48.5802 19.85C48.8202 19.31 49.0502 19.13 49.1702 19.13C49.2902 19.13 49.3502 19.37 49.3502 20.03L49.5902 30.03C49.6377 30.3593 49.5619 30.6945 49.3773 30.9714C49.1927 31.2482 48.9125 31.4471 48.5902 31.53C48.2902 31.65 47.9902 31.77 47.9902 32.13C47.9902 32.31 48.1102 32.49 48.4102 32.49C48.7447 32.4977 49.0791 32.4776 49.4102 32.43C49.8302 32.43 50.2502 32.37 50.6702 32.37C51.2702 32.37 51.8702 32.43 52.2902 32.43C52.7102 32.43 52.8802 32.49 53.0602 32.49C53.2402 32.49 53.7802 32.49 53.7802 32.13C53.8402 31.58 53.4802 31.46 53.1202 31.4ZM65.1202 31.34H64.7002C64.5733 31.35 64.4457 31.3339 64.3253 31.2926C64.2049 31.2513 64.0943 31.1858 64.0002 31.1C63.6851 30.6042 63.5774 30.0045 63.7002 29.43V23.68C63.7002 21.11 60.4702 20.87 59.5102 20.87C58.8717 20.8267 58.231 20.9105 57.625 21.1165C57.0191 21.3224 56.4601 21.6465 55.9802 22.07C55.4279 22.5405 55.0713 23.2002 54.9802 23.92C54.9802 24.46 55.8802 24.92 56.3002 24.92C56.8902 24.92 56.9502 24.62 56.9502 24.32C56.9502 24.2 56.8902 24.02 56.8902 23.84C56.84 23.6442 56.8198 23.4419 56.8302 23.24C56.8302 21.93 57.8302 21.81 58.9902 21.81C60.5402 21.81 61.5602 22.64 61.5602 23.96V25.88C55.5602 26.88 55.0402 28.51 55.0402 30C55.0402 31.74 56.0402 32.58 57.9702 32.58C59.427 32.5604 60.8352 32.0534 61.9702 31.14C62.1443 31.5257 62.4319 31.8492 62.7946 32.0671C63.1574 32.2851 63.5779 32.3873 64.0002 32.36C64.0002 32.36 65.6102 32.36 65.6102 31.58C65.5102 31.34 65.2102 31.34 65.0902 31.34H65.1202ZM61.5002 29.61C61.5002 30.92 59.7702 31.61 58.9302 31.61C57.5502 31.61 56.9302 31.01 56.9302 29.7C56.9302 27.7 59.5102 27.18 61.1802 26.82C61.3002 26.82 61.4202 26.76 61.5402 26.76L61.5002 29.61ZM75.6302 21.23C75.4877 21.2242 75.3454 21.2446 75.2102 21.29C74.9702 21.29 74.6702 21.35 74.3102 21.35C73.9502 21.35 73.5302 21.29 73.3102 21.29C73.0902 21.29 73.0102 21.23 72.8902 21.23C72.4702 21.23 72.0002 21.23 72.0002 21.65C72.0002 22.07 72.2902 22.07 72.6502 22.13C73.0102 22.19 73.6502 22.42 73.6502 23.2C73.63 23.6544 73.5284 24.1015 73.3502 24.52L71.4402 30.08L68.7402 23.32C68.6771 23.1253 68.6368 22.924 68.6202 22.72C68.6202 22.24 68.9202 22.18 69.4602 22.07C69.7602 22.01 70.1202 21.95 70.1202 21.65C70.1202 21.35 69.8202 21.23 69.4602 21.23C69.2584 21.223 69.0566 21.2432 68.8602 21.29C68.5002 21.29 68.0902 21.35 67.5502 21.35C67.2158 21.3605 66.881 21.3404 66.5502 21.29C66.2502 21.29 66.0102 21.23 65.7702 21.23C65.5302 21.23 65.1102 21.23 65.1102 21.65C65.1102 21.89 65.3502 22.01 65.6502 22.13C65.8014 22.1612 65.944 22.2247 66.0682 22.3162C66.1925 22.4077 66.2955 22.525 66.3702 22.66L69.7602 31L69.8202 31.18C70.0772 31.6396 70.2212 32.1538 70.2402 32.68C70.0531 33.9651 69.4652 35.1585 68.5602 36.09C68.2678 36.3986 68.046 36.7671 67.9102 37.17C67.9062 37.2026 67.9095 37.2357 67.9198 37.2668C67.9302 37.2979 67.9474 37.3264 67.9702 37.35C68.0902 37.47 68.3802 37.47 68.7402 37.47H69.0002C69.7202 37.47 69.9002 37.47 70.0002 37.29L74.9102 23.04C75.2102 22.14 75.6302 22.04 75.9102 21.97C76.1902 21.9 76.3302 21.85 76.3302 21.55C76.2653 21.4268 76.1614 21.3286 76.0348 21.2707C75.9081 21.2128 75.7659 21.1985 75.6302 21.23ZM81.4902 25.72C78.6202 24.58 78.1402 24.04 78.1402 23.32C78.1403 23.1009 78.1866 22.8842 78.276 22.6841C78.3655 22.4841 78.496 22.3051 78.6592 22.1588C78.8225 22.0126 79.0147 21.9024 79.2233 21.8354C79.432 21.7684 79.6524 21.7461 79.8702 21.77C80.4337 21.765 80.9836 21.9425 81.4378 22.276C81.8921 22.6094 82.2262 23.0809 82.3902 23.62C82.5102 23.86 82.5702 24.04 82.6902 24.04C82.8015 24.0376 82.908 23.995 82.9902 23.92C83.1102 23.8 83.1102 23.56 83.1102 23.26V22.84C83.1102 22.3 83.1102 21.77 82.9302 21.59C82.5702 21.11 80.5902 20.93 80.2902 20.93C78.0802 20.93 76.7002 22.18 76.7002 24.16C76.7002 25.9 78.2002 26.67 79.5202 27.27L79.8702 27.45L80.2302 27.63C81.2302 28.05 82.1502 28.53 82.1502 29.63C82.1519 29.9122 82.0939 30.1916 81.9799 30.4498C81.866 30.708 81.6986 30.9392 81.4889 31.1281C81.2793 31.317 81.032 31.4594 80.7633 31.5459C80.4947 31.6324 80.2108 31.661 79.9302 31.63C78.0802 31.63 77.6602 30.07 77.3602 29.06C77.2402 28.52 77.1202 28.16 76.8202 28.16C76.7738 28.1607 76.7281 28.1719 76.6866 28.1927C76.645 28.2135 76.6087 28.2433 76.5802 28.28C76.4002 28.46 76.4002 29 76.4002 29.36V29.54C76.4002 31.54 76.4002 31.75 77.0602 31.75C77.294 31.7854 77.5184 31.867 77.7202 31.99C78.4115 32.3948 79.1992 32.6056 80.0002 32.6C80.9507 32.5921 81.8598 32.2097 82.53 31.5357C83.2003 30.8617 83.5776 29.9505 83.5802 29C83.7195 28.2895 83.5802 27.5527 83.1911 26.9421C82.8021 26.3315 82.1931 25.8939 81.4902 25.72ZM107.49 27.39C107.377 27.4042 107.272 27.4517 107.186 27.5266C107.1 27.6014 107.039 27.7001 107.01 27.81C106.65 28.89 104.14 31.52 100.13 31.52C95.2202 31.52 92.6502 27.03 92.6502 22.6C92.6502 17.46 95.3402 14.52 100.01 14.52C102.94 14.52 104.92 15.78 106.71 18.95C106.71 19.01 106.77 19.07 106.77 19.13C106.89 19.43 107.07 19.85 107.37 19.85C107.417 19.8493 107.462 19.8381 107.504 19.8173C107.545 19.7965 107.582 19.7667 107.61 19.73C107.79 19.55 107.73 19.13 107.67 18.47C107.67 18.18 107.61 17.88 107.61 17.47V17.17C107.55 15.61 107.55 15.25 107.13 15.25C107.051 15.2475 106.973 15.2623 106.9 15.2934C106.828 15.3245 106.763 15.3711 106.71 15.43C106.684 15.4665 106.649 15.4963 106.609 15.5172C106.569 15.538 106.525 15.5492 106.48 15.55C106.203 15.4726 105.939 15.351 105.7 15.19C103.842 14.0171 101.664 13.4541 99.4702 13.58C94.0902 13.58 90.0202 17.83 90.0202 23.45C90.0202 28.84 93.8502 32.61 99.2902 32.61C105.04 32.61 107.07 30.75 107.13 30.45L107.73 27.88C107.74 27.7763 107.719 27.6721 107.67 27.58C107.7 27.45 107.58 27.39 107.46 27.39H107.49ZM118.8 31.34H118.38C118.121 31.3551 117.867 31.269 117.67 31.1C117.355 30.6042 117.247 30.0045 117.37 29.43V23.68C117.37 21.11 114.14 20.87 113.18 20.87C112.542 20.8267 111.901 20.9105 111.295 21.1165C110.689 21.3224 110.13 21.6465 109.65 22.07C109.098 22.5405 108.741 23.2002 108.65 23.92C108.65 24.46 109.55 24.92 109.97 24.92C110.56 24.92 110.62 24.62 110.62 24.32C110.62 24.2 110.56 24.02 110.56 23.84C110.51 23.6442 110.49 23.4419 110.5 23.24C110.5 21.93 111.5 21.81 112.66 21.81C114.22 21.81 115.23 22.64 115.23 23.96V25.88C109.23 26.88 108.71 28.51 108.71 30C108.71 31.74 109.71 32.58 111.64 32.58C113.08 32.5493 114.469 32.043 115.59 31.14C115.762 31.5452 116.058 31.8854 116.435 32.1118C116.812 32.3382 117.252 32.4391 117.69 32.4C117.69 32.4 119.3 32.4 119.3 31.62C119.19 31.34 118.89 31.34 118.77 31.34H118.8ZM115.21 29.61C115.21 30.92 113.48 31.61 112.64 31.61C111.26 31.61 110.64 31.01 110.64 29.7C110.64 27.7 113.22 27.18 114.89 26.82C115.01 26.82 115.13 26.76 115.25 26.76V29.64L115.21 29.61ZM132.21 31.4C131.61 31.28 130.95 31.16 130.95 30.14V25.84C130.966 24.7041 130.676 23.5849 130.11 22.6C129.728 22.0241 129.2 21.5603 128.58 21.2563C127.959 20.9522 127.269 20.8189 126.58 20.87C125.881 20.9004 125.196 21.0751 124.568 21.3831C123.94 21.6912 123.382 22.1259 122.93 22.66V21.17C122.944 21.043 122.909 20.9155 122.83 20.8146C122.752 20.7137 122.637 20.6475 122.51 20.63C122.201 20.6533 121.909 20.7801 121.68 20.99C120.922 21.4596 120.091 21.7977 119.22 21.99C119.13 22.013 119.051 22.0665 118.997 22.1413C118.942 22.216 118.915 22.3075 118.92 22.4C118.92 22.7 119.28 22.76 119.64 22.82C120.24 22.88 120.84 23 120.84 23.82V30.28C120.864 30.4294 120.857 30.5822 120.819 30.7286C120.78 30.8749 120.712 31.0118 120.618 31.1303C120.524 31.2488 120.406 31.3464 120.272 31.417C120.138 31.4875 119.991 31.5294 119.84 31.54C119.6 31.6 119.3 31.66 119.3 31.96C119.3 32.26 119.6 32.38 119.9 32.38H120.32C120.915 32.3192 121.513 32.2991 122.11 32.32C123.11 32.32 123.61 32.38 124.03 32.38H124.57C124.93 32.38 125.23 32.32 125.23 31.9C125.23 31.48 124.81 31.48 124.39 31.42C123.73 31.3 122.95 31.18 122.95 30.16V24.16C123.012 23.8034 123.205 23.4827 123.49 23.26C123.81 22.9366 124.192 22.6813 124.613 22.5095C125.034 22.3376 125.486 22.2527 125.94 22.26C126.74 22.2963 127.493 22.6422 128.042 23.2246C128.591 23.8069 128.891 24.5799 128.88 25.38V30.22C128.88 31.22 128.46 31.36 128.16 31.48C127.86 31.6 127.74 31.6 127.74 31.9C127.74 32.2 128.04 32.32 128.34 32.32C128.502 32.3263 128.665 32.306 128.82 32.26C129.275 32.2028 129.733 32.1828 130.19 32.2C131.03 32.2 131.63 32.26 131.99 32.26H132.47C132.65 32.26 133.01 32.26 133.01 31.78C132.9 31.52 132.54 31.46 132.18 31.4H132.21ZM143.21 29.55C143.03 29.55 142.85 29.67 142.55 29.9C141.714 30.5792 140.677 30.9656 139.6 31C138.973 31.0319 138.347 30.9134 137.774 30.6542C137.202 30.395 136.7 30.0027 136.31 29.51C135.5 28.5113 135.074 27.2555 135.11 25.97C135.11 23.97 136.01 21.91 138.04 21.91C138.649 21.8732 139.257 21.997 139.803 22.2691C140.348 22.5411 140.813 22.9518 141.15 23.46C141.15 23.4759 141.157 23.4912 141.168 23.5024C141.179 23.5137 141.194 23.52 141.21 23.52C141.33 23.7 141.57 24.12 141.87 24.12C141.99 24.12 142.17 24 142.17 23.46V22C142.05 21.28 140.17 20.92 138.94 20.92C138.151 20.9278 137.37 21.0915 136.644 21.4015C135.918 21.7115 135.26 22.1619 134.708 22.7268C134.156 23.2916 133.721 23.9599 133.428 24.6932C133.135 25.4265 132.99 26.2104 133 27C132.975 27.7153 133.091 28.4286 133.342 29.099C133.592 29.7694 133.973 30.3837 134.462 30.9067C134.95 31.4297 135.537 31.8511 136.189 32.1469C136.841 32.4426 137.545 32.6068 138.26 32.63C141.79 32.63 143.47 30.41 143.47 29.88C143.473 29.7999 143.446 29.7216 143.394 29.6605C143.343 29.5994 143.27 29.56 143.19 29.55H143.21ZM153.86 29.67C153.575 29.7204 153.307 29.8406 153.08 30.02C152.251 30.6431 151.247 30.9925 150.21 31.02C147.04 31.02 146.21 27.61 146.14 25.7H153C153.36 25.7 153.6 25.7 153.78 25.52C153.864 25.3964 153.906 25.2492 153.9 25.1C153.727 23.9529 153.161 22.9016 152.298 22.1262C151.435 21.3508 150.329 20.8997 149.17 20.85C146.17 20.85 143.97 23.42 143.97 27.07C143.97 28.75 145.34 32.52 149.29 32.52C151.69 32.52 154.02 30.6 154.02 29.94C154.08 29.79 154 29.67 153.84 29.67H153.86ZM148.78 21.77C149.486 21.7813 150.161 22.0585 150.671 22.5461C151.18 23.0337 151.487 23.6958 151.53 24.4C151.53 24.7 151.41 24.82 151.11 24.82H146.11C146.18 23.32 147.32 21.77 148.76 21.77H148.78ZM160.98 20.93C159.91 20.93 159.07 22.13 158.47 22.93V21.23C158.484 21.103 158.449 20.9755 158.37 20.8746C158.292 20.7737 158.177 20.7075 158.05 20.69C157.736 20.7044 157.437 20.8323 157.21 21.05C156.513 21.5044 155.746 21.8422 154.94 22.05C154.76 22.11 154.52 22.22 154.52 22.46C154.52 22.7 154.88 22.82 155.18 22.88C155.72 22.94 156.38 23.06 156.38 23.88V30.58C156.38 31.12 156.02 31.3 155.6 31.58C155.18 31.86 155.06 31.88 155.06 32.18C155.06 32.48 155.12 32.54 155.48 32.54H155.72C156.02 32.54 156.61 32.48 157.87 32.48C158.87 32.48 159.43 32.54 159.87 32.54H160.35C160.52 32.54 160.88 32.54 160.88 32.12C160.88 31.7 160.46 31.7 160.05 31.64C159.39 31.58 158.55 31.52 158.55 30.08V24.34C158.63 23.9682 158.822 23.6302 159.102 23.3723C159.381 23.1145 159.733 22.9495 160.11 22.9C160.498 22.8887 160.878 23.0164 161.18 23.26C161.373 23.4009 161.602 23.4842 161.84 23.5C162.26 23.5 162.84 22.66 162.84 22.24C162.82 21.65 161.56 20.93 161 20.93H160.98ZM185.88 27.39C185.767 27.4042 185.662 27.4517 185.576 27.5266C185.49 27.6014 185.429 27.7001 185.4 27.81C185.04 28.89 182.53 31.52 178.52 31.52C173.61 31.52 171.04 27.03 171.04 22.6C171.04 17.46 173.73 14.52 178.4 14.52C181.33 14.52 183.31 15.78 185.1 18.95C185.1 19.01 185.16 19.07 185.16 19.13C185.28 19.43 185.46 19.85 185.76 19.85C185.807 19.8493 185.852 19.8381 185.894 19.8173C185.935 19.7965 185.972 19.7667 186 19.73C186.18 19.55 186.12 19.13 186.06 18.47C186.06 18.18 186 17.88 186 17.47V17.17C185.94 15.61 185.94 15.25 185.52 15.25C185.441 15.2475 185.363 15.2623 185.29 15.2934C185.218 15.3245 185.153 15.3711 185.1 15.43C185.034 15.4935 184.951 15.5353 184.86 15.55C184.583 15.4726 184.319 15.351 184.08 15.19C182.227 14.0147 180.051 13.4515 177.86 13.58C172.47 13.58 168.4 17.83 168.4 23.45C168.4 28.84 172.23 32.61 177.68 32.61C183.84 32.61 185.52 30.51 185.52 30.45L186.12 27.88C186.13 27.7763 186.109 27.6721 186.06 27.58C186.06 27.5542 186.055 27.5286 186.045 27.5049C186.035 27.4812 186.02 27.4598 186.001 27.442C185.982 27.4242 185.96 27.4104 185.936 27.4015C185.912 27.3926 185.886 27.3886 185.86 27.39H185.88ZM196.65 29.67C196.365 29.7204 196.097 29.8406 195.87 30.02C195.038 30.6359 194.035 30.9783 193 31C189.83 31 189 27.59 188.93 25.68H195.81C196.17 25.68 196.41 25.68 196.59 25.5C196.674 25.3764 196.716 25.2292 196.71 25.08C196.542 23.9325 195.98 22.879 195.121 22.1C194.262 21.3211 193.159 20.865 192 20.81C188.95 20.81 186.8 23.38 186.8 27.03C186.8 28.71 188.17 32.48 192.12 32.48C194.52 32.48 196.85 30.56 196.85 29.9C196.87 29.79 196.81 29.67 196.63 29.67H196.65ZM191.56 21.77C192.267 21.7788 192.945 22.0549 193.457 22.5427C193.969 23.0306 194.277 23.6941 194.32 24.4C194.32 24.7 194.2 24.82 193.9 24.82H188.9C189 23.5 190 21.77 191.54 21.77H191.56ZM210.56 31.4C209.97 31.28 209.31 31.16 209.31 30.14V25.84C209.327 24.7041 209.036 23.5849 208.47 22.6C208.086 22.0264 207.558 21.5643 206.938 21.2605C206.318 20.9567 205.629 20.822 204.94 20.87C204.24 20.8961 203.554 21.0689 202.925 21.3773C202.296 21.6857 201.739 22.1227 201.29 22.66V21.17C201.304 21.043 201.269 20.9155 201.19 20.8146C201.112 20.7137 200.997 20.6475 200.87 20.63C200.55 20.6629 200.246 20.7918 200 21C199.245 21.4682 198.417 21.8062 197.55 22C197.46 22.023 197.382 22.0765 197.327 22.1513C197.272 22.226 197.245 22.3175 197.25 22.41C197.25 22.71 197.61 22.77 197.97 22.83C198.57 22.89 199.16 23.01 199.16 23.83V30.29C199.16 31.29 198.63 31.43 198.16 31.55C197.92 31.61 197.62 31.67 197.62 31.97C197.62 32.27 197.92 32.39 198.22 32.39H198.64C199.235 32.3287 199.833 32.3086 200.43 32.33C201.43 32.33 201.93 32.39 202.35 32.39H202.88C203.24 32.39 203.54 32.33 203.54 31.91C203.54 31.49 203.12 31.49 202.7 31.43C202.05 31.31 201.27 31.19 201.27 30.17V24.17C201.332 23.8134 201.525 23.4927 201.81 23.27C202.129 22.9457 202.511 22.6898 202.932 22.5178C203.354 22.3459 203.805 22.2616 204.26 22.27C205.059 22.3063 205.811 22.6526 206.359 23.2352C206.906 23.8178 207.204 24.5909 207.19 25.39V30.23C207.19 31.23 206.77 31.37 206.47 31.49C206.17 31.61 206.06 31.61 206.06 31.91C206.06 32.21 206.36 32.33 206.65 32.33C206.812 32.3363 206.975 32.316 207.13 32.27C207.588 32.2126 208.049 32.1925 208.51 32.21C209.35 32.21 209.89 32.27 210.3 32.27H210.78C210.96 32.27 211.32 32.27 211.32 31.79C211.23 31.52 210.87 31.46 210.51 31.4H210.56ZM218.94 30.86C218.747 30.8664 218.559 30.929 218.4 31.04C217.893 31.3324 217.315 31.4778 216.73 31.46C215.65 31.46 215.05 30.92 215.05 30.02V22.54H218.4L218.94 21.54C219.025 21.412 219.086 21.2697 219.12 21.12C219.115 21.042 219.082 20.9684 219.027 20.9131C218.972 20.8579 218.898 20.8247 218.82 20.82C218.76 20.82 218.7 20.88 218.64 20.94C218.42 21.1619 218.123 21.2908 217.81 21.3H215V21.06C215.021 20.5193 215.001 19.9777 214.94 19.44C214.88 19.2 214.82 18.9 214.52 18.9C214.22 18.9 214.16 19.14 213.93 19.44C213.7 19.74 213.63 19.86 213.45 20.1C212.998 20.6075 212.514 21.0851 212 21.53C211.58 21.95 211.4 22.07 211.4 22.24C211.4 22.41 211.58 22.54 212.78 22.54V29.43C212.78 31.52 213.78 32.54 215.78 32.54C217.58 32.54 219.13 31.7 219.13 31.16C219.19 31 219.13 30.86 218.89 30.86H218.94ZM229.36 29.67C229.075 29.7204 228.807 29.8406 228.58 30.02C227.748 30.645 226.741 30.9946 225.7 31.02C222.53 31.02 221.7 27.61 221.64 25.7H228.52C228.88 25.7 229.12 25.7 229.3 25.52C229.384 25.3964 229.426 25.2492 229.42 25.1C229.247 23.9529 228.681 22.9016 227.818 22.1262C226.955 21.3508 225.849 20.8997 224.69 20.85C221.69 20.85 219.48 23.42 219.48 27.07C219.48 28.75 220.86 32.52 224.81 32.52C227.2 32.52 229.53 30.6 229.53 29.94C229.54 29.79 229.48 29.67 229.31 29.67H229.36ZM224.27 21.77C224.972 21.7863 225.642 22.0656 226.148 22.5528C226.654 23.0399 226.958 23.6992 227 24.4C227 24.7 226.88 24.82 226.58 24.82H221.58C221.65 23.5 222.66 21.77 224.22 21.77H224.27ZM236.48 20.93C235.4 20.93 234.56 22.13 233.96 22.93V21.23C233.974 21.103 233.939 20.9755 233.86 20.8746C233.782 20.7737 233.667 20.7075 233.54 20.69C233.229 20.7059 232.934 20.8337 232.71 21.05C232.009 21.504 231.239 21.8417 230.43 22.05C230.25 22.11 230.01 22.22 230.01 22.46C230.01 22.7 230.37 22.82 230.67 22.88C231.21 22.94 231.87 23.06 231.87 23.88V30.58C231.87 31.12 231.51 31.3 231.09 31.58C230.67 31.86 230.55 31.88 230.55 32.18C230.55 32.48 230.61 32.54 230.97 32.54H231.21C231.51 32.54 232.11 32.48 233.36 32.48C234.36 32.48 234.92 32.54 235.36 32.54H235.84C236.02 32.54 236.38 32.54 236.38 32.12C236.38 31.7 235.96 31.7 235.54 31.64C234.88 31.58 234.04 31.52 234.04 30.08V24.34C234.12 23.9682 234.312 23.6302 234.592 23.3723C234.871 23.1145 235.223 22.9495 235.6 22.9C235.992 22.8872 236.375 23.0149 236.68 23.26C236.87 23.3992 237.095 23.4823 237.33 23.5C237.75 23.5 238.33 22.66 238.33 22.24C238.28 21.65 237 20.93 236.43 20.93H236.48Z" fill="#C0511B"/>
<path d="M14.7001 1C14.0199 0.998693 13.3594 1.22857 12.827 1.65193C12.2947 2.07528 11.922 2.66699 11.7701 3.33H10.0001V4.33C9.68893 5.01496 9.15246 5.57261 8.48005 5.91C7.51806 6.40125 6.45006 6.64851 5.37005 6.63H4.53005V8H1.06005V12.19H14.7001V1ZM14.7001 41.66C12.8896 40.7014 11.1517 39.6119 9.50005 38.4C6.05216 35.9541 3.50735 32.4392 2.26005 28.4C1.4189 25.5049 0.994633 22.5048 1.00005 19.49V13.57H14.7001V41.66Z" fill="#D66027"/>
<path d="M28.3502 12.19H14.7002V0.999999C15.3821 0.996416 16.0449 1.22525 16.5793 1.64879C17.1137 2.07234 17.4879 2.66531 17.6402 3.33H19.3702V4.33C19.6952 5.01405 20.2461 5.56504 20.9302 5.89C21.8781 6.38259 22.9319 6.6366 24.0002 6.63H24.8402V8H28.3102V12.19H28.3502ZM14.7002 41.66C16.5138 40.7015 18.2551 39.6119 19.9102 38.4C23.3581 35.9541 25.9029 32.4391 27.1502 28.4C27.9923 25.5017 28.4166 22.4981 28.4102 19.48V13.57H14.7002V41.66Z" fill="#C0511B"/>
<path d="M6.20996 23.09L11.46 26.91L9.44996 33.08L14.7 29.26V16.92L12.7 23.09H6.20996Z" fill="white"/>
<path d="M19.9502 33.08L17.9502 26.91L23.2002 23.09H16.7102L14.7002 16.92V29.26L19.9502 33.08Z" fill="#F3CFBE"/>
<path d="M17.8999 40.74V40.85H17.5699V41.7H17.4399V40.85H17.1099V40.74H17.8999ZM18.0099 40.74H18.1999L18.4799 41.55L18.7499 40.74H18.9399V41.74H18.8099V41.17C18.8062 41.1368 18.8062 41.1032 18.8099 41.07V40.93L18.5299 41.74H18.3999L18.1199 40.93C18.1161 40.9666 18.1161 41.0034 18.1199 41.04V41.71H17.9999L18.0099 40.74Z" fill="#050505"/>
</svg>