<?xml version="1.0" encoding="UTF-8"?>
<svg id="Layer_1" data-name="Layer 1" xmlns="http://www.w3.org/2000/svg" viewBox="0 0 1000 1000">
  <defs>
    <style>
      .cls-1 {
        fill: #fff;
      }
    </style>
  </defs>
  <path class="cls-1" d="M505.83,214.17c1.67,15.83,5.83,35.83,9.17,50,43.33,168.33,226.67,233.33,460.83,185v-172.5c-185.83,38.33-415.83,16.67-468.33-195h-15c-52.5,211.67-282.5,233.33-468.33,195v172.5c234.17,48.33,417.5-16.67,460.83-185,3.33-14.17,7.5-34.17,9.17-50h11.67ZM507.5,372.5c44.17,186.67,240,239.17,464.17,195-12.5,68.33-40,133.33-82.5,186.67-250,13.33-361.67-82.5-383.33-249.17h-11.67c-21.67,166.67-133.33,262.5-383.33,249.17-42.5-53.33-70-118.33-82.5-186.67,224.17,44.17,420-8.33,464.17-195h15ZM510.83,0c70.83,182.5,309.17,190,465,158.33V0h-465ZM489.17,0H24.17v158.33C180,190,418.33,182.5,489.17,0ZM493.33,663.33c-32.5,125-139.17,190-239.17,203.33l245.83,133.33,245.83-133.33c-100-13.33-206.67-78.33-239.17-203.33h-13.33Z"/>
</svg>