<?xml version="1.0" encoding="UTF-8"?>
<svg id="artwork" xmlns="http://www.w3.org/2000/svg" width="500" height="96.883" version="1.1" viewBox="0 0 500 96.883">
  <defs>
    <style>
      .cls-1 {
        fill: #bc4b27;
      }

      .cls-1, .cls-2, .cls-3, .cls-4, .cls-5, .cls-6 {
        stroke-width: 0px;
      }

      .cls-2 {
        fill: #231f20;
      }

      .cls-3 {
        fill: #fdceb0;
      }

      .cls-4 {
        fill: #d66027;
      }

      .cls-5 {
        fill: #fff;
      }

      .cls-6 {
        fill: #111212;
      }
    </style>
  </defs>
  <g id="_CMYK_" data-name="&amp;lt;CMYK&amp;gt;">
    <g id="_Shield_" data-name="&amp;lt;Shield&amp;gt;">
      <path class="cls-1" d="M9.068,29.27h57.866v-8.823h-7.248v-2.854h-1.705s-3.754.145-6.57-1.521c-2.785-1.648-3.303-3.215-3.311-3.223v-2.294h-3.712c-.634-2.798-3.135-4.889-6.127-4.889s-5.494,2.091-6.127,4.889h-3.778v2.294c-.015.015-.533,1.578-3.31,3.223-2.816,1.666-6.57,1.521-6.57,1.521h-2.218v2.854h-7.248v8.79"/>
      <path class="cls-1" d="M9.054,48.28c.077,4.241.699,8.427,1.766,12.537,2.007,7.727,5.719,14.466,11.631,19.914,4.561,4.203,9.815,7.4,15.194,10.41.157.088.46.057.629-.037,3.74-2.07,7.375-4.306,10.838-6.822,7.376-5.361,12.499-12.337,15.237-21.052,1.915-6.099,2.555-12.375,2.596-18.726.021-3.323.024-9.116.025-12.439H9.035c-.002,4.582-.065,11.635.02,16.215M33.78,52.195l4.21-12.956,4.21,12.956h13.624l-11.022,8.005,4.21,12.955-11.022-8.008-11.022,8.007,4.21-12.954-11.021-8.005h13.623Z"/>
      <path class="cls-4" d="M38.155,29.271l.164-23.571c-2.992,0-5.494,2.091-6.127,4.889h-3.778v2.294c-.014.015-.532,1.578-3.31,3.223-2.816,1.666-6.57,1.522-6.57,1.522h-2.218v2.854h-7.248v8.79h29.087Z"/>
      <path class="cls-4" d="M38.029,65.17l-11.022,8.007,4.209-12.954-11.021-8.006h13.623l4.21-12.956-.048-7.174H9.073c-.002,4.582-.064,11.634.02,16.215.078,4.241.699,8.427,1.767,12.537,2.007,7.727,5.718,14.467,11.63,19.915,4.561,4.203,9.816,7.4,15.194,10.41.158.088.297.03.297.03l.048-26.025Z"/>
      <polygon class="cls-5" points="55.863 52.195 42.239 52.195 38.029 39.239 33.82 52.195 20.196 52.195 31.217 60.201 27.008 73.156 38.029 65.147 49.051 73.156 44.841 60.201 55.863 52.195"/>
      <polygon class="cls-3" points="38.029 39.239 42.239 52.195 55.863 52.195 44.841 60.201 49.051 73.156 38.029 65.147 38.029 39.239"/>
    </g>
    <path class="cls-2" d="M45.328,88.197c.243,0,.48.062.712.187.231.124.412.303.541.535.129.232.193.474.193.726,0,.249-.064.489-.191.719-.127.23-.306.409-.536.536-.229.127-.469.191-.72.191s-.491-.064-.72-.191c-.23-.127-.408-.306-.536-.536-.128-.23-.192-.47-.192-.719,0-.252.065-.494.195-.726.13-.232.31-.411.542-.535.231-.125.469-.187.711-.187ZM45.328,88.437c-.203,0-.401.052-.594.156-.192.104-.343.253-.452.447-.109.193-.163.395-.163.605,0,.209.054.408.16.6.107.191.257.34.448.447.192.107.392.16.6.16s.409-.053.601-.16c.192-.107.341-.256.447-.447.106-.191.16-.391.16-.6,0-.21-.054-.412-.162-.605-.108-.194-.259-.343-.452-.447-.193-.104-.391-.156-.593-.156ZM44.693,90.445v-1.558h.535c.183,0,.315.015.397.043.082.029.147.079.196.151.048.072.073.148.073.228,0,.114-.041.213-.122.297-.081.084-.188.132-.323.142.055.023.099.05.132.082.063.061.14.164.23.309l.19.305h-.307l-.138-.246c-.109-.193-.196-.314-.263-.363-.046-.036-.113-.054-.201-.054h-.148v.662h-.251ZM44.944,89.569h.305c.146,0,.245-.022.298-.065.053-.044.079-.101.079-.173,0-.046-.013-.087-.038-.124-.025-.036-.061-.064-.106-.081-.046-.018-.129-.027-.252-.027h-.286v.47Z"/>
    <g>
      <path class="cls-2" d="M101.426,57.106c1.608-2.169,2.423-5.303,2.423-9.314v-10.879c0-1.806.13-3.045.386-3.684.247-.619.806-1.111,1.659-1.461.364-.152.548-.368.548-.644,0-.334-.203-.526-.556-.526-.137,0-.466.022-.98.067-.377.043-1.389.065-3.009.065-.763,0-1.427-.044-1.972-.13-.629-.105-1.093-.163-1.418-.177-.188-.011-.323.035-.424.132-.107.102-.161.256-.161.458,0,.244.133.549.765.612,1.209.112,2.075.568,2.576,1.352.51.802.769,2.117.769,3.91v11.376c0,3.796-.861,6.672-2.56,8.547-1.694,1.871-4.295,2.82-7.729,2.82-3.836,0-6.603-1.133-8.225-3.368-1.15-1.578-1.733-4.269-1.733-7.999v-11.072l-.045-1.445c0-1.39.139-2.362.413-2.889.264-.509.806-.858,1.604-1.036.543-.1.818-.326.818-.674,0-.18-.084-.483-.646-.483-.21,0-.591.022-1.133.067-.65.059-1.048.087-1.219.087h-1.671l-1.691.022c-.306,0-.798-.022-1.466-.066-.645-.029-1.157-.044-1.522-.044-.806,0-.975.357-.975.655,0,.222.123.505.713.59,1.259.184,2.104.56,2.511,1.119.413.567.622,1.63.622,3.165l.044,1.248v11.164c0,3.073.53,5.602,1.578,7.518.933,1.673,2.424,3.016,4.434,3.992,2.004.972,4.287,1.465,6.787,1.465,2.148,0,4.196-.414,6.088-1.231,1.897-.82,3.377-1.934,4.397-3.309"/>
      <path class="cls-2" d="M119.005,33.361c.677,0,.897.114.969.182.07.067.187.274.187.917l.022.567v21.814c0,1.194-.189,2.027-.561,2.476-.371.447-1.11.745-2.194.886-.564.067-.849.258-.849.568,0,.228.103.612.801.612.153,0,.641-.043,1.489-.132.418-.044.939-.065,1.55-.065l1.714-.022,1.61.022c1.031,0,1.69.022,1.959.064.555.089.915.133,1.101.133.659,0,.757-.384.757-.613,0-.321-.298-.534-.885-.632-1.789-.313-2.694-1.271-2.764-2.925l-.022-.856v-21.573c0-.852.135-1.118.214-1.202.079-.082.329-.221,1.119-.221h6.175c1.195,0,2.002.15,2.4.445h0c.393.291.685.946.869,1.946.102.546.314.811.678.795.28-.025.61-.193.589-.849-.016-.227-.061-.591-.134-1.089-.071-.383-.107-1.008-.107-1.856,0-1.209-.167-1.521-.292-1.651-.201-.209-.698-.306-1.563-.306h-23.667c-.552,0-.909.123-1.092.375-.173.238-.257.699-.257,1.407,0,.671-.11,1.539-.326,2.578-.181.834-.268,1.395-.268,1.715,0,.611.331.721.528.731.526.022.682-.703.738-.944.284-1.283.687-2.164,1.198-2.618.506-.45,1.344-.679,2.489-.679h5.824Z"/>
      <path class="cls-2" d="M169.568,61.272c.431-.043.781-.066,1.045-.066l1.642-.044,1.629.022c1.101,0,1.833.029,2.177.086.948.147,1.524.187,1.785-.096.105-.115.15-.269.134-.457-.019-.304-.296-.493-.828-.56-1.198-.127-2.015-.477-2.429-1.042-.42-.574-.633-1.64-.633-3.17v-21.252c0-.705.15-1.337.445-1.878.285-.523.637-.829,1.05-.909l.9-.198c.528-.111.638-.381.638-.588,0-.212-.087-.568-.667-.568-.153,0-.426.029-.834.089-.616.086-1.719.13-3.276.13-1.079,0-2.109-.051-3.062-.153-.689-.073-1.197-.111-1.509-.111-.574,0-.679.311-.69.496-.013.231.106.534.747.659.997.226,1.688.642,2.053,1.238.373.607.562,1.665.562,3.146v7.52c0,.356-.069.59-.201.678-.105.07-.389.153-1.154.153h-12.966c-1.179,0-1.455-.143-1.519-.204h0c-.078-.075-.21-.356-.21-1.399v-7.872c0-1.053.161-1.807.479-2.244.316-.434.954-.776,1.899-1.017.464-.117.699-.329.699-.63,0-.22-.101-.591-.778-.591-.225,0-.533.029-.941.089-.895.116-1.873.175-2.904.175-1.524,0-2.872-.066-4.005-.196-.6-.073-1.047-.118-1.331-.133-.257-.007-.441.045-.562.163-.102.098-.154.235-.154.406,0,.233.131.527.755.61,1.206.186,2.05.555,2.508,1.098.459.545.692,1.449.692,2.685v18.9c0,2.033-.116,3.473-.346,4.279-.222.777-.62,1.22-1.217,1.356l-1.097.265c-.563.126-.681.424-.681.651,0,.205.09.548.69.548.164,0,.621-.032,1.396-.099.552-.048,1.014-.073,1.378-.073l1.444-.048,1.847.019c1.348,0,2.227.033,2.62.099.538.068.896.101,1.094.101.303,0,.514-.066.644-.202.096-.101.142-.234.134-.396-.019-.393-.342-.626-.96-.692-1.273-.142-2.151-.509-2.609-1.091-.462-.587-.695-1.638-.695-3.122v-8.066c0-.8.139-1.082.256-1.177.123-.101.478-.221,1.472-.221h12.944c.99,0,1.189.108,1.226.141.035.031.151.205.151,1.106v8.075l-.022.862c0,2.187-.717,3.373-2.188,3.626-.556.083-.848.293-.867.626-.008.176.039.316.137.416.106.106.269.161.479.161.017,0,.034,0,.052-.001.105,0,.576-.034,1.53-.11"/>
      <path class="cls-2" d="M234.417,58.729l-.193.058-1.148.552c-.591.311-1.331.468-2.198.468-1.068,0-1.9-.303-2.471-.903-.382-.396-.576-1.302-.576-2.694v-10.915h5.069c.546,0,.915-.247,1.098-.73l.502-1.258c.185-.414.21-.541.21-.601.011-.149-.023-.26-.1-.328-.07-.063-.166-.085-.28-.064-.129.019-.303.111-.54.286-.327.218-.804.328-1.417.328h-4.538l.085-3.662c0-.587-.243-.711-.448-.711-.166,0-.397.125-.954,1.035-.897,1.437-2.211,2.894-3.906,4.332-.417.354-.621.649-.621.9,0,.215.124.473.711.473h1.817v10.944c0,3.588,1.747,5.407,5.194,5.407,1.011,0,2.119-.287,3.292-.853,1.221-.59,1.815-1.141,1.815-1.685,0-.238-.151-.379-.403-.379"/>
      <path class="cls-2" d="M185.315,43.581c1.114,0,2.164.481,3.121,1.431.957.95,1.442,1.989,1.442,3.088,0,.466-.868.563-1.596.563h-7.293c.199-1.547.681-2.789,1.433-3.694h0c.767-.921,1.74-1.388,2.892-1.388M193.404,56.928c-.127.019-.255.078-.394.181-1.846,1.411-3.573,2.126-5.133,2.126-1.972,0-3.658-.844-5.01-2.509-1.36-1.674-2.049-3.77-2.049-6.224l.016-.35h8.186l1.497.044,1.63.022c1.042,0,1.571-.291,1.571-.865,0-.359-.184-.96-.56-1.836-.37-.857-.737-1.545-1.092-2.048-1.487-2.066-3.499-3.113-5.981-3.113-2.273,0-4.283.98-5.974,2.912-1.685,1.928-2.539,4.208-2.539,6.776,0,2.702.829,5,2.464,6.833,1.639,1.837,3.697,2.769,6.116,2.769,2.146,0,4.209-.761,6.129-2.261,1.072-.837,1.592-1.481,1.592-1.968,0-.175-.046-.306-.136-.391-.08-.075-.188-.109-.333-.098"/>
      <path class="cls-2" d="M221.669,59.984c-1.438-.24-2.32-.708-2.62-1.391-.269-.625-.405-1.539-.405-2.715v-25.793l.022-.681v-.004c0-.547-.073-.87-.23-1.016-.064-.06-.143-.092-.221-.092-.152-.003-.327.06-.544.204-.385.285-1.094.633-2.109,1.038l-1.343.549c-.402.158-.855.296-1.354.412-.449.124-.676.328-.676.608,0,.156.06.368.363.495.114.034.252.052.417.052h.002l1.093-.044c.853,0,1.267.615,1.267,1.882v24.372c0,.669-.106,1.155-.315,1.445-.208.288-.63.526-1.253.705-.496.134-.737.363-.718.679.01.21.12.563.735.563.062,0,.217-.012.856-.112.318-.043,1.179-.064,2.558-.064l3.063-.022c.43,0,.754.021.959.062.264.062.462.092.605.092.199,0,.352-.055.457-.164.106-.111.155-.271.146-.48-.02-.3-.274-.496-.754-.58"/>
      <path class="cls-2" d="M200.788,53.801c1.185-.788,2.883-1.294,5.047-1.504v4.198c0,1.063-.243,1.846-.722,2.324-.799.771-1.803,1.162-2.982,1.162-.962,0-1.733-.284-2.293-.844-.56-.56-.844-1.332-.844-2.294,0-1.227.603-2.251,1.794-3.042M212.216,59.674c-.1,0-.277.031-.554.096-.12.023-.289.036-.501.036-.729,0-1.232-.261-1.539-.797-.315-.553-.475-1.509-.475-2.839v-8.604c0-1.647-.572-2.942-1.7-3.851-1.12-.901-2.709-1.359-4.725-1.359-2.213,0-4.015.729-5.355,2.166-1.002,1.073-1.51,2.092-1.51,3.028,0,.407.308.773.915,1.091.578.302,1.228.455,1.931.455.203,0,.356-.053.455-.158.088-.093.13-.222.12-.385-.016-.216-.071-.462-.159-.728-.186-.608-.28-1.151-.28-1.615,0-1.548.903-2.301,2.761-2.301,1.389,0,2.509.426,3.328,1.269.601.611.905,1.746.905,3.376v2.589c-3.594.556-6.191,1.306-7.718,2.231-1.573.953-2.37,2.313-2.37,4.043,0,1.28.425,2.317,1.264,3.081.835.76,1.97,1.147,3.373,1.147,1.802,0,3.776-.793,5.867-2.357.973,1.447,2.083,2.181,3.298,2.181.661,0,1.346-.14,2.036-.416.748-.3,1.105-.594,1.124-.923.01-.144-.026-.259-.107-.34-.087-.087-.214-.127-.384-.117"/>
      <path class="cls-2" d="M256.813,60.225c-1.149-.184-1.905-.472-2.248-.856-.341-.382-.514-1.119-.514-2.192v-6.967c0-2.325-.658-4.235-1.956-5.675-1.301-1.445-3.023-2.178-5.117-2.178-2.16,0-4.186,1.092-6.026,3.247v-14.689c0-.487.007-.861.021-1.105.03-.262.046-.445.046-.543,0-.542-.323-.623-.515-.623-.154,0-.33.05-.523.145l-1.721.814c-1.118.536-2.148.917-3.064,1.134-.406.109-.612.306-.612.587,0,.234.121.355.23.418.107.055.231.082.378.082h.002l1.121-.065c.302-.02.555.062.753.248.38.358.572,1.106.572,2.225v22.883c0,1.53-.151,2.108-.278,2.323-.178.304-.688.586-1.511.838-.525.149-.619.451-.607.679.012.177.116.474.691.474.195,0,.53-.02,1.023-.059,1.087-.078,1.936-.117,2.523-.117,1.694,0,2.816.026,3.335.077.671.067,1.06.099,1.226.099.543,0,.624-.316.624-.505,0-.365-.292-.592-.868-.675-1.26-.17-2.057-.463-2.369-.871-.317-.414-.477-1.363-.477-2.821v-8.52c0-.905.484-1.738,1.437-2.474.965-.744,2.057-1.122,3.247-1.122,1.544,0,2.793.533,3.711,1.582.923,1.056,1.391,2.509,1.391,4.318v7.284l-.022.683c0,.775-.128,1.102-.234,1.238-.11.141-.428.378-1.325.711-.37.145-.548.345-.528.589.011.201.123.538.755.538.107,0,.335-.02.698-.06.604-.077,1.559-.116,2.84-.116.773,0,1.709.037,2.78.109.541.044.908.067,1.088.067.638,0,.733-.336.733-.535,0-.236-.124-.534-.711-.622"/>
      <path class="cls-2" d="M83.285,78.453c-1.346-.447-2.202-.76-2.546-.93-.337-.167-.654-.437-.938-.8-.326-.424-.492-.936-.492-1.522,0-.66.254-1.218.755-1.658.505-.444,1.141-.668,1.892-.668.953,0,1.83.25,2.605.744.772.492,1.291,1.126,1.543,1.886.128.378.256.554.403.554.13,0,.285-.068.285-.389,0-.059-.017-.2-.054-.448l-.172-1.104c-.092-.595-.139-.956-.139-1.074,0-.256-.044-.424-.136-.512-.048-.046-.107-.069-.175-.069-.081-.001-.141.02-.167.057l-.151.128c-.132.111-.262.115-.392.055l-.74-.31c-.533-.224-1.193-.337-1.962-.337-1.365,0-2.498.372-3.365,1.107-.87.736-1.311,1.702-1.311,2.87,0,1.047.338,1.911,1.006,2.569.664.653,1.804,1.256,3.389,1.791,1.522.511,2.452.908,2.765,1.181.613.53.924,1.191.924,1.964,0,.809-.337,1.506-1.002,2.072-.668.567-1.496.855-2.461.855-.952,0-1.847-.3-2.662-.892-.811-.591-1.351-1.334-1.604-2.207-.11-.373-.241-.558-.401-.567-.072-.004-.136.017-.183.062-.064.061-.095.161-.095.305,0,.277.095.744.281,1.387.164.594.253.918.268.973.085.399.151.654.196.756.048.106.141.206.277.297.311.21.806.397,1.47.554.665.158,1.28.238,1.831.238,1.529,0,2.801-.434,3.779-1.289.98-.857,1.477-1.975,1.477-3.32,0-1.989-1.346-3.438-4-4.307"/>
      <path class="cls-2" d="M91.183,83.543c.58-.387,1.416-.634,2.481-.736v2.061c0,.522-.12.907-.356,1.143-.392.378-.885.57-1.464.57-.472,0-.851-.14-1.127-.416-.275-.275-.415-.655-.415-1.127,0-.603.297-1.106.881-1.494M96.765,86.43c-.048,0-.136.016-.268.047-.061.012-.144.017-.247.017-.36,0-.609-.129-.76-.394-.155-.272-.234-.741-.234-1.392v-4.197c0-.799-.277-1.428-.825-1.869-.544-.439-1.316-.661-2.297-.661-1.077,0-1.953.355-2.603,1.054-.487.52-.733,1.014-.733,1.468,0,.194.148.369.44.521.28.147.594.221.936.221.096,0,.167-.025.213-.073.041-.043.059-.102.055-.178-.008-.105-.033-.22-.077-.353-.091-.298-.138-.565-.138-.792,0-.764.445-1.135,1.36-1.135.681,0,1.23.21,1.633.623.295.3.445.857.445,1.655v1.274c-1.758.271-3.026.637-3.771,1.088-.763.463-1.15,1.122-1.15,1.961,0,.622.205,1.125.612,1.494.404.369.956.556,1.638.556.88,0,1.843-.388,2.865-1.155.473.71,1.013,1.069,1.605,1.069.32,0,.653-.068.988-.203.36-.144.532-.284.541-.44.004-.067-.012-.119-.049-.156-.04-.04-.1-.058-.178-.053"/>
      <path class="cls-2" d="M108.453,86.624l-.45-.064c-.499-.076-.778-.331-.853-.775l-.032-.51.011-.324v-2.565c0-1.322-.234-2.323-.695-2.974-.674-.948-1.602-1.43-2.759-1.43-1.007,0-1.99.542-2.925,1.61v-1.06c0-.161.004-.293.011-.403.01-.145-.013-.247-.071-.308-.087-.095-.247-.082-.439.029-.058.029-.196.096-.417.203l-.567.279c-.437.204-.897.351-1.371.435-.215.043-.323.131-.323.264,0,.096.044.166.124.202.059.035.127.052.201.052l.46-.011c.314,0,.529.083.64.248.115.172.173.509.173,1.002v4.839c0,.401-.06.693-.178.868-.118.175-.356.326-.709.451-.149.06-.229.147-.238.258-.004.07.013.126.051.167.043.045.109.068.198.068.066,0,.204-.012.437-.037.218-.032.9-.049,2.029-.049.541,0,.868.008.998.024.244.041.431.062.556.062.263,0,.303-.159.303-.254,0-.165-.136-.261-.406-.286-.933-.057-1.404-.363-1.437-.934l-.022-.858v-4.092c0-.43.226-.819.671-1.156.449-.341.971-.514,1.551-.514.824,0,1.467.265,1.912.789.448.526.675,1.286.675,2.26v3.693c0,.417-.127.651-.387.717l-.32.084c-.196.044-.237.168-.237.264,0,.126.055.186.102.214l.173.041.315-.022h.408l1.056-.032c.63,0,1.067.016,1.298.049.205.025.344.037.424.037.165,0,.278-.034.345-.104.046-.048.067-.11.063-.186-.009-.142-.126-.23-.347-.261"/>
      <path class="cls-2" d="M172.221,86.645l-.492-.054c-.338-.047-.561-.151-.662-.308-.105-.161-.158-.494-.158-.989v-7.223c0-.247-.104-.307-.191-.313l-.015-.002-.586.275c-.613.32-1.125.549-1.52.683-.397.124-.578.237-.587.365-.003.048.012.091.044.126.065.069.195.102.408.102.356,0,.589.081.692.241.109.17.164.548.164,1.126v4.667c0,.419-.044.723-.13.908-.083.18-.229.304-.443.377l-.205.064c-.191.065-.23.19-.23.284,0,.116.059.254.346.254.075,0,.208-.011.397-.033.078-.014.191-.025.326-.031l.779-.043.69.012c.309,0,.56.008.746.024.352.034.582.049.704.049.274,0,.34-.125.346-.232.008-.18-.134-.291-.425-.33"/>
      <path class="cls-2" d="M166.948,86.624l-.45-.064c-.499-.076-.778-.331-.853-.775l-.032-.51.011-.324v-2.565c0-1.322-.234-2.323-.695-2.974-.673-.948-1.601-1.43-2.759-1.43-1.007,0-1.99.542-2.925,1.61v-1.06c0-.161.004-.293.011-.403.01-.146-.013-.247-.07-.308-.089-.095-.248-.082-.44.029-.058.029-.196.096-.417.203l-.567.279c-.437.204-.898.351-1.371.435-.215.043-.323.131-.323.264,0,.096.045.167.124.202.058.035.126.052.201.052l.46-.011c.314,0,.529.083.64.248.115.172.173.509.173,1.002v4.839c0,.401-.06.693-.178.868-.118.175-.356.326-.709.451-.15.06-.23.147-.238.258-.004.07.013.126.051.167.043.045.109.068.198.068.066,0,.204-.012.436-.037.218-.032.901-.049,2.029-.049.54,0,.868.008.998.024.244.041.431.062.556.062.263,0,.303-.159.303-.254,0-.165-.136-.261-.406-.286-.933-.057-1.404-.363-1.438-.934l-.021-.858v-4.092c0-.43.226-.819.671-1.156.449-.341.971-.514,1.551-.514.824,0,1.467.265,1.912.789.448.526.675,1.286.675,2.26v3.693c0,.417-.126.651-.387.717l-.32.084c-.196.044-.237.168-.237.264,0,.126.055.186.102.214l.173.041.315-.022h.408l1.056-.032c.63,0,1.067.016,1.298.049.205.025.344.037.424.037.165,0,.279-.034.345-.104.046-.048.067-.11.063-.186-.008-.142-.126-.23-.348-.261"/>
      <path class="cls-2" d="M153.515,83.238c0,1.097-.253,1.976-.754,2.614-.497.633-1.186.954-2.048.954-.989,0-1.829-.456-2.497-1.355-.671-.904-1.012-2.045-1.012-3.392,0-1.053.271-1.916.806-2.564.532-.645,1.244-.971,2.114-.971.989,0,1.809.439,2.437,1.306.632.872.953,2.019.953,3.408M150.398,77.982c-1.332,0-2.481.465-3.416,1.382-.936.916-1.411,2.044-1.411,3.354,0,1.351.447,2.476,1.329,3.343.883.867,2.023,1.306,3.39,1.306,1.395,0,2.566-.452,3.48-1.343.915-.892,1.379-2.037,1.379-3.403,0-1.259-.471-2.358-1.399-3.268-.929-.91-2.057-1.371-3.352-1.371"/>
      <path class="cls-2" d="M170.183,73.555c-.162,0-.375.151-.651.461-.274.308-.408.545-.408.726,0,.18.121.413.369.714.25.304.451.452.614.452.17,0,.381-.151.646-.461.264-.309.388-.547.38-.726,0-.092-.039-.19-.116-.299l-.259-.41c-.193-.308-.381-.457-.576-.457"/>
      <path class="cls-2" d="M121.54,80.151c0,.14-.162.212-.48.212h-3.235l-.293-.011c-.437,0-.437-.168-.437-.223,0-.032.017-.123.134-.374l2.091-4.642c.072-.162.112-.171.116-.171.044.003.13.049.231.318l1.767,4.465.054.194v.002c.043.134.052.199.052.23M127.352,86.613c-.665-.119-1.11-.281-1.322-.485-.215-.204-.491-.74-.823-1.596l-.236-.579-4.609-11.809c-.089-.234-.201-.347-.342-.347-.14,0-.259.116-.362.355l-5.511,12.242-.309.706c-.155.323-.354.639-.594.939-.292.365-.461.474-.551.502l-.397.118c-.145.044-.222.143-.222.285,0,.095.045.253.346.253.013,0,.056,0,.603-.06.11-.01.271-.015.476-.015.436,0,.835.008,1.183.024l1.027.061c.159.008.282.012.367.012.148,0,.248-.03.305-.09.036-.039.053-.089.049-.148-.008-.154-.135-.256-.375-.303-.482-.105-.807-.231-.966-.374-.155-.138-.234-.369-.234-.689,0-.341.159-.876.472-1.588l.703-1.579c.26-.591.412-.781.494-.836.082-.054.314-.119.955-.119h3.881c.505,0,.654.05.697.081.052.037.152.181.334.656l.536,1.419c.431,1.12.65,1.876.65,2.246,0,.388-.161.609-.493.675l-.331.076c-.259.05-.312.177-.312.275,0,.102.043.275.334.275.076,0,.191-.015.342-.044.245-.042.869-.063,1.856-.063.944,0,1.609.018,1.98.053.218.015.348.022.412.022.282,0,.35-.125.356-.232.008-.164-.115-.271-.368-.319"/>
      <path class="cls-2" d="M181.143,83.238c0,1.097-.253,1.976-.754,2.614-.497.633-1.186.954-2.048.954-.989,0-1.829-.456-2.497-1.355-.671-.904-1.011-2.044-1.011-3.392,0-1.054.271-1.916.806-2.564.533-.645,1.244-.971,2.114-.971.989,0,1.809.439,2.437,1.306.632.872.953,2.019.953,3.408M178.026,77.982c-1.332,0-2.481.465-3.416,1.382-.936.916-1.411,2.044-1.411,3.354,0,1.351.448,2.476,1.33,3.343.882.867,2.023,1.306,3.39,1.306,1.395,0,2.566-.452,3.48-1.343.915-.892,1.379-2.037,1.379-3.403,0-1.259-.471-2.358-1.399-3.268-.929-.91-2.057-1.371-3.352-1.371"/>
      <path class="cls-2" d="M138.484,86.624l-.45-.064c-.499-.076-.778-.331-.853-.775l-.032-.51.011-.324v-2.565c0-1.322-.234-2.322-.696-2.974-.673-.948-1.601-1.43-2.758-1.43-1.007,0-1.99.542-2.925,1.61v-1.06c0-.161.004-.293.011-.403.01-.145-.012-.247-.069-.308-.089-.095-.248-.082-.44.029-.057.029-.197.097-.417.203l-.567.279c-.437.204-.897.351-1.371.435-.215.043-.323.131-.323.264,0,.096.045.166.124.202.058.035.125.052.201.052l.46-.011c.315,0,.529.083.64.248.115.171.173.508.173,1.002v4.839c0,.401-.06.692-.178.868-.118.175-.356.327-.71.451-.148.06-.229.147-.238.258-.004.07.013.126.051.167.042.045.109.068.198.068.065,0,.208-.012.437-.037.217-.032.899-.049,2.029-.049.54,0,.868.008.998.024.244.041.431.062.556.062.264,0,.303-.159.303-.254,0-.165-.136-.261-.406-.286-.934-.057-1.404-.363-1.438-.934l-.022-.858v-4.092c0-.43.227-.819.672-1.156.449-.341.971-.514,1.55-.514.824,0,1.467.265,1.913.789.448.527.674,1.287.674,2.26v3.693c0,.417-.126.651-.387.717l-.321.084c-.194.044-.235.168-.235.264,0,.102.034.174.101.214l.174.041.314-.022h.408l1.056-.032c.629,0,1.066.016,1.298.049.205.025.344.037.424.037.166,0,.279-.034.345-.104.045-.048.067-.11.063-.186-.008-.142-.125-.23-.347-.261"/>
      <path class="cls-2" d="M145.23,85.969l-.088.027-.56.269c-.29.152-.653.229-1.078.229-.525,0-.933-.149-1.214-.444-.189-.196-.285-.641-.285-1.323v-5.336h2.485c.26,0,.436-.118.524-.349l.245-.614c.09-.201.101-.262.101-.289.006-.069-.01-.119-.044-.151-.031-.028-.077-.037-.126-.029-.06.009-.145.054-.259.138-.162.107-.397.162-.698.162h-2.226l.041-1.799c0-.276-.112-.335-.206-.335-.074,0-.185.059-.455.499-.438.702-1.08,1.414-1.907,2.117-.201.17-.299.311-.299.429,0,.1.058.219.335.219h.898v5.351c0,1.742.848,2.625,2.522,2.625.492,0,1.03-.139,1.601-.415.591-.286.878-.551.878-.811,0-.11-.067-.173-.185-.173"/>
    </g>
    <rect class="cls-1" x="269.449" y="1.866" width="1.023" height="93.15"/>
    <g id="_MRH_" data-name="&amp;lt;MRH&amp;gt;">
      <g>
        <g>
          <path class="cls-6" d="M308.508,45.376c.149,2.511,2.362,1.405,2.362,2.452,0,.3-.389.3-.718.3-.568,0-1.614-.12-2.81-.12-.928,0-1.884.12-2.631.12-.27,0-.329-.15-.329-.27,0-.897,1.883-.239,1.853-2.452l-.299-11.602c0-.748-.149-1.166-.329-1.166-.209,0-.478.268-.777.896l-6.189,12.619c-.149.27-.628,1.496-.928,1.496s-.508-.658-.597-.868l-6.369-13.335c-.09-.239-.239-.329-.359-.329-.09,0-.18.149-.209.448l-.359,10.495c-.149,3.978,2.692,2.662,2.692,3.739,0,.299-.329.329-.748.329-.389,0-1.734-.12-2.631-.12-1.555,0-2.063.12-2.601.12-.21,0-.3-.15-.3-.359,0-1.016,1.914.209,2.124-2.901.358-4.873.718-8.043.718-11.212,0-7.027-2.841-5.352-2.841-6.369,0-.27.239-.329.509-.329.538,0,1.076.12,1.644.12.539,0,1.077-.12,1.615-.12.419,0,.478.509.628.837l7.117,15.19c.329.628.448.897.658.897.149,0,.448-.628.927-1.615l7.117-14.293c.18-.329.419-1.047.777-1.016.299,0,1.256.12,1.405.12.688,0,.957-.12,1.435-.12.18,0,.3.18.3.358,0,.957-2.392-.328-2.273,3.23l.419,14.831Z"/>
          <path class="cls-6" d="M310.152,48.186c-.234,0-.55-.02-.915-.044-.53-.034-1.188-.076-1.895-.076-.487,0-.978.033-1.452.065-.423.029-.824.055-1.179.055-.36,0-.389-.252-.389-.328,0-.389.325-.518.667-.656.537-.215,1.204-.482,1.186-1.795l-.299-11.601c0-.765-.157-1.108-.27-1.108-.094,0-.354.084-.723.863l-6.19,12.619c-.034.061-.084.172-.144.3-.299.647-.587,1.229-.837,1.229-.298,0-.492-.498-.609-.795-.017-.043-.031-.08-.043-.109l-6.369-13.333c-.082-.219-.211-.295-.305-.295-.036,0-.121.097-.15.395l-.358,10.492c-.097,2.573,1.05,2.882,1.888,3.107.431.116.804.216.804.629,0,.388-.467.388-.807.388-.156,0-.454-.018-.831-.042-.562-.035-1.261-.079-1.8-.079-.977,0-1.543.048-1.956.083-.247.021-.442.037-.645.037-.225,0-.359-.156-.359-.418,0-.417.294-.499.636-.595.573-.161,1.358-.38,1.488-2.31.101-1.367.203-2.626.294-3.736.237-2.903.423-5.195.423-7.473,0-5.049-1.479-5.568-2.273-5.847-.318-.112-.568-.2-.568-.522,0-.388.428-.388.568-.388.268,0,.541.03.806.059.272.03.553.061.838.061.266,0,.539-.031.802-.06.266-.03.541-.06.813-.06.368,0,.487.339.593.638.029.084.056.162.089.232l7.117,15.19.084.162c.25.481.365.701.52.701.113-.013.458-.725.824-1.48l.049-.102,7.117-14.294c.037-.069.076-.153.119-.243.17-.36.378-.807.688-.807.01,0,.02,0,.029.001.173,0,.581.042.907.075.222.023.432.045.491.045.372,0,.623-.036.846-.068.189-.027.368-.052.59-.052s.359.216.359.417c0,.373-.318.448-.685.535-.703.167-1.665.395-1.588,2.693l.419,14.83c.088,1.477.896,1.661,1.546,1.809.419.095.815.186.815.645,0,.359-.449.359-.777.359ZM307.342,47.948c.71,0,1.371.042,1.901.076.364.024.678.044.909.044.373,0,.658-.018.658-.241,0-.348-.261-.425-.722-.53-.652-.149-1.546-.352-1.64-1.919v-.002l-.419-14.831c-.08-2.394.979-2.645,1.68-2.812.39-.093.593-.153.593-.42,0-.144-.092-.299-.24-.299-.213,0-.389.025-.573.052-.227.032-.483.069-.862.069-.065,0-.258-.02-.503-.045-.326-.033-.73-.075-.902-.075-.006,0-.011,0-.017,0-.24,0-.44.426-.587.739-.043.093-.083.179-.121.248l-7.165,14.392c-.556,1.149-.757,1.546-.93,1.546-.227,0-.344-.223-.624-.764l-.086-.165-7.118-15.193c-.034-.076-.064-.161-.093-.243-.101-.288-.197-.56-.481-.56-.265,0-.537.03-.8.06-.267.03-.542.06-.815.06-.291,0-.576-.031-.851-.061-.273-.03-.531-.059-.793-.059-.399,0-.449.144-.449.27,0,.228.158.294.489.41.822.289,2.353.826,2.353,5.959,0,2.283-.188,4.578-.425,7.482-.091,1.11-.193,2.369-.293,3.735-.136,2.013-1.003,2.256-1.576,2.416-.33.093-.548.154-.548.481,0,.199.081.3.24.3.197,0,.39-.017.635-.037.416-.035.985-.083,1.966-.083.544,0,1.244.043,1.808.078.359.022.67.042.823.042.447,0,.688-.043.688-.27,0-.307-.258-.391-.717-.515-.827-.222-2.075-.558-1.975-3.226l.359-10.495c.031-.318.131-.505.268-.505.065,0,.286.026.414.367l6.368,13.331c.013.031.028.07.046.115.091.234.281.72.498.72.194,0,.556-.784.729-1.16.063-.136.112-.243.147-.305l6.188-12.616c.289-.608.576-.929.83-.929.239,0,.389.469.389,1.225l.299,11.601c.019,1.395-.721,1.691-1.26,1.907-.345.138-.593.238-.593.546,0,.14.091.211.27.211.352,0,.749-.027,1.171-.056.476-.032.969-.065,1.46-.065Z"/>
        </g>
        <g>
          <path class="cls-6" d="M321.104,37.362c0-1.135-1.585-.418-1.585-1.135,0-.239.389-.27.538-.27.867,0,1.286-.09,1.615-.18.329-.06.597-.149,1.076-.149.12,0,.539.149.539.718v10.347c0,.777,1.883.389,1.883,1.046,0,.239-.628.27-1.106.27-.838,0-1.256.09-1.615.149-.329.09-.568.18-1.016.18-.239,0-.27-.329-.27-.449v-1.644h-.06c-.927,1.406-2.392,2.093-3.977,2.093-2.392,0-4.365-1.466-4.365-4.007v-6.967c0-1.135-1.585-.418-1.585-1.135,0-.239.389-.27.538-.27.867,0,1.286-.09,1.615-.18.328-.06.597-.149,1.076-.149.12,0,.538.149.538.718v7.565c-.029,3.17,2.512,3.379,2.901,3.379,1.705,0,3.2-1.256,3.259-2.123v-7.805Z"/>
          <path class="cls-6" d="M321.433,48.395c-.243,0-.329-.262-.329-.508v-1.539c-.903,1.321-2.311,2.047-3.977,2.047-2.605,0-4.425-1.672-4.425-4.066v-6.967c0-.58-.445-.632-.875-.682-.349-.04-.71-.083-.71-.453,0-.305.457-.328.597-.328.876,0,1.285-.092,1.599-.178.084-.015.159-.031.235-.047.239-.051.487-.104.857-.104.159,0,.597.184.597.777v7.565c-.01,1.072.275,1.909.848,2.487.816.824,1.946.833,1.993.833,1.688,0,3.143-1.251,3.2-2.068v-7.801c0-.58-.445-.632-.875-.682-.349-.04-.71-.083-.71-.453,0-.305.457-.328.597-.328.876,0,1.285-.092,1.599-.178.084-.015.161-.031.237-.048.239-.051.486-.103.855-.103.159,0,.599.184.599.777v10.347c0,.355.484.439.951.52.458.079.932.161.932.526,0,.23-.349.328-1.166.328-.74,0-1.151.071-1.482.128l-.122.021c-.043.012-.089.025-.134.038-.27.077-.502.143-.893.143ZM321.072,46.184h.15v1.703c0,.04.006.39.21.39.374,0,.6-.065.86-.139.046-.013.092-.026.14-.039l.128-.022c.336-.058.752-.129,1.503-.129.911,0,1.047-.132,1.047-.211,0-.265-.404-.335-.833-.409-.492-.085-1.05-.181-1.05-.636v-10.347c0-.544-.401-.659-.48-.659-.356,0-.597.052-.83.101-.077.017-.155.033-.236.048-.317.086-.734.18-1.625.18-.049,0-.478.006-.478.211,0,.252.229.292.604.336.437.051.98.115.98.8v7.805c-.066.964-1.642,2.182-3.319,2.182-.125,0-1.241-.024-2.077-.868-.596-.601-.894-1.466-.884-2.571v-7.564c0-.544-.4-.659-.478-.659-.357,0-.599.052-.832.102-.077.016-.154.033-.234.047-.317.086-.734.18-1.625.18-.049,0-.478.006-.478.211,0,.252.229.292.604.336.437.051.98.115.98.8v6.967c0,2.324,1.77,3.948,4.306,3.948,1.654,0,3.049-.734,3.927-2.067l.018-.026Z"/>
        </g>
        <g>
          <path class="cls-6" d="M330.223,45.705c0,2.063,2.482,1.196,2.482,2.004,0,.358-.239.419-.687.419-.419,0-1.345-.12-2.751-.12-1.464,0-2.033.12-2.331.12-.239,0-.359-.12-.359-.39,0-.448,1.466-.358,1.466-1.644v-16.894c0-1.795-2.034-1.016-2.034-1.644,0-.18.12-.3.27-.329,2.302-.539,2.9-1.496,3.588-1.496.18,0,.358.18.358.478v19.496Z"/>
          <path class="cls-6" d="M332.017,48.186c-.15,0-.365-.015-.637-.034-.51-.036-1.207-.086-2.115-.086-1.006,0-1.597.058-1.95.093-.166.016-.286.028-.382.028-.277,0-.419-.151-.419-.449,0-.204.228-.308.491-.428.435-.198.975-.445.975-1.216v-16.894c0-1.076-.748-1.18-1.349-1.264-.367-.051-.685-.095-.685-.38,0-.194.128-.35.318-.387,1.344-.314,2.093-.768,2.64-1.098.383-.231.659-.398.959-.398.206,0,.418.201.418.537v19.496c0,1.219.894,1.372,1.613,1.494.466.08.869.149.869.509,0,.441-.354.478-.747.478ZM329.266,47.948c.912,0,1.612.049,2.124.086.27.019.482.034.628.034.487,0,.628-.081.628-.36,0-.248-.292-.311-.77-.393-.722-.123-1.712-.292-1.712-1.611v-19.496c0-.262-.152-.419-.299-.419-.266,0-.531.16-.897.382-.554.335-1.313.793-2.677,1.113-.137.026-.223.133-.223.271,0,.174.21.211.583.263.612.085,1.451.202,1.451,1.381v16.894c0,.847-.604,1.122-1.044,1.324-.236.107-.421.193-.421.321,0,.232.09.331.3.331.09,0,.208-.012.371-.028.355-.035.949-.093,1.961-.093Z"/>
        </g>
        <g>
          <path class="cls-6" d="M334.313,36.795c-1.405,0-1.614,0-1.614-.21,0-.239.747-.747,2.272-2.421.599-.718.897-1.376,1.137-1.376.419,0,.389.628.389,2.781h3.289c.747,0,1.076-.509,1.166-.509.149,0,.21.15.21.239,0,.12-.09.27-.18.419l-.599,1.077h-3.887v8.7c.06,1.226.897,1.795,2.093,1.795,1.585,0,2.033-.687,2.541-.687.119,0,.239.029.239.268,0,.449-1.615,1.466-3.708,1.466-1.375,0-3.349-.389-3.349-3.469v-8.072Z"/>
          <path class="cls-6" d="M337.662,48.395c-2.262,0-3.408-1.187-3.408-3.528v-8.014c-1.429,0-1.614-.003-1.614-.269,0-.15.188-.332.64-.771.368-.357.924-.896,1.648-1.69.234-.28.426-.557.579-.78.265-.384.426-.615.601-.615.287,0,.363.266.401.553.048.369.048.97.047,1.879v.349h3.23c.532,0,.841-.267,1.007-.41.073-.063.113-.098.158-.098.184,0,.27.178.27.298,0,.136-.095.295-.189.449l-.614,1.106h-3.862v8.641c.054,1.118.776,1.736,2.034,1.736.997,0,1.536-.276,1.929-.476.231-.118.413-.211.612-.211.128,0,.299.034.299.327,0,.515-1.706,1.525-3.768,1.525ZM336.108,32.847c-.113,0-.294.262-.503.564-.156.225-.349.505-.588.791-.727.798-1.285,1.339-1.653,1.697-.377.365-.604.586-.604.686,0,.147.221.151,1.554.151h.06v8.131c0,2.294,1.076,3.41,3.289,3.41,2.07,0,3.649-.999,3.649-1.407,0-.194-.077-.209-.18-.209-.17,0-.341.088-.558.198-.404.207-.958.489-1.983.489-1.311,0-2.096-.674-2.153-1.851v-8.762h3.912l.582-1.047c.085-.142.172-.286.172-.39,0-.056-.038-.18-.15-.18-.006.004-.046.039-.081.07-.165.143-.509.439-1.085.439h-3.349v-.467c.001-.904.002-1.502-.046-1.863-.049-.375-.145-.451-.283-.451Z"/>
        </g>
        <g>
          <path class="cls-6" d="M344.087,38.408c0-1.794-1.644-1.016-1.644-1.644,0-.18.12-.299.27-.329,1.914-.538,2.511-1.495,3.2-1.495.179,0,.358.18.358.478v10.734c0,1.525,2.362.867,2.362,1.645,0,.239-.179.329-.567.329-.629,0-1.555-.12-2.782-.12-.957,0-1.734.12-2.063.12-.239,0-.418-.03-.448-.329,0-.748,1.315.389,1.315-2.333v-7.057ZM346.419,30.604c0,.359-.867,1.555-1.256,1.555-.359,0-1.256-1.226-1.256-1.555s.896-1.585,1.256-1.585c.389,0,1.256,1.226,1.256,1.585Z"/>
          <path class="cls-6" d="M348.065,48.186c-.264,0-.581-.021-.947-.045-.5-.034-1.122-.075-1.835-.075-.601,0-1.133.048-1.523.083-.232.021-.416.037-.54.037-.237,0-.472-.029-.506-.382-.001-.311.197-.354.405-.4.383-.085.909-.201.909-1.938v-7.057c0-1.077-.6-1.181-1.083-1.264-.289-.05-.562-.097-.562-.38,0-.193.128-.349.318-.387,1.052-.296,1.714-.728,2.196-1.043.402-.263.693-.453,1.015-.453.206,0,.418.201.418.537v10.734c0,.84.757.978,1.424,1.101.482.088.938.171.938.545,0,.344-.335.388-.627.388ZM345.283,47.948c.717,0,1.341.042,1.843.075.364.024.678.045.939.045.421,0,.508-.108.508-.27,0-.275-.389-.346-.84-.428-.677-.124-1.522-.278-1.522-1.217v-10.734c0-.262-.152-.419-.299-.419-.288,0-.565.182-.95.434-.49.319-1.158.756-2.234,1.059-.139.028-.226.135-.226.272,0,.175.158.211.463.263.471.081,1.181.204,1.181,1.381v7.057c0,1.833-.603,1.966-1.002,2.054-.218.048-.313.077-.313.279.024.231.134.27.389.27.119,0,.3-.016.53-.037.391-.035.928-.083,1.533-.083ZM345.164,32.219c-.407,0-1.315-1.275-1.315-1.614,0-.345.909-1.644,1.315-1.644.43,0,1.315,1.266,1.315,1.644,0,.371-.885,1.614-1.315,1.614ZM345.164,29.079c-.308,0-1.196,1.207-1.196,1.526,0,.313.888,1.496,1.196,1.496.341,0,1.196-1.143,1.196-1.496,0-.343-.863-1.526-1.196-1.526Z"/>
        </g>
        <g>
          <path class="cls-6" d="M349.981,38.768c0-2.392,1.854-3.588,4.037-3.588.508,0,2.571.239,2.93.687.18.239.149,1.257.149,1.466,0,.807.119,1.166-.329,1.166-.299,0-.568-2.601-3.289-2.601-1.166,0-2.092.687-2.092,1.914,0,.986.777,1.615,3.916,2.871,1.705.718,2.482,1.644,2.482,3.558,0,2.243-1.824,4.097-4.036,4.097-2.093,0-2.631-.867-3.349-.867-.658,0-.658-.03-.658-2.392,0-.509-.09-1.466.359-1.466.657,0,.329,3.948,3.558,3.948,1.466,0,2.662-.897,2.662-2.453,0-1.585-1.525-2.063-2.721-2.631-1.615-.807-3.618-1.585-3.618-3.707Z"/>
          <path class="cls-6" d="M353.748,48.395c-1.334,0-2.046-.35-2.566-.605-.296-.146-.531-.262-.783-.262-.718,0-.718-.092-.718-2.451,0-.068-.001-.144-.003-.224-.009-.44-.02-.987.192-1.205.063-.063.14-.095.23-.095.249,0,.357.378.521.95.34,1.193.856,2.997,3.037,2.997,1.557,0,2.602-.962,2.602-2.394,0-1.361-1.146-1.878-2.255-2.379-.146-.066-.291-.132-.432-.199-.14-.07-.283-.14-.427-.21-1.512-.738-3.225-1.575-3.225-3.551,0-2.216,1.608-3.647,4.097-3.647.476,0,2.59.228,2.976.709.156.207.168.868.163,1.42v.083c0,.156.004.294.008.417.012.365.019.585-.102.71-.064.066-.158.097-.294.097-.112,0-.183-.156-.31-.438-.974-2.163-2.328-2.163-2.979-2.163-1.216,0-2.033.746-2.033,1.855,0,.98.869,1.612,3.879,2.815,1.813.763,2.519,1.776,2.519,3.613,0,2.292-1.837,4.156-4.096,4.156ZM350.101,43.671c-.058,0-.106.02-.145.061-.179.182-.167.724-.158,1.119.001.081.003.158.003.227q0,2.333.599,2.333c.279,0,.524.12.836.273.509.25,1.207.594,2.513.594,2.193,0,3.977-1.811,3.977-4.038,0-1.803-.663-2.753-2.445-3.503-3.103-1.241-3.953-1.87-3.953-2.925,0-1.18.865-1.973,2.152-1.973,2.082,0,2.762,1.508,3.087,2.233.075.167.161.357.203.368.101,0,.167-.02.208-.062.086-.089.08-.302.07-.624-.004-.124-.009-.264-.009-.421v-.084c.003-.283.012-1.146-.137-1.346-.338-.421-2.38-.664-2.883-.664-1.835,0-3.978.924-3.978,3.529,0,1.902,1.678,2.721,3.159,3.444.144.07.286.14.427.21.138.066.283.131.429.197,1.089.492,2.325,1.05,2.325,2.487,0,1.479-1.12,2.512-2.721,2.512-2.27,0-2.821-1.93-3.151-3.083-.133-.464-.247-.865-.407-.865Z"/>
        </g>
        <g>
          <path class="cls-6" d="M362.628,51.865c0,1.973,2.75,1.225,2.75,1.943,0,.359-.209.389-.568.389-.389,0-1.106-.119-3.11-.119-1.166,0-2.033.119-2.362.119-.27,0-.448-.06-.448-.328,0-.778,1.554-.3,1.554-2.124v-13.336c0-1.794-2.033-1.016-2.033-1.644,0-.18.119-.299.268-.329,2.302-.538,2.901-1.495,3.588-1.495.18,0,.359.18.359.478v1.734c1.824-1.705,3.289-1.973,4.096-1.973,3.529,0,5.352,2.781,5.352,6.07,0,2.75-1.734,7.086-6.369,7.086-1.076,0-2.123-.329-3.079-.807v4.336ZM362.628,44.897c0,1.615,1.854,2.721,3.887,2.721,2.751,0,3.917-2.631,3.917-4.994,0-2.72-1.376-6.04-4.545-6.04-3.05,0-3.289,2.302-3.259,2.363v5.95Z"/>
          <path class="cls-6" d="M364.81,54.255c-.121,0-.272-.011-.481-.026-.464-.035-1.24-.093-2.629-.093-.759,0-1.404.052-1.831.086-.231.019-.414.033-.531.033-.236,0-.508-.044-.508-.387,0-.345.277-.473.571-.608.439-.201.984-.451.984-1.516v-13.336c0-1.075-.747-1.18-1.348-1.263-.367-.052-.685-.096-.685-.381,0-.193.127-.349.317-.387,1.344-.314,2.094-.768,2.641-1.098.383-.231.659-.398.958-.398.206,0,.419.201.419.537v1.599c1.714-1.565,3.138-1.897,4.036-1.897,3.739,0,5.412,3.078,5.412,6.129,0,2.763-1.745,7.145-6.428,7.145-.955,0-1.971-.259-3.02-.771v4.241c0,1.18,1.012,1.343,1.825,1.474.517.083.925.148.925.469,0,.448-.334.448-.628.448ZM361.701,54.018c1.394,0,2.172.058,2.638.092.207.016.355.027.472.027.389,0,.509-.045.509-.33,0-.22-.364-.278-.824-.352-.813-.131-1.926-.309-1.926-1.591v-4.432l.086.043c1.062.531,2.09.801,3.052.801,4.597,0,6.309-4.311,6.309-7.027,0-2.992-1.636-6.011-5.293-6.011-.895,0-2.325.34-4.055,1.957l-.1.093v-1.87c0-.262-.153-.419-.3-.419-.266,0-.53.16-.896.381-.555.335-1.313.793-2.678,1.112-.136.028-.222.134-.222.271,0,.174.21.211.583.263.612.085,1.45.202,1.45,1.381v13.336c0,1.141-.609,1.42-1.053,1.624-.291.134-.501.23-.501.5,0,.198.101.269.389.269.112,0,.293-.015.522-.033.428-.034,1.076-.086,1.84-.086ZM366.515,47.678c-2.47,0-3.946-1.413-3.946-2.78v-5.95c-.009-.12.06-.568.354-1.046.389-.628,1.217-1.376,2.965-1.376,3.023,0,4.604,3.068,4.604,6.099,0,1.297-.332,2.51-.937,3.416-.714,1.071-1.765,1.637-3.04,1.637ZM365.887,36.644c-1.157,0-2.035.33-2.61.979-.521.588-.6,1.244-.592,1.312l.002,5.963c0,1.308,1.432,2.662,3.827,2.662,2.665,0,3.858-2.479,3.858-4.935,0-2.404-1.194-5.981-4.485-5.981Z"/>
        </g>
        <g>
          <path class="cls-6" d="M375.665,40.442c0,4.934,2.99,6.399,4.815,6.399,2.571,0,3.558-1.555,4.216-1.555.119,0,.119.12.119.209,0,.688-2.601,2.841-5.292,2.841-4.485,0-6.041-4.156-6.041-6.13,0-3.827,2.124-7.027,5.861-7.027,3.678,0,5.292,3.558,5.292,4.754,0,.539-.328.509-1.016.509h-7.953ZM381.555,39.635c.419,0,.599-.149.599-.597,0-1.676-1.674-3.17-3.32-3.17-1.854,0-3.169,2.124-3.169,3.768h5.89Z"/>
          <path class="cls-6" d="M379.522,48.395c-4.564,0-6.1-4.25-6.1-6.189,0-4.172,2.435-7.086,5.921-7.086,3.741,0,5.351,3.653,5.351,4.813,0,.195-.042.327-.13.416-.154.154-.431.157-.841.153h-.104s-7.894,0-7.894,0c.025,4.966,3.116,6.281,4.755,6.281,1.689,0,2.694-.684,3.36-1.137.358-.243.617-.419.856-.419.179,0,.179.181.179.268,0,.768-2.662,2.9-5.351,2.9ZM379.343,35.239c-1.754,0-3.235.711-4.286,2.056-.978,1.252-1.516,2.997-1.516,4.912,0,1.902,1.506,6.071,5.981,6.071,2.698,0,5.232-2.159,5.232-2.782,0-.127-.016-.15-.06-.15-.203,0-.462.176-.79.399-.677.461-1.701,1.157-3.426,1.157-1.686,0-4.874-1.349-4.874-6.458v-.059h8.117c.389-.003.638.002.757-.118.065-.065.095-.17.095-.332,0-1.131-1.575-4.695-5.232-4.695ZM381.555,39.694h-5.95v-.059c0-1.77,1.411-3.827,3.229-3.827,1.737,0,3.379,1.569,3.379,3.229,0,.467-.191.656-.658.656ZM375.724,39.576h5.831c.403,0,.539-.136.539-.539,0-1.599-1.585-3.111-3.26-3.111-1.425,0-3.078,1.59-3.11,3.65Z"/>
        </g>
        <g>
          <path class="cls-6" d="M385.935,41.997c0-3.738,2.96-6.817,6.727-6.817,1.496,0,3.529.419,3.618,1.106.06.658.03,1.376.03,1.764,0,.419-.09.628-.239.628-.3,0-.628-.568-.718-.687-1.017-1.376-2.333-1.824-3.708-1.824-2.541,0-3.529,2.63-3.529,4.784,0,3.229,1.914,5.89,5.293,5.89,2.333,0,3.648-1.735,4.097-1.735.09,0,.239.09.239.18,0,.478-1.795,3.05-5.89,3.05-3.439,0-5.921-3.02-5.921-6.34Z"/>
          <path class="cls-6" d="M391.856,48.395c-3.297,0-5.98-2.871-5.98-6.399,0-3.791,3.045-6.876,6.787-6.876,1.478,0,3.578.402,3.677,1.157.047.519.039,1.071.034,1.475-.001.112-.002.213-.002.298,0,.568-.163.687-.299.687-.285,0-.562-.41-.71-.631-.024-.034-.042-.062-.055-.08-.896-1.212-2.093-1.801-3.661-1.801-1.671,0-3.469,1.479-3.469,4.725,0,4.028,2.628,5.831,5.233,5.831,1.601,0,2.73-.838,3.405-1.338.322-.239.536-.397.692-.397.116,0,.299.109.299.239,0,.443-1.715,3.109-5.95,3.109ZM392.662,35.239c-3.677,0-6.668,3.032-6.668,6.758,0,3.463,2.629,6.281,5.861,6.281,4.077,0,5.831-2.581,5.831-2.991,0-.046-.111-.121-.18-.121-.118,0-.34.165-.622.375-.686.509-1.834,1.361-3.475,1.361-1.622,0-2.991-.607-3.959-1.755-.898-1.066-1.394-2.555-1.394-4.194,0-1.198.299-2.375.82-3.23.644-1.055,1.6-1.613,2.768-1.613,1.608,0,2.837.604,3.755,1.847.015.019.035.048.06.085.116.174.389.579.611.579.112,0,.18-.213.18-.569,0-.085.002-.186.003-.299.006-.4.013-.949-.034-1.459-.079-.601-1.944-1.053-3.559-1.053Z"/>
        </g>
        <g>
          <path class="cls-6" d="M400.089,38.408c0-1.794-1.644-1.016-1.644-1.644,0-.18.119-.299.268-.329,1.914-.538,2.512-1.495,3.2-1.495.18,0,.359.18.359.478v10.734c0,1.525,2.362.867,2.362,1.645,0,.239-.18.329-.568.329-.628,0-1.554-.12-2.781-.12-.957,0-1.734.12-2.063.12-.239,0-.419-.03-.449-.329,0-.748,1.316.389,1.316-2.333v-7.057ZM402.421,30.604c0,.359-.867,1.555-1.257,1.555-.358,0-1.256-1.226-1.256-1.555s.897-1.585,1.256-1.585c.39,0,1.257,1.226,1.257,1.585Z"/>
          <path class="cls-6" d="M404.065,48.186c-.264,0-.579-.021-.946-.045-.5-.034-1.122-.075-1.835-.075-.601,0-1.133.048-1.523.083-.232.021-.416.037-.54.037-.237,0-.473-.029-.508-.382-.001-.311.197-.354.405-.4.384-.085.91-.201.91-1.938v-7.057c0-1.077-.6-1.181-1.083-1.264-.289-.05-.562-.097-.562-.38,0-.193.127-.349.317-.387,1.053-.296,1.714-.728,2.197-1.043.402-.263.692-.453,1.014-.453.206,0,.419.201.419.537v10.734c0,.84.757.978,1.424,1.101.482.088.938.171.938.545,0,.344-.336.388-.628.388ZM401.285,47.948c.717,0,1.341.042,1.843.075.364.024.678.045.938.045.422,0,.509-.108.509-.27,0-.275-.389-.346-.84-.428-.677-.124-1.522-.278-1.522-1.217v-10.734c0-.262-.153-.419-.3-.419-.286,0-.565.182-.95.433-.489.32-1.158.757-2.234,1.06-.138.028-.225.134-.225.272,0,.175.158.211.463.263.471.081,1.181.204,1.181,1.381v7.057c0,1.833-.604,1.966-1.003,2.054-.218.048-.313.077-.313.279.024.23.139.27.39.27.119,0,.3-.016.53-.037.391-.035.928-.083,1.533-.083ZM401.164,32.219c-.407,0-1.315-1.275-1.315-1.614,0-.345.909-1.644,1.315-1.644.43,0,1.316,1.266,1.316,1.644,0,.371-.886,1.614-1.316,1.614ZM401.164,29.079c-.308,0-1.196,1.207-1.196,1.526,0,.313.888,1.496,1.196,1.496.343,0,1.197-1.143,1.197-1.496,0-.343-.864-1.526-1.197-1.526Z"/>
        </g>
        <g>
          <path class="cls-6" d="M413.227,38.559c0-1.555-1.225-2.602-3.079-2.602-1.435,0-2.602.149-2.602,1.795,0,.448.18.896.18,1.225s-.09.568-.658.568c-.508,0-1.405-.448-1.405-.986.03-1.376,1.705-3.469,5.023-3.379,1.854,0,4.725.538,4.725,3.079v6.19c0,1.016-.27,2.781,1.286,2.781.119,0,.389-.06.508-.06.149,0,.389,0,.389.209,0,.628-1.315.748-1.734.748-1.166,0-1.943-.539-2.333-1.525-1.256,1.076-2.9,1.734-4.574,1.734-1.944,0-3.23-.718-3.23-2.841,0-1.585.509-3.468,7.505-4.634v-2.302ZM413.227,41.579c-1.914.418-5.561.896-5.561,3.527,0,1.705.867,2.363,2.452,2.363,1.077,0,3.11-.838,3.11-2.422v-3.468Z"/>
          <path class="cls-6" d="M408.952,48.395c-2.214,0-3.289-.948-3.289-2.9,0-1.657.582-3.522,7.505-4.684v-2.252c0-1.521-1.213-2.543-3.02-2.543-1.391,0-2.543.131-2.543,1.736,0,.235.049.468.099.693.042.193.081.374.081.532,0,.326-.088.627-.718.627-.501,0-1.464-.441-1.464-1.045.016-.681.41-1.454,1.055-2.068.934-.889,2.288-1.373,3.828-1.373.066,0,.134,0,.201.003,1.121,0,4.783.226,4.783,3.138v6.19c0,.125-.004.261-.009.404-.02.697-.046,1.564.387,2.011.2.206.477.307.848.307.055,0,.152-.015.245-.029.102-.016.199-.03.263-.03.145,0,.448,0,.448.268,0,.662-1.295.807-1.794.807-1.146,0-1.938-.5-2.356-1.486-1.288,1.079-2.942,1.695-4.551,1.695ZM410.148,35.898c1.878,0,3.139,1.069,3.139,2.661v2.352l-.049.008c-6.88,1.146-7.456,2.963-7.456,4.575,0,1.898,1.007,2.782,3.17,2.782,1.607,0,3.26-.627,4.536-1.72l.063-.054.03.077c.39.987,1.157,1.488,2.278,1.488.435,0,1.674-.127,1.674-.689,0-.126-.116-.15-.329-.15-.055,0-.152.015-.245.029-.102.016-.199.03-.263.03-.399,0-.712-.115-.933-.342-.468-.483-.441-1.378-.42-2.097.004-.142.008-.276.008-.4v-6.19c0-2.803-3.57-3.02-4.665-3.02-.066-.002-.133-.002-.199-.002-1.512,0-2.836.472-3.748,1.34-.623.594-1.004,1.335-1.017,1.984,0,.477.839.926,1.345.926.554,0,.599-.231.599-.509,0-.145-.038-.321-.077-.508-.048-.22-.102-.47-.102-.718,0-1.712,1.259-1.854,2.662-1.854ZM410.117,47.528c-1.713,0-2.511-.769-2.511-2.422,0-2.438,3.033-3.057,5.041-3.467.201-.041.391-.08.567-.118l.072-.016v3.542c0,1.63-2.063,2.481-3.169,2.481ZM413.168,41.652c-.156.033-.322.067-.496.103-1.97.403-4.946,1.01-4.946,3.351,0,1.593.738,2.304,2.392,2.304,1.065,0,3.05-.812,3.05-2.363v-3.394Z"/>
        </g>
        <g>
          <path class="cls-6" d="M422.543,45.705c0,2.063,2.482,1.196,2.482,2.004,0,.358-.239.419-.687.419-.419,0-1.345-.12-2.751-.12-1.464,0-2.033.12-2.331.12-.239,0-.359-.12-.359-.39,0-.448,1.466-.358,1.466-1.644v-16.894c0-1.795-2.034-1.016-2.034-1.644,0-.18.12-.3.27-.329,2.302-.539,2.9-1.496,3.588-1.496.18,0,.358.18.358.478v19.496Z"/>
          <path class="cls-6" d="M424.337,48.186c-.15,0-.365-.015-.637-.034-.51-.036-1.207-.086-2.115-.086-1.006,0-1.597.058-1.95.093-.166.016-.286.028-.382.028-.277,0-.419-.151-.419-.449,0-.204.228-.308.491-.428.435-.198.975-.445.975-1.216v-16.894c0-1.076-.748-1.18-1.349-1.264-.367-.051-.685-.095-.685-.38,0-.194.128-.35.318-.387,1.344-.314,2.093-.768,2.64-1.098.383-.231.659-.398.959-.398.206,0,.418.201.418.537v19.496c0,1.219.894,1.372,1.613,1.494.466.08.869.149.869.509,0,.441-.354.478-.747.478ZM421.586,47.948c.912,0,1.612.049,2.124.086.27.019.482.034.628.034.487,0,.628-.081.628-.36,0-.248-.292-.311-.77-.393-.722-.123-1.712-.292-1.712-1.611v-19.496c0-.262-.152-.419-.299-.419-.266,0-.531.16-.897.382-.554.335-1.313.793-2.677,1.113-.137.026-.223.133-.223.271,0,.174.21.211.583.263.612.085,1.451.202,1.451,1.381v16.894c0,.847-.604,1.122-1.044,1.324-.236.107-.421.193-.421.321,0,.232.09.331.3.331.09,0,.208-.012.371-.028.355-.035.949-.093,1.961-.093Z"/>
        </g>
        <g>
          <path class="cls-6" d="M426.633,36.795c-1.405,0-1.614,0-1.614-.21,0-.239.747-.747,2.272-2.421.599-.718.897-1.376,1.137-1.376.419,0,.389.628.389,2.781h3.289c.747,0,1.076-.509,1.166-.509.149,0,.21.15.21.239,0,.12-.09.27-.18.419l-.599,1.077h-3.887v8.7c.06,1.226.897,1.795,2.093,1.795,1.585,0,2.033-.687,2.541-.687.119,0,.239.029.239.268,0,.449-1.615,1.466-3.708,1.466-1.375,0-3.349-.389-3.349-3.469v-8.072Z"/>
          <path class="cls-6" d="M429.982,48.395c-2.262,0-3.408-1.187-3.408-3.528v-8.014c-1.429,0-1.614-.003-1.614-.269,0-.15.188-.332.64-.771.368-.357.924-.896,1.648-1.69.234-.28.426-.557.579-.78.265-.384.426-.615.601-.615.287,0,.363.266.401.553.048.369.048.97.047,1.879v.349h3.23c.532,0,.841-.267,1.007-.41.073-.063.113-.098.158-.098.184,0,.27.178.27.298,0,.136-.095.295-.189.449l-.614,1.106h-3.862v8.641c.054,1.118.776,1.736,2.034,1.736.997,0,1.536-.276,1.929-.476.231-.118.413-.211.612-.211.128,0,.299.034.299.327,0,.515-1.706,1.525-3.768,1.525ZM428.428,32.847c-.113,0-.294.262-.503.564-.156.225-.349.505-.587.791-.728.798-1.286,1.339-1.654,1.697-.377.365-.604.586-.604.686,0,.147.221.151,1.554.151h.06v8.131c0,2.294,1.076,3.41,3.289,3.41,2.07,0,3.649-.999,3.649-1.407,0-.194-.077-.209-.18-.209-.17,0-.341.088-.558.198-.404.207-.958.489-1.983.489-1.311,0-2.096-.674-2.153-1.851v-8.762h3.912l.582-1.047c.085-.142.172-.286.172-.39,0-.056-.038-.18-.15-.18-.006.004-.046.039-.081.07-.165.143-.509.439-1.085.439h-3.349v-.467c.001-.904.002-1.502-.046-1.863-.049-.375-.145-.451-.283-.451Z"/>
        </g>
        <g>
          <path class="cls-6" d="M439.592,53.987c-.029.09-.568.09-.986.09s-1.107.029-1.107-.209c0-.658,2.721-2.901,2.721-5.233,0-.718-.329-1.376-.597-2.004l-3.917-9.658c-.27-.657-1.405-.687-1.405-1.106,0-.299.179-.358.597-.358.628,0,1.286.119,2.093.119,1.047,0,1.734-.119,2.212-.119.448,0,.628.06.628.389,0,.628-1.704.029-1.704,1.226,0,.238.06.478.149.717l3.2,8.133,2.302-6.757c.358-1.076.358-1.345.358-1.554,0-1.615-1.914-1.167-1.914-1.824,0-.3.359-.329.897-.329.358,0,.837.119,1.674.119.687,0,1.226-.119,1.525-.119.358,0,.568.119.568.358,0,.688-1.017-.06-1.615,1.735l-5.681,16.385Z"/>
          <path class="cls-6" d="M438.358,54.137c-.417,0-.739-.018-.865-.143-.035-.035-.054-.079-.054-.126,0-.249.322-.661.768-1.231.778-.996,1.953-2.499,1.953-4.003,0-.62-.252-1.198-.495-1.756-.033-.075-.065-.15-.097-.224l-3.918-9.659c-.134-.327-.504-.491-.831-.637-.31-.138-.578-.257-.578-.492,0-.386.298-.417.657-.417.296,0,.6.026.92.054.367.032.747.065,1.174.065.622,0,1.119-.043,1.516-.076.268-.023.501-.043.696-.043.39,0,.687.033.687.448,0,.314-.34.368-.7.425-.471.074-1.004.158-1.004.802,0,.208.047.436.145.696l3.14,7.982,2.251-6.605c.355-1.066.355-1.326.355-1.535,0-.942-.681-1.149-1.226-1.315-.368-.112-.687-.209-.687-.509,0-.388.509-.388.957-.388.145,0,.311.019.503.041.298.035.668.078,1.171.078.411,0,.767-.043,1.053-.077.188-.022.349-.042.472-.042.546,0,.628.261.628.417,0,.316-.2.376-.43.445-.353.106-.837.252-1.188,1.308l-5.681,16.386c-.037.111-.293.129-1.042.129h-.125c-.043.001-.083.001-.124.001ZM434.897,35.568c-.428,0-.538.062-.538.299,0,.158.235.262.508.384.33.147.74.329.893.7l3.917,9.658c.031.073.063.147.095.222.249.57.506,1.159.506,1.804,0,1.544-1.19,3.067-1.979,4.076-.399.51-.742.95-.742,1.158,0,.016.006.029.019.042.113.113.586.111.903.108h.126c.299,0,.85,0,.932-.057l5.679-16.379c.371-1.114.91-1.276,1.267-1.384.229-.069.345-.104.345-.332,0-.247-.276-.299-.509-.299-.116,0-.274.019-.457.042-.29.034-.65.077-1.068.077-.51,0-.884-.043-1.185-.078-.197-.023-.352-.041-.49-.041-.568,0-.838.04-.838.27,0,.202.229.281.602.395.554.168,1.312.399,1.312,1.429,0,.217,0,.488-.362,1.573l-2.354,6.911-.06-.15-3.2-8.133c-.103-.274-.154-.515-.154-.738,0-.745.613-.841,1.105-.919.372-.058.599-.104.599-.307,0-.264-.111-.33-.568-.33-.191,0-.42.02-.686.043-.401.034-.9.076-1.526.076-.431,0-.814-.033-1.184-.065-.318-.028-.618-.054-.91-.054ZM439.541,53.958h0s0,0,0,0Z"/>
        </g>
        <g>
          <path class="cls-6" d="M467.608,31.173c0,.149-.18.239-.299.239-.27,0-.359-.358-.449-.538-.718-1.555-2.272-3.14-4.096-3.14-1.376,0-2.482.987-2.482,2.422,0,2.004,4.425,6.727,10.883,12.708.748-.838.867-1.914.867-3.17,0-3.498-2.81-2.302-2.81-3.259,0-.329.448-.268.687-.268,1.106,0,2.153.119,2.601.119.389,0,.897-.119,1.914-.119.27,0,.419.06.419.358,0,.478-1.137.149-1.286,1.466-.209,1.883-.448,3.797-1.405,5.502,1.137.896,3.946,3.797,5.292,3.797.599,0,.897-.149,1.107-.149.209,0,.239.18.239.239,0,.508-1.496.957-2.482.957-2.243,0-3.888-1.705-5.532-3.02-2.153,2.004-4.425,3.02-7.356,3.02-4.396,0-8.252-2.901-8.252-7.565,0-3.2,1.585-5.651,4.784-6.34-.777-.957-1.376-2.153-1.376-3.408,0-2.721,2.422-4.067,4.844-4.067,1.914,0,3.05.807,3.2.807s.27-.27.538-.27c.419,0,.359.568.359.838l.09,2.84ZM469.791,44.658c-6.398-5.471-8.671-9.479-9.747-9.479-1.884,0-3.259,2.333-3.259,4.067,0,3.977,3.797,7.326,7.655,7.326,1.914,0,3.887-.658,5.351-1.914Z"/>
          <path class="cls-6" d="M476.31,48.395c-1.928,0-3.403-1.231-4.828-2.422-.23-.193-.468-.391-.701-.578-2.244,2.075-4.516,3.001-7.359,3.001-2.22,0-4.286-.727-5.813-2.047-1.635-1.413-2.499-3.341-2.499-5.576,0-3.37,1.725-5.689,4.738-6.377-.621-.783-1.33-1.982-1.33-3.371,0-2.835,2.541-4.126,4.903-4.126,1.509,0,2.546.5,2.988.714.092.045.188.091.212.093.042,0,.092-.043.15-.092.093-.079.211-.177.386-.177.111,0,.201.035.27.104.162.165.155.475.15.702-.001.033-.001.063-.001.09l.09,2.84c0,.185-.209.298-.358.298-.258,0-.371-.265-.453-.459-.017-.041-.034-.079-.049-.112-.714-1.548-2.24-3.107-4.043-3.107-1.381,0-2.422,1.016-2.422,2.363,0,1.773,3.438,5.784,10.819,12.624.675-.787.812-1.767.812-3.086,0-2.249-1.154-2.51-1.997-2.7-.436-.098-.813-.184-.813-.559,0-.089.029-.162.084-.216.13-.126.374-.119.565-.113.035.001.067.002.098.002.678,0,1.324.044,1.842.079.328.022.587.04.759.04.145,0,.308-.017.513-.039.325-.034.769-.08,1.4-.08.288,0,.478.071.478.417,0,.223-.193.299-.417.386-.348.137-.782.307-.87,1.086-.183,1.656-.411,3.714-1.387,5.48.271.217.627.536,1.034.901,1.343,1.203,3.183,2.852,4.181,2.852.369,0,.626-.059.812-.102.118-.027.21-.048.295-.048.236,0,.299.195.299.298,0,.561-1.537,1.016-2.541,1.016ZM470.774,45.238l.04.032c.247.198.499.408.742.611,1.411,1.178,2.868,2.395,4.753,2.395,1.013,0,2.422-.453,2.422-.898,0-.03-.008-.18-.18-.18-.072,0-.158.02-.268.045-.193.044-.456.104-.839.104-1.043,0-2.902-1.665-4.26-2.882-.427-.382-.796-.713-1.069-.928l-.039-.031.025-.044c.912-1.625,1.163-3.369,1.398-5.479.095-.85.586-1.042.944-1.183.223-.088.34-.14.34-.276,0-.232-.081-.299-.359-.299-.624,0-1.048.044-1.388.08-.209.022-.374.039-.526.039-.176,0-.437-.017-.767-.04-.517-.035-1.16-.079-1.834-.079-.062,0-.14-.003-.223-.004-.138,0-.284.012-.356.082-.033.031-.048.075-.048.131,0,.268.259.34.72.444.832.188,2.09.471,2.09,2.815,0,1.334-.15,2.39-.883,3.21l-.039.045-.045-.041c-7.438-6.888-10.903-10.94-10.903-12.752,0-1.415,1.093-2.481,2.541-2.481,1.855,0,3.421,1.594,4.15,3.174.016.033.034.073.052.117.073.172.164.387.344.387.095,0,.238-.072.239-.179l-.09-2.84c0-.03.001-.061.001-.094.004-.194.01-.487-.116-.617-.046-.047-.107-.07-.185-.07-.133,0-.222.076-.31.15-.074.061-.143.119-.228.119-.045,0-.109-.03-.263-.104-.435-.21-1.454-.703-2.937-.703-2.304,0-4.784,1.254-4.784,4.008,0,1.4.74,2.606,1.362,3.371l.061.075-.094.02c-3.011.648-4.737,2.937-4.737,6.282,0,2.2.849,4.097,2.457,5.487,1.506,1.302,3.543,2.019,5.735,2.019,2.827,0,5.083-.927,7.316-3.004l.037-.035ZM464.439,46.631c-4.037,0-7.714-3.52-7.714-7.385,0-1.869,1.48-4.126,3.319-4.126.517,0,1.234.807,2.536,2.273,1.5,1.69,3.769,4.243,7.249,7.22l.053.045-.053.045c-1.429,1.225-3.393,1.928-5.39,1.928ZM460.044,35.239c-1.45,0-3.2,1.788-3.2,4.008,0,3.803,3.62,7.267,7.595,7.267,1.944,0,3.857-.676,5.26-1.855-3.458-2.963-5.713-5.502-7.209-7.186-1.236-1.393-1.983-2.234-2.447-2.234Z"/>
        </g>
        <g>
          <path class="cls-6" d="M301.57,78.217c2.153,3.289,3.618,2.183,3.618,2.901,0,.359-1.674.359-1.944.359-2.183,0-3.349-1.525-4.485-3.23l-3.319-5.232c-1.077-1.674-.628-1.585-3.977-1.585-.957,0-.778.538-.778.837v6.309c0,2.572,3.11,1.644,3.11,2.66,0,.3-.268.24-.508.24-.27,0-.957-.12-3.439-.12-1.137,0-2.273.12-3.408.12-.18,0-.3-.15-.3-.329,0-.748,2.183-.329,2.183-2.602v-15.22c0-2.871-2.572-1.644-2.572-2.662,0-.179.239-.358.599-.358.538,0,.389.12,1.914.12,1.734,0,3.439-.12,4.993-.12.478,0,7.086-.599,7.086,5.173,0,2.333-1.674,4.336-3.767,5.173l4.993,7.565ZM290.686,69.995c0,.567,1.854.418,3.26.418,1.285,0,4.155-.538,4.155-4.245,0-3.649-2.781-4.874-5.711-4.874-1.076,0-1.705-.061-1.705,1.106v7.595Z"/>
          <path class="cls-6" d="M293.491,81.541c-.066,0-.135-.006-.203-.005-.07,0-.162-.007-.303-.019-.412-.033-1.271-.102-3.136-.102-.567,0-1.144.031-1.701.06-.559.03-1.138.06-1.707.06-.204,0-.359-.167-.359-.388,0-.313.322-.443.696-.595.628-.254,1.487-.603,1.487-2.007v-15.22c0-1.75-.951-1.929-1.716-2.072-.459-.086-.856-.161-.856-.59,0-.205.246-.417.658-.417.206,0,.312.017.447.038.217.034.514.082,1.467.082.889,0,1.774-.032,2.63-.063.825-.03,1.606-.057,2.363-.057.026,0,.07-.002.129-.004.194-.008.384-.012.568-.012,2.781,0,4.286.864,5.067,1.616.916.88,1.381,2.102,1.381,3.632,0,2.195-1.499,4.277-3.737,5.2l4.954,7.505c1.418,2.167,2.523,2.406,3.116,2.534.298.065.512.111.512.399,0,.278-.674.418-2.004.418-2.187,0-3.347-1.475-4.535-3.256l-3.32-5.234c-.112-.176-.21-.333-.295-.473-.633-1.029-.668-1.085-2.763-1.085-.12,0-.247,0-.383,0h-.485c-.31,0-.522.059-.631.175-.118.127-.106.311-.094.473.003.047.007.09.007.13v6.309c0,1.531,1.125,1.781,2.03,1.982.579.128,1.079.239,1.079.679,0,.099-.026.172-.079.223-.071.068-.175.081-.285.081ZM289.849,81.298c1.869,0,2.731.069,3.146.102.211.018.301.017.399.021.121.003.244.009.3-.045.029-.028.043-.073.043-.138,0-.345-.435-.441-.986-.563-.896-.199-2.124-.471-2.124-2.097v-6.309c0-.037-.002-.078-.006-.121-.012-.177-.028-.398.126-.562.134-.143.368-.213.718-.213h.485c.134-.001.261-.001.38-.001,2.121,0,2.2.058,2.867,1.142.085.139.182.295.294.471l3.32,5.233c1.167,1.751,2.308,3.202,4.435,3.202,1.302,0,1.884-.151,1.884-.3,0-.184-.1-.215-.418-.283-.61-.133-1.746-.378-3.191-2.585l-5.033-7.625.067-.027c2.231-.892,3.73-2.949,3.73-5.118,0-1.496-.451-2.69-1.344-3.547-.816-.786-2.45-1.694-5.549-1.571-.062.002-.107.004-.134.004-.755,0-1.534.028-2.358.058-.857.031-1.743.062-2.635.062-.961,0-1.265-.048-1.486-.083-.129-.021-.232-.037-.428-.037-.322,0-.539.155-.539.299,0,.315.274.382.758.473.766.144,1.814.34,1.814,2.189v15.22c0,1.484-.903,1.85-1.562,2.118-.36.146-.621.252-.621.485,0,.134.082.27.24.27.566,0,1.142-.031,1.7-.06.559-.03,1.138-.06,1.708-.06ZM292.412,70.491c-.792,0-1.454-.045-1.69-.277-.063-.062-.095-.135-.095-.218v-7.595c0-.432.084-.717.265-.896.273-.272.72-.271,1.348-.27h.152c1.735,0,5.77.481,5.77,4.934,0,4.097-3.511,4.304-4.215,4.304-.24,0-.494.004-.75.009-.267.004-.532.01-.784.01ZM292.096,61.353c-.522,0-.903.016-1.122.235-.156.156-.229.414-.229.812v7.595c0,.051.019.094.058.133.276.271,1.404.252,2.39.234.256-.004.511-.008.752-.008,3.8,0,4.096-3.204,4.096-4.186,0-4.346-3.952-4.815-5.651-4.815h-.294Z"/>
        </g>
        <g>
          <path class="cls-6" d="M307.071,73.792c0,4.934,2.99,6.399,4.815,6.399,2.571,0,3.558-1.555,4.216-1.555.119,0,.119.12.119.209,0,.688-2.601,2.841-5.292,2.841-4.485,0-6.041-4.156-6.041-6.13,0-3.827,2.124-7.027,5.861-7.027,3.678,0,5.292,3.558,5.292,4.754,0,.539-.328.509-1.016.509h-7.953ZM312.962,72.985c.419,0,.599-.149.599-.597,0-1.676-1.674-3.17-3.32-3.17-1.854,0-3.169,2.124-3.169,3.768h5.89Z"/>
          <path class="cls-6" d="M310.929,81.745c-4.564,0-6.1-4.25-6.1-6.189,0-4.172,2.435-7.086,5.921-7.086,3.741,0,5.351,3.653,5.351,4.813,0,.195-.042.327-.13.416-.155.154-.435.152-.841.153h-.104s-7.894,0-7.894,0c.025,4.966,3.116,6.281,4.755,6.281,1.689,0,2.694-.684,3.36-1.137.358-.243.617-.419.856-.419.179,0,.179.181.179.268,0,.768-2.662,2.9-5.351,2.9ZM310.749,68.589c-1.754,0-3.235.711-4.286,2.056-.978,1.252-1.516,2.997-1.516,4.912,0,1.902,1.506,6.071,5.981,6.071,2.698,0,5.232-2.159,5.232-2.782,0-.127-.016-.15-.06-.15-.203,0-.462.176-.79.399-.677.461-1.701,1.157-3.426,1.157-1.686,0-4.874-1.349-4.874-6.458v-.059h8.117c.389-.004.638.002.757-.118.065-.065.095-.17.095-.332,0-1.131-1.575-4.695-5.232-4.695ZM312.962,73.044h-5.95v-.059c0-1.77,1.411-3.827,3.229-3.827,1.737,0,3.379,1.569,3.379,3.229,0,.467-.191.656-.658.656ZM307.131,72.926h5.831c.403,0,.539-.136.539-.539,0-1.599-1.585-3.111-3.26-3.111-1.425,0-3.078,1.59-3.11,3.65Z"/>
        </g>
        <g>
          <path class="cls-6" d="M317.793,72.118c0-2.392,1.854-3.588,4.037-3.588.508,0,2.571.239,2.93.687.18.239.149,1.257.149,1.466,0,.807.119,1.166-.329,1.166-.299,0-.568-2.601-3.289-2.601-1.166,0-2.092.687-2.092,1.914,0,.986.777,1.615,3.916,2.871,1.705.718,2.482,1.644,2.482,3.558,0,2.243-1.824,4.097-4.036,4.097-2.093,0-2.631-.867-3.349-.867-.658,0-.658-.03-.658-2.392,0-.509-.09-1.466.359-1.466.657,0,.329,3.948,3.558,3.948,1.466,0,2.662-.897,2.662-2.453,0-1.585-1.525-2.063-2.721-2.631-1.615-.807-3.618-1.585-3.618-3.707Z"/>
          <path class="cls-6" d="M321.561,81.745c-1.334,0-2.046-.35-2.566-.605-.296-.146-.531-.262-.783-.262-.718,0-.718-.092-.718-2.451,0-.068-.001-.144-.003-.224-.009-.44-.02-.987.192-1.205.063-.063.14-.095.23-.095.249,0,.357.378.521.95.34,1.193.856,2.997,3.037,2.997,1.557,0,2.602-.962,2.602-2.394,0-1.361-1.146-1.878-2.255-2.379-.146-.066-.291-.132-.432-.199-.14-.07-.283-.14-.427-.21-1.512-.738-3.225-1.575-3.225-3.551,0-2.216,1.608-3.647,4.097-3.647.476,0,2.59.228,2.976.709.156.207.168.868.163,1.42v.083c0,.156.004.294.008.417.012.365.019.585-.102.71-.064.066-.158.097-.294.097-.112,0-.183-.156-.31-.438-.974-2.163-2.328-2.163-2.979-2.163-1.216,0-2.033.746-2.033,1.855,0,.98.869,1.612,3.879,2.815,1.813.763,2.519,1.776,2.519,3.613,0,2.292-1.837,4.156-4.096,4.156ZM317.913,77.021c-.058,0-.106.02-.145.061-.179.182-.167.724-.158,1.119.001.081.003.158.003.227q0,2.333.599,2.333c.279,0,.524.12.836.273.509.25,1.207.594,2.513.594,2.193,0,3.977-1.811,3.977-4.038,0-1.803-.663-2.753-2.445-3.503-3.103-1.241-3.953-1.87-3.953-2.925,0-1.18.865-1.973,2.152-1.973,2.082,0,2.762,1.508,3.087,2.233.075.167.161.357.203.368.101,0,.167-.02.208-.062.086-.089.08-.302.07-.624-.004-.124-.009-.264-.009-.421v-.084c.003-.283.012-1.146-.137-1.346-.338-.421-2.38-.664-2.883-.664-1.835,0-3.978.924-3.978,3.529,0,1.902,1.678,2.721,3.159,3.444.144.07.286.14.427.21.138.066.283.131.429.197,1.089.492,2.325,1.05,2.325,2.487,0,1.479-1.12,2.512-2.721,2.512-2.27,0-2.821-1.93-3.151-3.083-.133-.464-.247-.865-.407-.865Z"/>
        </g>
        <g>
          <path class="cls-6" d="M329.065,73.792c0,4.934,2.99,6.399,4.815,6.399,2.571,0,3.558-1.555,4.216-1.555.119,0,.119.12.119.209,0,.688-2.601,2.841-5.292,2.841-4.485,0-6.041-4.156-6.041-6.13,0-3.827,2.124-7.027,5.861-7.027,3.678,0,5.292,3.558,5.292,4.754,0,.539-.328.509-1.016.509h-7.953ZM334.955,72.985c.419,0,.599-.149.599-.597,0-1.676-1.674-3.17-3.32-3.17-1.854,0-3.169,2.124-3.169,3.768h5.89Z"/>
          <path class="cls-6" d="M332.923,81.745c-4.564,0-6.1-4.25-6.1-6.189,0-4.172,2.435-7.086,5.921-7.086,3.741,0,5.351,3.653,5.351,4.813,0,.195-.042.327-.13.416-.154.154-.429.152-.841.153h-.104s-7.894,0-7.894,0c.025,4.966,3.116,6.281,4.755,6.281,1.689,0,2.694-.684,3.36-1.137.358-.243.617-.419.856-.419.179,0,.179.181.179.268,0,.768-2.662,2.9-5.351,2.9ZM332.743,68.589c-1.754,0-3.235.711-4.286,2.056-.978,1.252-1.516,2.997-1.516,4.912,0,1.902,1.506,6.071,5.981,6.071,2.698,0,5.232-2.159,5.232-2.782,0-.127-.016-.15-.06-.15-.203,0-.462.176-.79.399-.677.461-1.701,1.157-3.426,1.157-1.686,0-4.874-1.349-4.874-6.458v-.059h8.117c.386-.004.638.002.757-.118.065-.065.095-.17.095-.332,0-1.131-1.575-4.695-5.232-4.695ZM334.955,73.044h-5.95v-.059c0-1.77,1.411-3.827,3.229-3.827,1.737,0,3.379,1.569,3.379,3.229,0,.467-.191.656-.658.656ZM329.124,72.926h5.831c.403,0,.539-.136.539-.539,0-1.599-1.585-3.111-3.26-3.111-1.425,0-3.078,1.59-3.11,3.65Z"/>
        </g>
        <g>
          <path class="cls-6" d="M347.184,71.909c0-1.555-1.225-2.602-3.079-2.602-1.435,0-2.602.149-2.602,1.795,0,.448.18.896.18,1.225s-.09.568-.658.568c-.508,0-1.405-.448-1.405-.986.03-1.376,1.705-3.469,5.023-3.379,1.854,0,4.725.538,4.725,3.079v6.19c0,1.016-.27,2.781,1.286,2.781.119,0,.389-.06.508-.06.149,0,.389,0,.389.209,0,.628-1.315.748-1.734.748-1.166,0-1.943-.539-2.333-1.525-1.256,1.076-2.9,1.734-4.574,1.734-1.944,0-3.23-.718-3.23-2.841,0-1.585.509-3.468,7.505-4.634v-2.302ZM347.184,74.929c-1.914.418-5.561.896-5.561,3.527,0,1.705.867,2.363,2.452,2.363,1.077,0,3.11-.838,3.11-2.422v-3.468Z"/>
          <path class="cls-6" d="M342.909,81.745c-2.214,0-3.289-.948-3.289-2.9,0-1.657.582-3.522,7.505-4.684v-2.252c0-1.521-1.213-2.543-3.02-2.543-1.391,0-2.543.131-2.543,1.736,0,.235.049.468.099.693.042.193.081.374.081.532,0,.326-.088.627-.718.627-.501,0-1.464-.441-1.464-1.045.016-.681.41-1.454,1.055-2.068.934-.889,2.288-1.373,3.828-1.373.066,0,.134,0,.201.003,1.121,0,4.783.226,4.783,3.138v6.19c0,.125-.004.261-.009.404-.02.697-.046,1.564.387,2.011.2.206.477.307.848.307.055,0,.152-.015.245-.029.102-.016.199-.03.263-.03.145,0,.448,0,.448.268,0,.662-1.295.807-1.794.807-1.146,0-1.938-.5-2.356-1.486-1.288,1.079-2.942,1.695-4.551,1.695ZM344.105,69.248c1.878,0,3.139,1.069,3.139,2.661v2.352l-.049.008c-6.88,1.146-7.456,2.963-7.456,4.575,0,1.898,1.007,2.782,3.17,2.782,1.607,0,3.26-.627,4.536-1.72l.063-.054.03.077c.39.987,1.157,1.488,2.278,1.488.435,0,1.674-.127,1.674-.689,0-.126-.116-.15-.329-.15-.055,0-.152.015-.245.029-.102.016-.199.03-.263.03-.399,0-.712-.115-.933-.342-.468-.483-.441-1.378-.42-2.097.004-.142.008-.276.008-.4v-6.19c0-2.803-3.57-3.02-4.665-3.02-.066-.002-.133-.002-.199-.002-1.512,0-2.836.472-3.748,1.34-.623.594-1.004,1.335-1.017,1.984,0,.477.839.926,1.345.926.554,0,.599-.231.599-.509,0-.145-.038-.321-.077-.508-.048-.22-.102-.47-.102-.718,0-1.712,1.259-1.854,2.662-1.854ZM344.074,80.878c-1.713,0-2.511-.769-2.511-2.422,0-2.438,3.033-3.057,5.041-3.467.201-.041.391-.08.567-.118l.072-.016v3.542c0,1.63-2.063,2.481-3.169,2.481ZM347.125,75.002c-.156.033-.322.067-.496.103-1.97.403-4.946,1.01-4.946,3.351,0,1.593.738,2.304,2.392,2.304,1.065,0,3.05-.812,3.05-2.363v-3.394Z"/>
        </g>
        <g>
          <path class="cls-6" d="M356.312,78.845c0,2.782,2.662,1.347,2.662,2.303,0,.268-.15.329-.478.329-.419,0-1.137-.12-2.811-.12-2.004,0-2.541.12-2.751.12-.239,0-.329-.09-.329-.27,0-.628,1.525-.509,1.525-1.734v-7.715c0-1.794-2.153-1.016-2.153-1.644,0-.18.239-.299.389-.329,2.303-.538,2.901-1.495,3.588-1.495.18,0,.359.18.359.478v2.243h.06c.628-.867,1.705-2.482,2.96-2.482.628,0,1.973.777,1.973,1.345,0,.448-.718,1.345-1.076,1.345-.568,0-.897-.687-1.973-.687-1.226,0-1.944,1.376-1.944,1.764v6.547Z"/>
          <path class="cls-6" d="M358.495,81.536c-.142,0-.312-.013-.548-.031-.457-.035-1.149-.089-2.263-.089-1.51,0-2.19.069-2.516.102-.109.011-.182.018-.236.018-.262,0-.389-.107-.389-.328,0-.299.295-.445.608-.601.43-.213.918-.456.918-1.133v-7.715c0-1.075-.793-1.18-1.43-1.263-.389-.051-.723-.095-.723-.381,0-.217.267-.353.437-.387,1.345-.314,2.096-.768,2.643-1.098.382-.231.658-.398.957-.398.206,0,.419.201.419.537v2.142l.073-.102c.628-.874,1.679-2.338,2.887-2.338.655,0,2.033.787,2.033,1.404,0,.486-.742,1.404-1.135,1.404-.256,0-.459-.126-.695-.271-.314-.195-.672-.416-1.278-.416-1.198,0-1.884,1.34-1.884,1.705v6.547c0,1.699.989,1.772,1.785,1.83.471.035.877.065.877.473,0,.358-.266.388-.538.388ZM355.684,81.298c1.119,0,1.813.053,2.273.089.232.018.401.031.538.031.329,0,.419-.058.419-.27,0-.285-.277-.319-.767-.355-.8-.059-1.895-.139-1.895-1.948v-6.547c0-.469.787-1.823,2.004-1.823.64,0,1.029.24,1.341.433.22.136.41.254.632.254.323,0,1.016-.878,1.016-1.286,0-.505-1.271-1.286-1.914-1.286-1.148,0-2.176,1.434-2.791,2.289l-.139.193h-.149v-2.302c0-.262-.153-.419-.3-.419-.266,0-.53.16-.895.381-.555.335-1.314.794-2.68,1.113-.139.028-.343.134-.343.271,0,.172.235.212.62.263.647.085,1.533.202,1.533,1.381v7.715c0,.751-.546,1.022-.984,1.239-.302.15-.541.27-.541.495,0,.13.045.211.27.211.048,0,.118-.007.223-.018.328-.033,1.012-.102,2.528-.102Z"/>
        </g>
        <g>
          <path class="cls-6" d="M361.296,75.347c0-3.737,2.96-6.817,6.727-6.817,1.496,0,3.529.419,3.618,1.106.06.658.03,1.376.03,1.764,0,.419-.09.628-.239.628-.3,0-.628-.568-.718-.687-1.017-1.376-2.333-1.824-3.708-1.824-2.541,0-3.529,2.63-3.529,4.784,0,3.229,1.914,5.89,5.293,5.89,2.333,0,3.648-1.735,4.097-1.735.09,0,.239.09.239.18,0,.478-1.795,3.05-5.89,3.05-3.439,0-5.921-3.02-5.921-6.34Z"/>
          <path class="cls-6" d="M367.217,81.745c-3.297,0-5.98-2.871-5.98-6.399,0-3.791,3.045-6.876,6.787-6.876,1.478,0,3.578.402,3.677,1.157.047.519.039,1.071.034,1.475-.001.112-.002.213-.002.298,0,.568-.163.687-.299.687-.285,0-.562-.41-.71-.631-.024-.034-.042-.062-.055-.08-.896-1.212-2.093-1.801-3.661-1.801-1.671,0-3.469,1.479-3.469,4.725,0,4.028,2.628,5.831,5.233,5.831,1.601,0,2.73-.838,3.405-1.338.322-.239.536-.397.692-.397.116,0,.299.109.299.239,0,.443-1.715,3.109-5.95,3.109ZM368.023,68.589c-3.677,0-6.668,3.032-6.668,6.758,0,3.463,2.629,6.281,5.861,6.281,4.077,0,5.831-2.581,5.831-2.991,0-.046-.111-.121-.18-.121-.118,0-.34.165-.622.375-.686.509-1.834,1.361-3.475,1.361-1.622,0-2.991-.607-3.959-1.755-.898-1.066-1.394-2.555-1.394-4.194,0-1.198.299-2.375.82-3.23.644-1.055,1.6-1.613,2.768-1.613,1.608,0,2.837.604,3.755,1.847.015.019.035.048.06.085.116.174.389.579.611.579.112,0,.18-.213.18-.569,0-.085.002-.186.003-.299.006-.4.013-.949-.034-1.459-.079-.601-1.944-1.053-3.559-1.053Z"/>
        </g>
        <g>
          <path class="cls-6" d="M377.388,70.652c1.135-1.076,2.601-2.123,4.306-2.123,3.827,0,4.993,3.319,4.993,5.89v4.993c0,1.555,2.392.928,2.392,1.674,0,.329-.27.39-.597.39-.539,0-1.376-.12-2.512-.12-1.166,0-2.123.12-2.452.12-.299,0-.478-.09-.478-.329,0-.449,1.464-.449,1.464-1.525v-5.473c0-3.707-2.571-4.396-3.617-4.396-1.345,0-3.498,1.167-3.498,2.692v6.309c0,2.571,2.631,1.734,2.631,2.302,0,.358-.149.419-.509.419-.628,0-2.123-.12-3.05-.12s-2.243.12-2.721.12c-.209,0-.299-.15-.299-.3,0-.597,1.764-.268,1.764-1.734v-16.894c0-1.795-2.302-1.016-2.302-1.644,0-.18.09-.3.239-.329,2.183-.419,3.2-1.496,3.887-1.496.18,0,.359.18.359.478v11.093Z"/>
          <path class="cls-6" d="M388.482,81.536c-.222,0-.495-.02-.813-.044-.458-.034-1.029-.076-1.699-.076-.759,0-1.443.052-1.896.087-.246.019-.439.033-.556.033-.357,0-.538-.13-.538-.388,0-.214.247-.331.533-.467.416-.197.931-.442.931-1.058v-5.473c0-4.287-3.413-4.337-3.558-4.337-1.358,0-3.439,1.18-3.439,2.633v6.309c0,1.697,1.17,1.863,1.945,1.972.383.054.686.097.686.33,0,.404-.192.478-.568.478-.285,0-.755-.025-1.251-.051-.605-.032-1.292-.069-1.799-.069-.537,0-1.22.042-1.768.075-.403.025-.751.045-.953.045-.247,0-.358-.18-.358-.359,0-.275.294-.376.636-.494.503-.173,1.129-.388,1.129-1.24v-16.894c0-1.075-.849-1.18-1.532-1.264-.413-.051-.77-.094-.77-.38,0-.207.108-.352.288-.387,1.276-.245,2.154-.718,2.796-1.064.466-.252.804-.433,1.102-.433.206,0,.419.201.419.537v10.956c1.481-1.376,2.872-2.045,4.246-2.045,3.73,0,5.053,3.205,5.053,5.949v4.993c0,.87.781,1.016,1.469,1.146.495.093.923.174.923.528,0,.449-.46.449-.657.449ZM385.97,81.298c.675,0,1.248.042,1.708.076.314.024.586.044.804.044.387,0,.538-.093.538-.331,0-.257-.383-.328-.825-.412-.697-.131-1.567-.294-1.567-1.262v-4.993c0-4.299-2.548-5.831-4.934-5.831-1.375,0-2.769.689-4.265,2.107l-.1.094v-11.231c0-.262-.153-.419-.3-.419-.268,0-.594.176-1.046.419-.649.349-1.536.828-2.83,1.076-.124.024-.191.12-.191.271,0,.172.253.212.665.263.691.085,1.637.201,1.637,1.381v16.894c0,.937-.7,1.177-1.21,1.353-.344.118-.555.2-.555.381,0,.116.063.241.239.241.199,0,.545-.021.947-.045.549-.034,1.233-.075,1.774-.075.511,0,1.198.036,1.805.069.496.026.964.052,1.245.052.343,0,.449-.05.449-.36,0-.13-.257-.167-.584-.213-.766-.108-2.047-.289-2.047-2.089v-6.309c0-.709.451-1.407,1.271-1.967.708-.483,1.585-.784,2.287-.784,1.366,0,3.677.938,3.677,4.455v5.473c0,.691-.577.965-.998,1.165-.25.118-.466.221-.466.36,0,.126.047.27.419.27.112,0,.304-.015.547-.034.455-.034,1.141-.086,1.905-.086Z"/>
        </g>
        <g>
          <path class="cls-6" d="M399.424,62.879c-.029-2.183-2.601-1.585-2.601-2.243,0-.27.239-.329.478-.329,1.106,0,2.183.12,3.289.12.927,0,1.853-.12,2.781-.12.508,0,.568.18.568.299,0,.599-2.153.03-2.153,2.273v6.459c0,.418,0,.538.448.538h10.944c.299,0,.239-.748.239-.867v-6.13c0-2.063-2.243-1.555-2.243-2.243,0-.18.06-.329.509-.329.986,0,2.541.12,3.11.12,1.106,0,1.554-.12,2.153-.12.777,0,.837.299.837.478,0,.538-2.004.03-2.004,2.093v15.847c0,2.183,2.721,1.644,2.721,2.392,0,.09-.119.359-.329.359-.807,0-1.734-.12-2.811-.12-1.914,0-2.75.12-3.319.12-.27,0-.718.089-.718-.39,0-.718,2.093-.299,2.093-2.182v-7.176c0-.478.119-.748-.239-.748h-11.034c-.358,0-.358.18-.358.509v7.445c0,2.034,2.84,1.376,2.84,2.302,0,.15-.209.24-.478.24-.389,0-2.572-.12-4.156-.12-2.123,0-2.452.12-2.572.12-.239,0-.328-.15-.328-.449,0-.867,2.331.12,2.331-2.84v-15.309Z"/>
          <path class="cls-6" d="M411.797,81.543c-.149,0-.308-.019-.413-.121-.079-.076-.119-.189-.119-.335,0-.316.335-.435.722-.572.611-.217,1.371-.487,1.371-1.61v-7.176c0-.108.007-.205.011-.291.01-.167.019-.3-.033-.354-.027-.029-.079-.044-.158-.044h-11.034c-.299,0-.299.113-.299.45v7.445c0,1.168.988,1.417,1.783,1.617.567.143,1.057.266,1.057.686,0,.179-.217.299-.538.299-.13,0-.449-.013-.892-.03-.878-.036-2.206-.09-3.265-.09-1.71,0-2.255.079-2.459.108-.054.008-.088.012-.112.012-.347,0-.387-.29-.387-.508,0-.35.327-.436.705-.536.686-.181,1.626-.429,1.626-2.304v-15.309c-.018-1.362-1.055-1.603-1.813-1.779-.44-.102-.788-.183-.788-.464,0-.177.093-.388.538-.388.555,0,1.111.03,1.648.06.537.029,1.09.06,1.642.06.462,0,.931-.031,1.386-.06.457-.03.929-.06,1.395-.06.417,0,.628.12.628.358,0,.249-.275.325-.623.42-.646.177-1.53.419-1.53,1.853v6.459c0,.415,0,.479.389.479h10.944c.029,0,.053-.011.074-.033.127-.131.112-.572.108-.717-.001-.025-.002-.045-.002-.058v-6.13c0-1.264-.878-1.532-1.519-1.727-.387-.118-.723-.22-.723-.515,0-.276.165-.388.568-.388.562,0,1.299.038,1.951.072.491.026.915.048,1.159.048.635,0,1.044-.039,1.406-.074.263-.025.491-.047.747-.047.603,0,.896.176.896.537,0,.227-.254.296-.576.384-.602.164-1.427.389-1.427,1.709v15.847c0,1.332,1.019,1.609,1.838,1.831.493.134.883.24.883.561,0,.108-.134.418-.389.418-.376,0-.781-.026-1.208-.053-.505-.033-1.028-.067-1.603-.067-1.236,0-2.011.05-2.577.086-.301.019-.539.034-.741.034-.034,0-.071.002-.11.003-.043.002-.089.003-.135.003ZM402.145,70.922h11.034c.116,0,.193.025.245.08.086.092.077.239.065.442-.006.084-.011.179-.011.284v7.176c0,1.206-.839,1.504-1.451,1.722-.399.142-.642.24-.642.46,0,.115.027.196.082.249.102.099.291.09.462.084.04-.002.079-.003.115-.003.199,0,.435-.015.733-.034.567-.036,1.344-.086,2.585-.086.579,0,1.104.034,1.61.066.426.028.828.054,1.201.054.168,0,.27-.238.27-.3,0-.231-.35-.326-.795-.447-.813-.221-1.926-.523-1.926-1.945v-15.847c0-1.411.912-1.659,1.515-1.824.312-.085.489-.139.489-.27,0-.115,0-.419-.777-.419-.25,0-.476.022-.736.047-.365.034-.777.074-1.417.074-.247,0-.673-.022-1.166-.048-.649-.034-1.385-.072-1.944-.072-.449,0-.449.15-.449.27,0,.198.243.282.639.403.677.206,1.604.488,1.604,1.84v6.13c0,.012,0,.03.001.054.01.296.003.655-.14.804-.045.045-.098.069-.159.069h-10.944c-.508,0-.508-.175-.508-.597v-6.459c0-1.524.974-1.791,1.617-1.968.343-.094.536-.154.536-.305,0-.059,0-.24-.509-.24-.462,0-.932.031-1.387.06-.457.03-.929.06-1.394.06-.555,0-1.111-.03-1.648-.06-.537-.029-1.09-.06-1.642-.06-.376,0-.419.154-.419.27,0,.186.308.258.696.349.751.175,1.884.438,1.905,1.893v15.31c0,1.966-1.032,2.239-1.715,2.419-.405.107-.617.174-.617.421,0,.323.107.39.268.39.021,0,.049-.004.095-.011.207-.03.757-.109,2.476-.109,1.061,0,2.39.053,3.269.089.441.018.759.031.887.031.243,0,.419-.076.419-.181,0-.327-.427-.435-.967-.571-.834-.21-1.873-.471-1.873-1.732v-7.445c0-.33,0-.568.418-.568Z"/>
        </g>
        <g>
          <path class="cls-6" d="M418.931,75.347c0-3.678,2.901-6.817,6.668-6.817,2.273,0,6.489,1.106,6.489,6.668,0,3.678-2.781,6.489-6.459,6.489-3.887,0-6.698-2.302-6.698-6.34ZM429.994,75.646c0-3.081-1.286-6.459-4.844-6.459-2.93,0-4.126,2.571-4.126,5.113,0,2.93,1.375,6.757,4.874,6.757,2.511,0,4.096-1.705,4.096-5.412Z"/>
          <path class="cls-6" d="M425.629,81.745c-4.105,0-6.757-2.512-6.757-6.399,0-3.791,3.018-6.876,6.727-6.876,1.094,0,6.548.324,6.548,6.726,0,3.733-2.802,6.548-6.518,6.548ZM425.599,68.589c-3.644,0-6.608,3.032-6.608,6.758,0,3.815,2.605,6.281,6.638,6.281,3.649,0,6.399-2.764,6.399-6.43,0-6.29-5.356-6.609-6.429-6.609ZM425.898,81.117c-1.595,0-2.909-.798-3.8-2.309-.72-1.22-1.133-2.863-1.133-4.507,0-2.386,1.096-5.172,4.186-5.172,3.618,0,4.903,3.511,4.903,6.518,0,3.528-1.476,5.471-4.155,5.471ZM425.151,69.247c-1.877,0-4.067,1.324-4.067,5.054,0,1.624.407,3.246,1.116,4.447.606,1.027,1.74,2.251,3.698,2.251,2.64,0,4.036-1.851,4.036-5.353,0-1.691-.383-3.237-1.078-4.353-.847-1.358-2.093-2.047-3.706-2.047Z"/>
        </g>
        <g>
          <path class="cls-6" d="M433.689,72.118c0-2.392,1.854-3.588,4.037-3.588.508,0,2.571.239,2.93.687.18.239.149,1.257.149,1.466,0,.807.119,1.166-.329,1.166-.299,0-.568-2.601-3.289-2.601-1.166,0-2.092.687-2.092,1.914,0,.986.777,1.615,3.916,2.871,1.705.718,2.482,1.644,2.482,3.558,0,2.243-1.824,4.097-4.036,4.097-2.093,0-2.631-.867-3.349-.867-.658,0-.658-.03-.658-2.392,0-.509-.09-1.466.359-1.466.657,0,.329,3.948,3.558,3.948,1.466,0,2.662-.897,2.662-2.453,0-1.585-1.525-2.063-2.721-2.631-1.615-.807-3.618-1.585-3.618-3.707Z"/>
          <path class="cls-6" d="M437.457,81.745c-1.334,0-2.046-.35-2.566-.605-.296-.146-.531-.262-.783-.262-.718,0-.718-.092-.718-2.451,0-.068-.001-.144-.003-.224-.009-.44-.02-.987.192-1.205.063-.063.14-.095.23-.095.249,0,.357.378.521.95.34,1.193.856,2.997,3.037,2.997,1.557,0,2.602-.962,2.602-2.394,0-1.361-1.146-1.878-2.255-2.379-.146-.066-.291-.132-.432-.199-.14-.07-.283-.14-.427-.21-1.512-.738-3.225-1.575-3.225-3.551,0-2.216,1.608-3.647,4.097-3.647.476,0,2.59.228,2.976.709.156.207.168.868.163,1.42v.083c0,.156.004.294.008.417.012.365.019.585-.102.71-.064.066-.158.097-.294.097-.112,0-.183-.156-.31-.438-.974-2.163-2.328-2.163-2.979-2.163-1.216,0-2.033.746-2.033,1.855,0,.98.869,1.612,3.879,2.815,1.813.763,2.519,1.776,2.519,3.613,0,2.292-1.837,4.156-4.096,4.156ZM433.809,77.021c-.058,0-.106.02-.145.061-.179.182-.167.724-.158,1.119.001.081.003.158.003.227q0,2.333.599,2.333c.279,0,.524.12.836.273.509.25,1.207.594,2.513.594,2.193,0,3.977-1.811,3.977-4.038,0-1.803-.663-2.753-2.445-3.503-3.103-1.241-3.953-1.87-3.953-2.925,0-1.18.865-1.973,2.152-1.973,2.082,0,2.762,1.508,3.087,2.233.075.167.161.357.203.368.101,0,.167-.02.208-.062.086-.089.08-.302.07-.624-.004-.124-.009-.264-.009-.421v-.084c.003-.283.012-1.146-.137-1.346-.338-.421-2.38-.664-2.883-.664-1.835,0-3.978.924-3.978,3.529,0,1.902,1.678,2.721,3.159,3.444.144.07.286.14.427.21.138.066.283.131.429.197,1.089.492,2.325,1.05,2.325,2.487,0,1.479-1.12,2.512-2.721,2.512-2.27,0-2.821-1.93-3.151-3.083-.133-.464-.247-.865-.407-.865Z"/>
        </g>
        <g>
          <path class="cls-6" d="M446.337,85.215c0,1.973,2.751,1.225,2.751,1.943,0,.359-.21.389-.568.389-.389,0-1.106-.119-3.11-.119-1.166,0-2.034.119-2.362.119-.27,0-.449-.06-.449-.328,0-.778,1.555-.3,1.555-2.124v-13.336c0-1.794-2.034-1.016-2.034-1.644,0-.18.12-.299.27-.329,2.302-.538,2.9-1.495,3.588-1.495.18,0,.358.18.358.478v1.734c1.824-1.705,3.289-1.973,4.097-1.973,3.529,0,5.352,2.781,5.352,6.07,0,2.75-1.734,7.086-6.369,7.086-1.077,0-2.124-.329-3.081-.807v4.336ZM446.337,78.247c0,1.615,1.854,2.721,3.888,2.721,2.75,0,3.916-2.631,3.916-4.994,0-2.72-1.375-6.04-4.545-6.04-3.049,0-3.288,2.302-3.259,2.363v5.95Z"/>
          <path class="cls-6" d="M448.52,87.605c-.121,0-.272-.011-.481-.026-.464-.035-1.24-.093-2.629-.093-.759,0-1.405.052-1.832.086-.231.019-.414.033-.53.033-.237,0-.509-.044-.509-.387,0-.345.277-.473.572-.608.438-.201.984-.451.984-1.516v-13.336c0-1.075-.748-1.18-1.349-1.263-.367-.052-.685-.096-.685-.381,0-.193.128-.349.318-.387,1.344-.314,2.093-.768,2.641-1.098.382-.231.658-.398.958-.398.206,0,.418.201.418.537v1.599c1.714-1.565,3.138-1.897,4.037-1.897,3.739,0,5.412,3.078,5.412,6.129,0,2.763-1.745,7.145-6.428,7.145-.956,0-1.972-.259-3.021-.771v4.241c0,1.18,1.012,1.343,1.826,1.474.517.083.925.148.925.469,0,.448-.334.448-.628.448ZM445.41,87.368c1.394,0,2.172.058,2.638.092.207.016.355.027.472.027.362,0,.509-.03.509-.33,0-.22-.364-.278-.825-.352-.812-.131-1.926-.309-1.926-1.591v-4.432l.086.043c1.062.531,2.09.801,3.054.801,4.597,0,6.309-4.311,6.309-7.027,0-2.992-1.636-6.011-5.293-6.011-.895,0-2.326.34-4.056,1.957l-.1.093v-1.87c0-.262-.152-.419-.299-.419-.266,0-.531.16-.897.381-.554.335-1.313.793-2.677,1.112-.137.028-.223.134-.223.271,0,.174.21.211.583.263.612.085,1.451.202,1.451,1.381v13.336c0,1.141-.609,1.42-1.053,1.624-.292.134-.502.23-.502.5,0,.198.102.269.39.269.111,0,.292-.015.521-.033.429-.034,1.077-.086,1.841-.086ZM450.225,81.028c-2.471,0-3.948-1.413-3.948-2.78v-5.95c-.009-.121.062-.579.365-1.062.39-.62,1.219-1.36,2.954-1.36,3.023,0,4.604,3.068,4.604,6.099,0,1.297-.332,2.509-.937,3.416-.714,1.071-1.765,1.637-3.039,1.637ZM449.596,69.994c-1.153,0-2.029.328-2.604.974-.524.588-.605,1.249-.597,1.316l.002,5.963c0,1.308,1.432,2.662,3.828,2.662,2.664,0,3.857-2.479,3.857-4.935,0-2.404-1.194-5.981-4.485-5.981Z"/>
        </g>
        <g>
          <path class="cls-6" d="M458.722,71.758c0-1.794-1.644-1.016-1.644-1.644,0-.18.119-.299.268-.329,1.914-.538,2.512-1.495,3.2-1.495.18,0,.359.18.359.478v10.734c0,1.525,2.362.867,2.362,1.645,0,.239-.18.329-.568.329-.628,0-1.554-.12-2.781-.12-.957,0-1.734.12-2.063.12-.239,0-.419-.03-.449-.329,0-.748,1.316.389,1.316-2.333v-7.057ZM461.054,63.954c0,.359-.867,1.555-1.257,1.555-.358,0-1.256-1.226-1.256-1.555s.897-1.585,1.256-1.585c.39,0,1.257,1.226,1.257,1.585Z"/>
          <path class="cls-6" d="M462.698,81.536c-.264,0-.579-.021-.946-.045-.5-.034-1.122-.075-1.835-.075-.601,0-1.133.048-1.523.083-.232.021-.416.037-.54.037-.237,0-.473-.029-.508-.382-.001-.311.197-.354.405-.4.384-.085.91-.201.91-1.938v-7.057c0-1.077-.6-1.181-1.083-1.264-.289-.05-.562-.097-.562-.38,0-.193.127-.349.317-.387,1.053-.296,1.714-.728,2.197-1.043.402-.263.692-.453,1.014-.453.206,0,.419.201.419.537v10.734c0,.84.757.978,1.424,1.101.482.088.938.171.938.545,0,.344-.336.388-.628.388ZM459.918,81.298c.717,0,1.341.042,1.843.075.364.024.678.045.938.045.422,0,.509-.108.509-.27,0-.275-.389-.346-.84-.428-.677-.124-1.522-.278-1.522-1.217v-10.734c0-.262-.153-.419-.3-.419-.286,0-.565.182-.95.433-.489.32-1.158.757-2.234,1.06-.138.028-.225.134-.225.272,0,.175.158.211.463.263.471.081,1.181.204,1.181,1.381v7.057c0,1.833-.604,1.966-1.003,2.054-.218.048-.313.077-.313.279.024.23.139.27.39.27.119,0,.3-.016.53-.037.391-.035.928-.083,1.533-.083ZM459.798,65.569c-.407,0-1.315-1.275-1.315-1.614,0-.345.909-1.644,1.315-1.644.43,0,1.316,1.266,1.316,1.644,0,.371-.886,1.614-1.316,1.614ZM459.798,62.429c-.308,0-1.196,1.207-1.196,1.526,0,.313.888,1.496,1.196,1.496.343,0,1.197-1.143,1.197-1.496,0-.343-.864-1.526-1.197-1.526Z"/>
        </g>
        <g>
          <path class="cls-6" d="M464.994,70.145c-1.405,0-1.614,0-1.614-.21,0-.239.747-.747,2.272-2.421.599-.718.897-1.376,1.137-1.376.419,0,.389.628.389,2.781h3.289c.747,0,1.076-.509,1.166-.509.149,0,.21.15.21.239,0,.12-.09.27-.18.419l-.599,1.077h-3.887v8.7c.06,1.226.897,1.795,2.093,1.795,1.585,0,2.033-.687,2.541-.687.119,0,.239.029.239.268,0,.449-1.615,1.466-3.708,1.466-1.375,0-3.349-.389-3.349-3.469v-8.072Z"/>
          <path class="cls-6" d="M468.343,81.745c-2.262,0-3.408-1.187-3.408-3.528v-8.014c-1.429,0-1.614-.003-1.614-.269,0-.15.188-.332.64-.771.368-.357.924-.896,1.648-1.69.234-.28.426-.557.579-.78.265-.384.426-.615.601-.615.288,0,.363.266.401.553.048.369.048.97.047,1.879v.349h3.23c.532,0,.841-.267,1.007-.41.073-.063.113-.098.158-.098.184,0,.27.178.27.298,0,.136-.095.295-.189.449l-.614,1.106h-3.862v8.641c.054,1.118.776,1.736,2.034,1.736.997,0,1.536-.276,1.929-.476.231-.118.413-.211.612-.211.128,0,.299.034.299.327,0,.515-1.706,1.525-3.768,1.525ZM466.789,66.197c-.113,0-.294.262-.503.564-.156.225-.349.505-.587.791-.728.798-1.286,1.339-1.654,1.697-.377.365-.604.586-.604.686,0,.147.221.151,1.554.151h.06v8.131c0,2.294,1.076,3.41,3.289,3.41,2.07,0,3.649-.999,3.649-1.407,0-.194-.077-.209-.18-.209-.17,0-.341.088-.558.198-.404.207-.958.489-1.983.489-1.311,0-2.096-.674-2.153-1.851v-8.762h3.912l.582-1.047c.085-.142.172-.286.172-.39,0-.056-.038-.18-.15-.18-.006.004-.046.039-.081.07-.165.143-.509.439-1.085.439h-3.349v-.467c.001-.904.002-1.502-.046-1.863-.049-.375-.145-.451-.283-.451Z"/>
        </g>
        <g>
          <path class="cls-6" d="M480.683,71.909c0-1.555-1.225-2.602-3.079-2.602-1.435,0-2.602.149-2.602,1.795,0,.448.18.896.18,1.225s-.09.568-.658.568c-.508,0-1.405-.448-1.405-.986.03-1.376,1.705-3.469,5.023-3.379,1.854,0,4.725.538,4.725,3.079v6.19c0,1.016-.27,2.781,1.286,2.781.119,0,.389-.06.508-.06.149,0,.389,0,.389.209,0,.628-1.315.748-1.734.748-1.166,0-1.943-.539-2.333-1.525-1.256,1.076-2.9,1.734-4.574,1.734-1.944,0-3.23-.718-3.23-2.841,0-1.585.509-3.468,7.505-4.634v-2.302ZM480.683,74.929c-1.914.418-5.561.896-5.561,3.527,0,1.705.867,2.363,2.452,2.363,1.077,0,3.11-.838,3.11-2.422v-3.468Z"/>
          <path class="cls-6" d="M476.408,81.745c-2.214,0-3.289-.948-3.289-2.9,0-1.657.582-3.522,7.505-4.684v-2.252c0-1.521-1.213-2.543-3.02-2.543-1.391,0-2.543.131-2.543,1.736,0,.235.049.468.099.693.042.193.081.374.081.532,0,.326-.088.627-.718.627-.501,0-1.464-.441-1.464-1.045.016-.681.41-1.454,1.055-2.068.934-.889,2.288-1.373,3.828-1.373.066,0,.134,0,.201.003,1.121,0,4.783.226,4.783,3.138v6.19c0,.125-.004.261-.009.404-.02.697-.046,1.564.387,2.011.2.206.477.307.848.307.055,0,.152-.015.245-.029.102-.016.199-.03.263-.03.145,0,.448,0,.448.268,0,.662-1.295.807-1.794.807-1.146,0-1.938-.5-2.356-1.486-1.288,1.079-2.942,1.695-4.551,1.695ZM477.604,69.248c1.878,0,3.139,1.069,3.139,2.661v2.352l-.049.008c-6.88,1.146-7.456,2.963-7.456,4.575,0,1.898,1.007,2.782,3.17,2.782,1.607,0,3.26-.627,4.536-1.72l.063-.054.03.077c.39.987,1.157,1.488,2.278,1.488.435,0,1.674-.127,1.674-.689,0-.126-.116-.15-.329-.15-.055,0-.152.015-.245.029-.102.016-.199.03-.263.03-.399,0-.712-.115-.933-.342-.468-.483-.441-1.378-.42-2.097.004-.142.008-.276.008-.4v-6.19c0-2.803-3.57-3.02-4.665-3.02-.066-.002-.133-.002-.199-.002-1.512,0-2.836.472-3.748,1.34-.623.594-1.004,1.335-1.017,1.984,0,.477.839.926,1.345.926.554,0,.599-.231.599-.509,0-.145-.038-.321-.077-.508-.048-.22-.102-.47-.102-.718,0-1.712,1.259-1.854,2.662-1.854ZM477.573,80.878c-1.713,0-2.511-.769-2.511-2.422,0-2.438,3.033-3.057,5.041-3.467.201-.041.391-.08.567-.118l.072-.016v3.542c0,1.63-2.063,2.481-3.169,2.481ZM480.623,75.002c-.156.033-.322.067-.496.103-1.97.403-4.946,1.01-4.946,3.351,0,1.593.738,2.304,2.392,2.304,1.065,0,3.05-.812,3.05-2.363v-3.394Z"/>
        </g>
        <g>
          <path class="cls-6" d="M490,79.055c0,2.063,2.482,1.196,2.482,2.004,0,.358-.239.419-.688.419-.418,0-1.345-.12-2.75-.12-1.466,0-2.034.12-2.333.12-.239,0-.358-.12-.358-.39,0-.448,1.464-.358,1.464-1.644v-16.894c0-1.795-2.033-1.016-2.033-1.644,0-.18.119-.3.268-.329,2.302-.539,2.901-1.496,3.588-1.496.18,0,.359.18.359.478v19.496Z"/>
          <path class="cls-6" d="M491.793,81.536c-.149,0-.364-.015-.636-.034-.51-.036-1.207-.086-2.115-.086-1.007,0-1.598.058-1.951.093-.166.016-.286.028-.382.028-.277,0-.418-.151-.418-.449,0-.204.228-.308.491-.428.433-.198.974-.445.974-1.216v-16.894c0-1.076-.747-1.18-1.348-1.264-.367-.051-.685-.095-.685-.38,0-.195.127-.35.317-.387,1.344-.314,2.094-.768,2.641-1.098.383-.231.659-.398.958-.398.206,0,.419.201.419.537v19.496c0,1.219.894,1.372,1.613,1.494.466.08.869.149.869.509,0,.441-.354.478-.748.478ZM489.043,81.298c.911,0,1.612.049,2.124.086.268.019.482.034.627.034.489,0,.629-.081.629-.36,0-.248-.292-.311-.77-.393-.722-.123-1.712-.292-1.712-1.611v-19.496c0-.262-.153-.419-.3-.419-.266,0-.53.16-.896.381-.555.335-1.314.794-2.678,1.114-.136.026-.222.133-.222.271,0,.174.21.211.582.263.612.085,1.451.202,1.451,1.381v16.894c0,.847-.603,1.122-1.043,1.324-.236.107-.421.193-.421.321,0,.232.089.331.299.331.09,0,.208-.012.371-.028.355-.035.949-.093,1.962-.093Z"/>
        </g>
      </g>
    </g>
  </g>
</svg>