<svg id="artwork" xmlns="http://www.w3.org/2000/svg" viewBox="0 0 216.1 105.73"><defs><style>.cls-1{fill:#bc4700;}.cls-2{fill:#d65f00;}.cls-3{fill:#fff;}.cls-4{fill:#fbceb0;}.cls-5{fill:#231f20;}.cls-6{fill:none;stroke:#bc4700;}.cls-7{fill:#7a6569;}</style></defs><g id="_PMS_" data-name="&lt;PMS&gt;"><g id="_Shield_" data-name="&lt;Shield&gt;"><path class="cls-1" d="M.05,20.52H50.37V12.85h-6.3V10.37H42.58a11.9,11.9,0,0,1-5.71-1.32C34.45,7.61,34,6.25,34,6.25v-2H30.76a5.46,5.46,0,0,0-10.65,0H16.82v2s-.46,1.37-2.88,2.8a11.88,11.88,0,0,1-5.71,1.32H6.3v2.48H0V20.5"/><path class="cls-1" d="M0,37.05A47.37,47.37,0,0,0,1.57,48,34.83,34.83,0,0,0,11.69,65.27,67.85,67.85,0,0,0,24.9,74.33a.67.67,0,0,0,.55,0,90.28,90.28,0,0,0,9.42-5.93A35.09,35.09,0,0,0,48.12,50.05a55.06,55.06,0,0,0,2.26-16.28c0-2.89,0-7.93,0-10.82H0c0,4,0,10.12,0,14.1m21.5,3.41L25.2,29.19l3.66,11.27H40.71l-9.59,7,3.66,11.27-9.58-7-9.58,7,3.66-11.26-9.59-7Z"/><path class="cls-2" d="M25.34,20.53,25.49,0a5.46,5.46,0,0,0-5.33,4.25H16.87v2S16.41,7.65,14,9.08A11.88,11.88,0,0,1,8.28,10.4H6.35v2.48H.05v7.64Z"/><path class="cls-2" d="M25.23,51.74l-9.58,7,3.66-11.26-9.58-7H21.57l3.66-11.27,0-6.24H.05c0,4,0,10.12,0,14.1A46.84,46.84,0,0,0,1.61,48,34.74,34.74,0,0,0,11.72,65.29a68.46,68.46,0,0,0,13.21,9.06.33.33,0,0,0,.26,0Z"/><polygon class="cls-3" points="40.74 40.46 28.89 40.46 25.23 29.19 21.57 40.46 9.73 40.46 19.31 47.42 15.65 58.69 25.23 51.72 34.82 58.69 31.16 47.42 40.74 40.46"/><polygon class="cls-4" points="25.23 29.19 28.89 40.46 40.74 40.46 31.16 47.42 34.82 58.69 25.23 51.72 25.23 29.19"/></g><path class="cls-5" d="M31.58,71.77a1.27,1.27,0,0,1,.62.16,1.16,1.16,0,0,1,.47.46,1.35,1.35,0,0,1,.17.63,1.29,1.29,0,0,1-.17.63,1.16,1.16,0,0,1-.46.47,1.32,1.32,0,0,1-1.26,0,1.16,1.16,0,0,1-.46-.47,1.29,1.29,0,0,1-.17-.63,1.35,1.35,0,0,1,.17-.63,1.16,1.16,0,0,1,.47-.46A1.27,1.27,0,0,1,31.58,71.77Zm0,.2a1.1,1.1,0,0,0-.52.14,1,1,0,0,0-.39.39,1.05,1.05,0,0,0,0,1,1,1,0,0,0,.39.38,1,1,0,0,0,.52.14,1,1,0,0,0,.52-.14,1,1,0,0,0,.39-.38,1.05,1.05,0,0,0,0-1,1,1,0,0,0-.39-.39A1.1,1.1,0,0,0,31.58,72ZM31,73.72V72.37h.46a1.44,1.44,0,0,1,.35,0,.37.37,0,0,1,.17.13.39.39,0,0,1,.06.2A.35.35,0,0,1,32,73a.4.4,0,0,1-.28.12l.11.08a1.31,1.31,0,0,1,.2.26l.17.27H31.9l-.12-.21a1.13,1.13,0,0,0-.23-.32.29.29,0,0,0-.17,0h-.13v.58Zm.22-.76h.26a.39.39,0,0,0,.26-.06.18.18,0,0,0,.07-.15.23.23,0,0,0,0-.11.26.26,0,0,0-.1-.07l-.21,0h-.25Z"/><path class="cls-5" d="M80.36,44.73c1.4-1.89,2.11-4.61,2.11-8.1V27.17A10.16,10.16,0,0,1,82.8,24a2.42,2.42,0,0,1,1.45-1.27c.31-.14.47-.32.47-.56a.43.43,0,0,0-.48-.46l-.85.06c-.33,0-1.21.05-2.62.05a10.58,10.58,0,0,1-1.71-.11,10.52,10.52,0,0,0-1.24-.15.48.48,0,0,0-.37.11.54.54,0,0,0-.14.4c0,.21.12.48.67.53a2.81,2.81,0,0,1,2.24,1.18,6.61,6.61,0,0,1,.67,3.4V37c0,3.3-.75,5.8-2.23,7.43s-3.73,2.45-6.72,2.45c-3.33,0-5.74-1-7.15-2.92-1-1.38-1.51-3.72-1.51-7V27.41l0-1.25a6.08,6.08,0,0,1,.36-2.52,2,2,0,0,1,1.4-.9c.47-.08.71-.28.71-.58s-.07-.42-.56-.42l-1,.05c-.56.06-.91.08-1.06.08H61.65l-1.47,0c-.27,0-.7,0-1.28-.06l-1.32,0c-.7,0-.85.31-.85.57s.11.44.62.52a3.21,3.21,0,0,1,2.19,1,5.07,5.07,0,0,1,.54,2.75l0,1.09V37.4a13.61,13.61,0,0,0,1.38,6.53,8.41,8.41,0,0,0,3.85,3.47,14,14,0,0,0,11.2.21,9.21,9.21,0,0,0,3.82-2.88"/><path class="cls-5" d="M95.65,24.08c.59,0,.78.1.84.16s.16.24.16.8l0,.49v19a3.44,3.44,0,0,1-.49,2.15,2.91,2.91,0,0,1-1.9.77c-.49.06-.74.23-.74.5s.09.53.69.53c.14,0,.56,0,1.3-.12.36,0,.82,0,1.35,0l1.49,0,1.4,0c.9,0,1.47,0,1.7,0a7.57,7.57,0,0,0,1,.12c.57,0,.66-.34.66-.53s-.26-.47-.77-.55a2.52,2.52,0,0,1-2.4-2.55l0-.74V25.32c0-.74.11-1,.18-1.05s.29-.19,1-.19h5.37a3.79,3.79,0,0,1,2.08.39h0a2.71,2.71,0,0,1,.76,1.69c.09.48.27.71.59.69s.53-.16.51-.74c0-.19-.05-.51-.12-.94a10.35,10.35,0,0,1-.09-1.62c0-1.05-.15-1.32-.25-1.43s-.61-.27-1.36-.27H88a1.11,1.11,0,0,0-1,.33,2.23,2.23,0,0,0-.23,1.22,11.21,11.21,0,0,1-.28,2.24,8.14,8.14,0,0,0-.23,1.49c0,.54.28.63.46.64.45,0,.59-.61.64-.82a4.25,4.25,0,0,1,1-2.28,3.24,3.24,0,0,1,2.16-.59Z"/><path class="cls-5" d="M139.62,48.35a8.31,8.31,0,0,1,.9-.05l1.43,0,1.42,0a15,15,0,0,1,1.89.07c.83.13,1.33.16,1.55-.08a.53.53,0,0,0,.12-.4c0-.26-.26-.43-.72-.49a2.9,2.9,0,0,1-2.11-.9,4.94,4.94,0,0,1-.55-2.76V25.24a3.44,3.44,0,0,1,.38-1.63,1.39,1.39,0,0,1,.92-.79l.78-.17c.46-.1.55-.34.55-.51s-.07-.5-.58-.5a6.52,6.52,0,0,0-.72.08,25.61,25.61,0,0,1-2.85.11,24.81,24.81,0,0,1-2.66-.13c-.6-.06-1-.1-1.31-.1-.5,0-.59.27-.6.43s.09.47.65.58a2.68,2.68,0,0,1,1.78,1.07,5.53,5.53,0,0,1,.49,2.74V33c0,.31-.06.51-.18.59a2.11,2.11,0,0,1-1,.13H127.93c-1,0-1.27-.12-1.32-.18h0c-.07-.06-.19-.31-.19-1.21V25.44a3.42,3.42,0,0,1,.42-2,2.86,2.86,0,0,1,1.65-.88c.41-.1.61-.29.61-.55s-.09-.51-.68-.51a6,6,0,0,0-.81.07,20,20,0,0,1-2.53.15,29.41,29.41,0,0,1-3.48-.17c-.52-.06-.91-.1-1.16-.11a.65.65,0,0,0-.49.14.45.45,0,0,0-.13.35c0,.21.11.46.65.53a3.53,3.53,0,0,1,2.19,1,3.68,3.68,0,0,1,.6,2.33V42.24A15.66,15.66,0,0,1,123,46a1.49,1.49,0,0,1-1.06,1.18l-1,.23c-.49.11-.59.37-.59.56s.08.48.6.48c.14,0,.54,0,1.22-.09.48,0,.88-.06,1.19-.06l1.26,0,1.61,0a17.86,17.86,0,0,1,2.27.08,9,9,0,0,0,1,.09.75.75,0,0,0,.56-.18.43.43,0,0,0,.11-.34c0-.34-.3-.54-.83-.6a3.23,3.23,0,0,1-2.27-.95,4.54,4.54,0,0,1-.61-2.71v-7c0-.69.13-.94.23-1s.41-.19,1.28-.19h11.25c.86,0,1,.09,1.07.12s.13.18.13,1v7l0,.75c0,1.9-.62,2.93-1.9,3.15-.49.08-.74.26-.76.55a.52.52,0,0,0,.12.36.61.61,0,0,0,.42.14h0l1.34-.1"/><path class="cls-5" d="M196,46.14l-.17,0-1,.48a4.09,4.09,0,0,1-1.91.41,2.85,2.85,0,0,1-2.15-.79,3.66,3.66,0,0,1-.5-2.34V34.46h4.41a.94.94,0,0,0,.95-.64l.44-1.09a1.59,1.59,0,0,0,.18-.52.33.33,0,0,0-.09-.29.27.27,0,0,0-.24-.05,1.07,1.07,0,0,0-.47.25,2.31,2.31,0,0,1-1.23.28h-3.95l.08-3.18c0-.51-.22-.62-.39-.62s-.35.11-.83.9a17,17,0,0,1-3.4,3.77q-.54.45-.54.78c0,.19.11.41.62.41h1.58V44c0,3.12,1.52,4.7,4.52,4.7a6.71,6.71,0,0,0,2.86-.74c1.06-.52,1.58-1,1.58-1.47a.32.32,0,0,0-.35-.33"/><path class="cls-5" d="M153.31,33A3.82,3.82,0,0,1,156,34.21a3.75,3.75,0,0,1,1.26,2.69c0,.4-.76.49-1.39.49h-6.34a6.13,6.13,0,0,1,1.24-3.21h0A3.15,3.15,0,0,1,153.31,33m7,11.6a.8.8,0,0,0-.34.16,7.61,7.61,0,0,1-4.46,1.85,5.43,5.43,0,0,1-4.36-2.18A8.37,8.37,0,0,1,149.4,39v-.31h7.12l1.3,0,1.42,0c.91,0,1.37-.25,1.37-.75a4.83,4.83,0,0,0-.49-1.6,10.17,10.17,0,0,0-.95-1.78A6.11,6.11,0,0,0,154,31.9a6.76,6.76,0,0,0-5.2,2.54,8.73,8.73,0,0,0-2.21,5.89,8.64,8.64,0,0,0,2.15,5.94A6.85,6.85,0,0,0,154,48.68a8.57,8.57,0,0,0,5.33-2c.93-.73,1.38-1.29,1.38-1.71a.44.44,0,0,0-.12-.34.42.42,0,0,0-.29-.09"/><path class="cls-5" d="M184.92,47.23c-1.25-.21-2-.61-2.28-1.21a6.3,6.3,0,0,1-.35-2.36V21.23l0-.59h0c0-.48-.06-.76-.2-.89a.31.31,0,0,0-.19-.08.85.85,0,0,0-.48.18,8.74,8.74,0,0,1-1.83.9l-1.17.48a7.86,7.86,0,0,1-1.18.36c-.39.11-.58.28-.58.53a.45.45,0,0,0,.31.43,1.31,1.31,0,0,0,.37,0h0l.95,0c.74,0,1.1.54,1.1,1.64V45.38a2.22,2.22,0,0,1-.27,1.26,2,2,0,0,1-1.09.61c-.43.12-.65.32-.63.59s.11.49.64.49a7.21,7.21,0,0,0,.74-.09c.28,0,1-.06,2.23-.06l2.66,0a4.24,4.24,0,0,1,.84.06,2.75,2.75,0,0,0,.52.08.51.51,0,0,0,.4-.15.56.56,0,0,0,.13-.41q0-.41-.66-.51"/><path class="cls-5" d="M166.76,41.86a9.59,9.59,0,0,1,4.39-1.31V44.2a2.78,2.78,0,0,1-.63,2,3.58,3.58,0,0,1-2.59,1,2.54,2.54,0,0,1-2.73-2.73,3.09,3.09,0,0,1,1.56-2.64M176.7,47a2.39,2.39,0,0,0-.48.09,2.51,2.51,0,0,1-.44,0,1.39,1.39,0,0,1-1.33-.7,5.24,5.24,0,0,1-.42-2.46V36.43a4.06,4.06,0,0,0-1.48-3.34,6.37,6.37,0,0,0-4.11-1.19,6.08,6.08,0,0,0-4.65,1.89,4,4,0,0,0-1.31,2.63c0,.35.26.67.79.95a3.62,3.62,0,0,0,1.68.4.54.54,0,0,0,.4-.14.45.45,0,0,0,.1-.34,2.41,2.41,0,0,0-.14-.63,5,5,0,0,1-.24-1.4c0-1.35.78-2,2.4-2a3.86,3.86,0,0,1,2.89,1.1,4.16,4.16,0,0,1,.79,2.93v2.26a19.53,19.53,0,0,0-6.71,1.94A3.91,3.91,0,0,0,162.38,45a3.46,3.46,0,0,0,1.1,2.68,4.2,4.2,0,0,0,2.93,1,8.75,8.75,0,0,0,5.1-2,3.55,3.55,0,0,0,2.87,1.89,4.78,4.78,0,0,0,1.77-.36c.65-.26,1-.51,1-.8a.37.37,0,0,0-.1-.3.41.41,0,0,0-.33-.1"/><path class="cls-5" d="M215.48,47.44a3.45,3.45,0,0,1-1.95-.74,3,3,0,0,1-.45-1.91V38.73a7.1,7.1,0,0,0-1.7-4.93,5.72,5.72,0,0,0-4.45-1.9,6.91,6.91,0,0,0-5.24,2.83V22c0-.42,0-.74,0-1s0-.38,0-.47c0-.47-.28-.54-.45-.54a1.09,1.09,0,0,0-.46.12l-1.49.71a13.26,13.26,0,0,1-2.67,1c-.35.09-.53.26-.53.51a.39.39,0,0,0,.2.36.67.67,0,0,0,.33.07h0l1,0a.82.82,0,0,1,.65.21,2.72,2.72,0,0,1,.5,1.94v19.9a4.76,4.76,0,0,1-.24,2,2.35,2.35,0,0,1-1.32.72c-.45.13-.54.4-.52.59s.1.42.6.42l.89-.05c.94-.07,1.68-.11,2.19-.11,1.47,0,2.45,0,2.9.07s.92.09,1.07.09c.47,0,.54-.28.54-.44,0-.32-.25-.52-.76-.59a3.28,3.28,0,0,1-2.06-.76,4.7,4.7,0,0,1-.41-2.45V36.84a2.73,2.73,0,0,1,1.25-2.15,4.52,4.52,0,0,1,2.82-1A4.11,4.11,0,0,1,209,35.09a5.55,5.55,0,0,1,1.21,3.76v6.33l0,.59a1.88,1.88,0,0,1-.2,1.08,2.92,2.92,0,0,1-1.16.62c-.32.12-.47.3-.46.51s.11.47.66.47l.61-.05a20.93,20.93,0,0,1,2.47-.1c.67,0,1.48,0,2.41.09.48,0,.79.06,1,.06.56,0,.64-.29.64-.47s-.11-.46-.62-.54"/><path class="cls-5" d="M64.59,63.29a23.52,23.52,0,0,1-2.22-.81,2.36,2.36,0,0,1-.81-.69,2.1,2.1,0,0,1-.43-1.33A1.84,1.84,0,0,1,61.79,59a2.42,2.42,0,0,1,1.64-.58,4.17,4.17,0,0,1,2.27.65A3.12,3.12,0,0,1,67,60.73c.11.33.22.48.35.48s.25-.06.25-.34c0,0,0-.17,0-.39l-.15-1q-.12-.78-.12-.93a.62.62,0,0,0-.12-.45.2.2,0,0,0-.15-.06.21.21,0,0,0-.15.05l-.13.11a.29.29,0,0,1-.34,0L65.79,58a4.56,4.56,0,0,0-1.71-.29,4.35,4.35,0,0,0-2.92,1A3.12,3.12,0,0,0,60,61.19a3,3,0,0,0,.87,2.23,7.94,7.94,0,0,0,3,1.56,9.53,9.53,0,0,1,2.4,1,2.19,2.19,0,0,1,.8,1.71,2.29,2.29,0,0,1-.87,1.8,3.18,3.18,0,0,1-2.14.75,3.85,3.85,0,0,1-2.31-.78,3.5,3.5,0,0,1-1.39-1.92c-.1-.32-.21-.48-.35-.49a.21.21,0,0,0-.16.05.35.35,0,0,0-.08.27,5.08,5.08,0,0,0,.24,1.2c.14.52.22.8.23.85a5.44,5.44,0,0,0,.17.66.72.72,0,0,0,.24.26,4.3,4.3,0,0,0,1.28.48,7.42,7.42,0,0,0,1.59.2,4.81,4.81,0,0,0,3.29-1.12A3.66,3.66,0,0,0,68.06,67c0-1.73-1.17-3-3.47-3.75"/><path class="cls-5" d="M71.45,67.72a4.76,4.76,0,0,1,2.16-.64v1.79a1.34,1.34,0,0,1-.31,1,1.77,1.77,0,0,1-1.27.5A1.24,1.24,0,0,1,70.69,69a1.53,1.53,0,0,1,.76-1.3m4.86,2.51a1,1,0,0,0-.23,0h-.22a.69.69,0,0,1-.66-.34,2.53,2.53,0,0,1-.2-1.21V65.08a2,2,0,0,0-.72-1.62,3.13,3.13,0,0,0-2-.58A2.93,2.93,0,0,0,70,63.8a1.93,1.93,0,0,0-.64,1.28c0,.16.13.32.38.45a1.74,1.74,0,0,0,.82.19.24.24,0,0,0,.18-.06.21.21,0,0,0,0-.16,1.28,1.28,0,0,0-.07-.3,2.38,2.38,0,0,1-.12-.69c0-.67.39-1,1.19-1a1.9,1.9,0,0,1,1.42.54,2.11,2.11,0,0,1,.38,1.44v1.11a9.53,9.53,0,0,0-3.28,1,1.9,1.9,0,0,0-1,1.7,1.66,1.66,0,0,0,.54,1.3,2,2,0,0,0,1.42.48,4.25,4.25,0,0,0,2.49-1,1.72,1.72,0,0,0,1.4.93,2.33,2.33,0,0,0,.86-.18c.31-.12.46-.24.47-.38a.14.14,0,0,0-.05-.13.15.15,0,0,0-.15,0"/><path class="cls-5" d="M86.47,70.4l-.39-.06a.77.77,0,0,1-.74-.67l0-.45V66.71a4.49,4.49,0,0,0-.6-2.58,2.81,2.81,0,0,0-2.4-1.25,3.47,3.47,0,0,0-2.55,1.4v-.92c0-.14,0-.25,0-.35a.35.35,0,0,0-.06-.27c-.07-.08-.21-.07-.38,0l-.36.17-.5.25a5,5,0,0,1-1.19.37c-.19,0-.28.12-.28.23a.18.18,0,0,0,.11.18.34.34,0,0,0,.17,0h.4a.64.64,0,0,1,.56.21,1.72,1.72,0,0,1,.15.87V69.3a1.31,1.31,0,0,1-.16.75,1.18,1.18,0,0,1-.61.4c-.13,0-.2.12-.21.22a.24.24,0,0,0,0,.15.24.24,0,0,0,.18.06l.38,0c.19,0,.78,0,1.76,0,.47,0,.76,0,.87,0a2.79,2.79,0,0,0,.48.06c.23,0,.27-.14.27-.22s-.12-.23-.36-.25c-.81,0-1.22-.32-1.25-.82l0-.74V65.29a1.26,1.26,0,0,1,.59-1,2.15,2.15,0,0,1,1.35-.45,2.09,2.09,0,0,1,1.66.68,3,3,0,0,1,.59,2V69.7c0,.36-.12.57-.34.62l-.28.08a.22.22,0,0,0-.2.23c0,.11,0,.16.08.18l.16,0,.27,0H84l.92,0c.55,0,.93,0,1.13,0a2.44,2.44,0,0,0,.37,0,.41.41,0,0,0,.3-.09.21.21,0,0,0,0-.17c0-.12-.11-.2-.3-.22"/><path class="cls-5" d="M141.92,70.42l-.43,0a.77.77,0,0,1-.57-.27,1.79,1.79,0,0,1-.14-.86V63c0-.21-.09-.27-.16-.27h0l-.51.24a10.84,10.84,0,0,1-1.32.59c-.34.11-.5.2-.51.32a.15.15,0,0,0,0,.11.5.5,0,0,0,.35.08c.31,0,.52.07.61.21a2.24,2.24,0,0,1,.14,1v4.06a2.1,2.1,0,0,1-.11.79.62.62,0,0,1-.39.33l-.18.06a.25.25,0,0,0-.2.24c0,.1,0,.22.3.22l.35,0,.28,0,.68,0h.6l.65,0c.3,0,.5,0,.61,0s.3-.1.3-.2-.11-.25-.37-.28"/><path class="cls-5" d="M137.34,70.4l-.39-.06a.78.78,0,0,1-.75-.67l0-.45V66.71a4.48,4.48,0,0,0-.61-2.58,2.79,2.79,0,0,0-2.4-1.25,3.45,3.45,0,0,0-2.54,1.4v-.92c0-.14,0-.25,0-.35a.35.35,0,0,0-.06-.27c-.08-.08-.22-.07-.39,0l-.36.17-.49.25a5,5,0,0,1-1.19.37c-.19,0-.28.12-.28.23a.17.17,0,0,0,.1.18.35.35,0,0,0,.18,0h.4a.62.62,0,0,1,.55.21,1.72,1.72,0,0,1,.15.87V69.3a1.41,1.41,0,0,1-.15.75,1.17,1.17,0,0,1-.62.4c-.13,0-.2.13-.2.22a.19.19,0,0,0,0,.15.22.22,0,0,0,.17.06l.38,0c.19,0,.79,0,1.77,0,.47,0,.75,0,.86,0a3,3,0,0,0,.49.06c.23,0,.26-.14.26-.22s-.12-.23-.35-.25c-.81,0-1.22-.32-1.25-.82l0-.74V65.29a1.27,1.27,0,0,1,.58-1,2.17,2.17,0,0,1,1.35-.45,2.06,2.06,0,0,1,1.66.68,3,3,0,0,1,.59,2V69.7c0,.36-.11.57-.34.62l-.27.08c-.17,0-.21.14-.21.23a.18.18,0,0,0,.09.18l.15,0,.27,0h.36l.92,0c.54,0,.92,0,1.13,0a2.34,2.34,0,0,0,.36,0,.38.38,0,0,0,.3-.09.25.25,0,0,0,.06-.17c0-.12-.11-.2-.3-.22"/><path class="cls-5" d="M125.66,67.45a3.6,3.6,0,0,1-.66,2.28,2.15,2.15,0,0,1-1.78.83,2.63,2.63,0,0,1-2.17-1.18,4.87,4.87,0,0,1-.88-2.95,3.42,3.42,0,0,1,.7-2.23,2.28,2.28,0,0,1,1.84-.85,2.54,2.54,0,0,1,2.12,1.14,5,5,0,0,1,.83,3M123,62.88a4.12,4.12,0,0,0-3,1.2,4.17,4.17,0,0,0-.08,5.83A4.07,4.07,0,0,0,122.85,71a4.2,4.2,0,0,0,3-1.16,4,4,0,0,0,1.2-3,3.87,3.87,0,0,0-1.22-2.85A4,4,0,0,0,123,62.88"/><path class="cls-5" d="M140.15,59c-.14,0-.33.13-.57.4a1.17,1.17,0,0,0-.35.64,1.2,1.2,0,0,0,.32.62c.22.26.39.39.53.39s.34-.13.57-.4a1.11,1.11,0,0,0,.33-.63.5.5,0,0,0-.1-.26l-.23-.36c-.17-.27-.33-.4-.5-.4"/><path class="cls-5" d="M97.85,64.77q0,.18-.42.18H94.37c-.38,0-.38-.14-.38-.19a.93.93,0,0,1,.11-.33l1.82-4c.06-.14.1-.15.1-.15s.12,0,.2.28l1.54,3.88,0,.17h0a.92.92,0,0,1,0,.2m5.06,5.62a2.5,2.5,0,0,1-1.15-.42,4.55,4.55,0,0,1-.72-1.39l-.2-.5-4-10.27c-.08-.21-.18-.31-.3-.31s-.22.11-.31.31l-4.8,10.65-.27.61a4,4,0,0,1-.51.82c-.26.32-.4.41-.48.43l-.35.11a.24.24,0,0,0-.19.24c0,.09,0,.22.3.22l.53,0h.41l1,0,.89.05h.32a.38.38,0,0,0,.27-.07.2.2,0,0,0,0-.13c0-.14-.12-.22-.33-.27a2,2,0,0,1-.84-.32.79.79,0,0,1-.2-.6,4,4,0,0,1,.41-1.38l.61-1.37a2,2,0,0,1,.43-.73,1.78,1.78,0,0,1,.83-.1H97.7c.43,0,.56,0,.6.07s.13.15.29.57l.47,1.23a7.26,7.26,0,0,1,.56,2,.52.52,0,0,1-.43.59l-.28.07c-.23,0-.27.15-.27.24s0,.23.29.23l.29,0a12.58,12.58,0,0,1,1.62-.06c.82,0,1.4,0,1.72,0l.36,0c.24,0,.3-.11.31-.2s-.1-.24-.32-.28"/><path class="cls-5" d="M149.68,67.45a3.66,3.66,0,0,1-.65,2.28,2.18,2.18,0,0,1-1.79.83,2.63,2.63,0,0,1-2.17-1.18,4.87,4.87,0,0,1-.88-2.95,3.42,3.42,0,0,1,.7-2.23,2.31,2.31,0,0,1,1.84-.85,2.53,2.53,0,0,1,2.12,1.14,5,5,0,0,1,.83,3M147,62.88a4.12,4.12,0,0,0-3,1.2A4,4,0,0,0,142.77,67a3.92,3.92,0,0,0,1.16,2.91A4.07,4.07,0,0,0,146.88,71a4.17,4.17,0,0,0,3-1.16,4,4,0,0,0,1.2-3,3.87,3.87,0,0,0-1.22-2.85A4,4,0,0,0,147,62.88"/><path class="cls-5" d="M112.59,70.4l-.4-.06a.78.78,0,0,1-.74-.67l0-.45V66.71a4.49,4.49,0,0,0-.6-2.58,2.8,2.8,0,0,0-2.4-1.25,3.45,3.45,0,0,0-2.54,1.4v-.92c0-.14,0-.25,0-.35a.4.4,0,0,0-.06-.27c-.08-.08-.22-.07-.39,0l-.36.17-.49.25a4.92,4.92,0,0,1-1.2.37c-.18,0-.28.12-.28.23a.18.18,0,0,0,.11.18.35.35,0,0,0,.18,0h.4a.62.62,0,0,1,.55.21,1.72,1.72,0,0,1,.15.87V69.3a1.41,1.41,0,0,1-.15.75,1.17,1.17,0,0,1-.62.4.29.29,0,0,0-.21.22.25.25,0,0,0,0,.15.22.22,0,0,0,.17.06l.38,0c.19,0,.78,0,1.76,0,.47,0,.76,0,.87,0a2.88,2.88,0,0,0,.49.06c.22,0,.26-.14.26-.22s-.12-.23-.35-.25c-.82,0-1.23-.32-1.25-.82l0-.74V65.29a1.24,1.24,0,0,1,.58-1,2.17,2.17,0,0,1,1.35-.45,2.06,2.06,0,0,1,1.66.68,3,3,0,0,1,.59,2V69.7c0,.36-.11.57-.34.62l-.28.08a.22.22,0,0,0-.2.23.18.18,0,0,0,.09.18l.15,0,.27,0h.36l.92,0c.54,0,.92,0,1.12,0a2.44,2.44,0,0,0,.37,0,.38.38,0,0,0,.3-.09.25.25,0,0,0,.06-.17c0-.12-.11-.2-.3-.22"/><path class="cls-5" d="M118.45,69.83l-.07,0-.49.24a2,2,0,0,1-.94.2,1.36,1.36,0,0,1-1-.39,1.76,1.76,0,0,1-.25-1.15V64.11h2.16a.44.44,0,0,0,.45-.3l.22-.54a.75.75,0,0,0,.09-.25.17.17,0,0,0,0-.13.2.2,0,0,0-.11,0,.63.63,0,0,0-.23.12,1,1,0,0,1-.6.15h-1.94l0-1.57c0-.24-.1-.29-.18-.29s-.17,0-.4.43a8.36,8.36,0,0,1-1.66,1.85c-.17.14-.26.27-.26.37s0,.19.29.19h.78v4.65a2,2,0,0,0,2.2,2.28,3.26,3.26,0,0,0,1.39-.36c.51-.25.76-.48.76-.7a.14.14,0,0,0-.16-.15"/><line class="cls-6" x1="60.09" y1="78.12" x2="213.02" y2="78.12"/><g id="_UTHSCSA_" data-name="&lt;UTHSCSA&gt;"><path class="cls-7" d="M63.16,87.23c0-.07,0-.47-.11-.48H61.34c-.65,0-.67.16-.86.73,0,.11,0,.25-.18.25s-.11-.08-.11-.13l.12-1c0-.13,0-.41.19-.41.82,0,1.63,0,3,0,1.9,0,2.87,0,3.08,0s.29.06.3.31l0,.84c0,.1,0,.23-.11.23-.39,0,.18-.8-.89-.8H64.4c-.47,0-.42,0-.42.51v5.36c0,.88.86.53.86.86,0,0,0,.12-.1.12s-.55,0-.85,0c-1.18,0-1.38,0-1.44,0s-.12,0-.12-.13c0-.25.83-.15.83-.78Z"/><path class="cls-7" d="M64.74,93.65l-.39,0-.46,0c-1,0-1.26,0-1.38,0h-.06c-.12,0-.17-.05-.17-.18s.14-.19.31-.25.52-.18.52-.53V87.18c0-.34,0-.38-.06-.38H61.34c-.59,0-.62.11-.79.63l0,.07s0,0,0,0-.06.22-.21.22a.16.16,0,0,1-.15-.17l.11-1v0c0-.14,0-.41.24-.41l1.12,0,1.86,0c1.43,0,2.34,0,2.77,0h.31c.26,0,.34.08.35.35l0,.84a.29.29,0,0,1,0,.24.15.15,0,0,1-.12,0c-.19,0-.21-.16-.22-.3s0-.5-.67-.5h-1.6a.69.69,0,0,0-.25,0s0,.13,0,.29v5.51c0,.51.29.57.54.63s.31.06.31.23a.13.13,0,0,1,0,.13A.14.14,0,0,1,64.74,93.65Zm-.85-.14.47,0,.38,0h0a.08.08,0,0,0,0-.06c0-.09-.07-.11-.24-.15a.65.65,0,0,1-.62-.72V87.11c0-.2,0-.3.06-.36s.14-.06.32,0h1.6c.71,0,.74.35.77.59s0,.21.12.21,0,0,0,0,0-.1,0-.16l0-.84c0-.22,0-.26-.25-.26h-.3c-.44,0-1.35,0-2.78,0l-1.87,0-1.11,0c-.11,0-.13.16-.14.31v0l-.12,1s0,.08.06.08.09-.05.12-.16,0,0,0,0l0-.07c.17-.53.23-.7.89-.7h1.71c.18,0,.16.33.16.49v5.5c0,.42-.34.54-.59.63s-.24.09-.24.15,0,.08.07.08h0C62.62,93.54,62.93,93.51,63.89,93.51Z"/><path class="cls-7" d="M68.67,89.8a2.32,2.32,0,0,1,1.51-.74c1.35,0,1.76,1.16,1.76,2.07v1.75c0,.55.84.33.84.59,0,.11-.1.13-.21.13s-.49,0-.89,0-.74,0-.86,0-.16,0-.16-.11.51-.16.51-.54V91c0-1.3-.9-1.54-1.27-1.54s-1.23.41-1.23.94v2.22c0,.9.92.61.92.81s0,.14-.17.14-.75,0-1.07,0-.79,0-1,0a.09.09,0,0,1-.1-.1c0-.21.61-.1.61-.61V87c0-.63-.8-.36-.8-.58a.1.1,0,0,1,.08-.11c.77-.15,1.12-.53,1.37-.53.06,0,.12.06.12.17Z"/><path class="cls-7" d="M72.57,93.65h-.29c-.16,0-.36,0-.6,0s-.49,0-.66,0h-.2c-.18,0-.21-.09-.21-.16s.09-.14.2-.19.31-.15.31-.35V91c0-1.47-1.17-1.49-1.22-1.49-.47,0-1.18.4-1.18.89v2.22c0,.57.38.62.66.66s.26,0,.26.15-.11.19-.22.19H69l-.63,0-.62,0h-.34a.14.14,0,0,1-.15-.15c0-.12.11-.16.24-.2s.37-.13.37-.41V87c0-.35-.27-.39-.51-.42s-.29,0-.29-.16a.15.15,0,0,1,.12-.16,3.33,3.33,0,0,0,1-.37,1,1,0,0,1,.41-.16.2.2,0,0,1,.17.22v3.78A2.21,2.21,0,0,1,70.18,89,1.88,1.88,0,0,1,72,91.13v1.75c0,.26.2.32.49.37s.35.07.35.22S72.63,93.65,72.57,93.65Zm-.89-.14c.24,0,.44,0,.61,0h.28c.14,0,.16,0,.16-.08s-.1-.09-.27-.12-.57-.11-.57-.47V91.13c0-1-.45-2-1.71-2a2.2,2.2,0,0,0-1.47.73l-.09.08v-4c0-.07,0-.12-.07-.12a.93.93,0,0,0-.36.14,3.14,3.14,0,0,1-1,.39s0,0,0,.06.1.05.2.06.6.08.6.52v5.93c0,.35-.26.44-.44.5s-.17.07-.17.11,0,0,0,0h.33l.63,0c.18,0,.42,0,.63,0h.44c.11,0,.13,0,.13-.09a.5.5,0,0,0-.19,0c-.27,0-.74-.1-.74-.76V90.43c0-.56.78-1,1.28-1,0,0,1.32,0,1.32,1.59V93c0,.26-.21.36-.37.44s-.14.07-.14.1,0,.06.11.06H71C71.17,93.53,71.41,93.51,71.68,93.51Z"/><path class="cls-7" d="M73.57,90.91c0,1.73,1.05,2.24,1.69,2.24.9,0,1.25-.54,1.48-.54,0,0,0,0,0,.07a2.26,2.26,0,0,1-1.86,1,2.16,2.16,0,0,1-2.12-2.15c0-1.35.74-2.47,2.06-2.47a1.92,1.92,0,0,1,1.85,1.67c0,.19-.11.18-.35.18Zm2.06-.29c.15,0,.21-.05.21-.21a1.19,1.19,0,0,0-1.16-1.11c-.65,0-1.11.75-1.11,1.32Z"/><path class="cls-7" d="M74.92,93.73A2.37,2.37,0,0,1,74.86,89a2,2,0,0,1,1.9,1.72.19.19,0,0,1-.05.16c-.06.07-.16.07-.31.07H73.62c0,1.69,1.07,2.14,1.64,2.14a1.89,1.89,0,0,0,1.16-.39.61.61,0,0,1,.32-.15q.09,0,.09.12C76.83,93,75.88,93.73,74.92,93.73Zm-.06-4.62c-1.19,0-2,1-2,2.42a2.12,2.12,0,0,0,2.07,2.1,2.26,2.26,0,0,0,1.81-.95v0a.6.6,0,0,0-.25.13,2,2,0,0,1-1.22.41c-.61,0-1.74-.48-1.74-2.29v0H76.4c.11,0,.21,0,.24,0s0,0,0-.09A1.89,1.89,0,0,0,74.86,89.11Zm.77,1.56H73.52v0a1.35,1.35,0,0,1,1.16-1.37,1.25,1.25,0,0,1,1.21,1.16C75.89,90.59,75.81,90.67,75.63,90.67Zm-2-.1h2c.13,0,.16,0,.16-.16a1.15,1.15,0,0,0-1.11-1.06C74.05,89.35,73.64,90.06,73.62,90.57Z"/><path class="cls-7" d="M81,90.8a2.28,2.28,0,0,0,2.51,2.45c2,0,2.42-1.3,2.42-2.54v-3.4c0-1.08-1-.63-1-1a.13.13,0,0,1,.1-.11c.41,0,.82,0,1.23,0,.2,0,.39,0,.58,0a.14.14,0,0,1,.13.12c0,.29-.62.06-.62,1v3.25a2.7,2.7,0,0,1-2.92,3.11c-2.77,0-3.29-1.55-3.29-3.16V87c0-.62-.85-.37-.85-.7,0-.08.18-.11.23-.11.27,0,.54,0,.82,0s.67,0,1,0c0,0,.33,0,.33.11,0,.29-.7,0-.7.75Z"/><path class="cls-7" d="M83.45,93.73c-3,0-3.34-1.83-3.34-3.21V87c0-.32-.25-.38-.48-.43s-.37-.09-.37-.27.23-.16.28-.16l.41,0a5.53,5.53,0,0,0,.91,0l.5,0h0c.12,0,.26,0,.32.07a.1.1,0,0,1,0,.09c0,.15-.13.18-.27.22A.46.46,0,0,0,81,87V90.8a2.23,2.23,0,0,0,2.46,2.4c1.57,0,2.37-.84,2.37-2.49v-3.4c0-.63-.34-.7-.62-.76s-.35-.08-.35-.27a.18.18,0,0,1,.15-.16l.62,0a5.41,5.41,0,0,0,.9,0l.29,0a.19.19,0,0,1,.18.17c0,.13-.1.18-.2.23s-.42.2-.42.8v3.31A3.16,3.16,0,0,1,85.66,93,3,3,0,0,1,83.45,93.73Zm-3.91-7.51c-.06,0-.17,0-.18.06s.11.13.29.17.56.13.56.53v3.54c0,2.75,1.73,3.11,3.24,3.11a2.91,2.91,0,0,0,2.14-.74,3.07,3.07,0,0,0,.73-2.26V87.32c0-.66.29-.8.47-.89s.15-.07.15-.14,0-.07-.08-.07l-.28,0a5.65,5.65,0,0,1-.92,0l-.61,0a.1.1,0,0,0,0,.06c0,.1.08.12.27.17a.75.75,0,0,1,.7.86v3.4A2.26,2.26,0,0,1,83.5,93.3a2.33,2.33,0,0,1-2.56-2.5V87a.57.57,0,0,1,.51-.63c.14,0,.19-.06.19-.12s0,0,0,0a.44.44,0,0,0-.25,0h0l-.49,0-.51,0-.42,0Z"/><path class="cls-7" d="M88.59,92.75c0,.73.92.42.92.71,0,.12-.07.14-.23.14s-.39,0-1,0-.76,0-.89,0-.19,0-.19-.12.62,0,.62-.68V90.19c0-.63-.77-.35-.77-.58a.11.11,0,0,1,.09-.11c.87-.19,1.08-.53,1.32-.53.07,0,.13.07.13.17v.7a2.25,2.25,0,0,1,1.52-.78c1.41,0,1.71,1.16,1.71,2v1.73c0,.73.82.42.82.71,0,.12-.07.14-.18.14s-.4,0-.91,0-.62,0-.76,0-.19,0-.19-.12.46,0,.46-.68v-2a1.28,1.28,0,0,0-1.23-1.31,1.18,1.18,0,0,0-1.24.82Z"/><path class="cls-7" d="M92.46,93.65h-.19c-.15,0-.38,0-.72,0s-.43,0-.56,0h-.2c-.12,0-.24,0-.24-.17s.09-.14.17-.17.29-.11.29-.51v-2a1.24,1.24,0,0,0-1.18-1.26,1.32,1.32,0,0,0-1,.39.65.65,0,0,0-.21.38v2.41c0,.41.3.46.57.5s.35.06.35.21-.17.19-.28.19h-.22c-.16,0-.38,0-.78,0s-.59,0-.73,0h-.16c-.12,0-.24,0-.24-.17s.11-.14.22-.17a.45.45,0,0,0,.4-.51V90.19c0-.35-.26-.38-.49-.41s-.28,0-.28-.17a.16.16,0,0,1,.13-.16,2.88,2.88,0,0,0,1-.39.69.69,0,0,1,.34-.14.2.2,0,0,1,.18.22v.59A2,2,0,0,1,90.11,89a1.79,1.79,0,0,1,1.76,2v1.73c0,.41.27.46.51.5s.31.06.31.21S92.53,93.65,92.46,93.65Zm-.91-.14c.34,0,.57,0,.73,0s.31,0,.31-.08-.07-.08-.23-.11-.59-.11-.59-.6V91a1.67,1.67,0,0,0-1.66-1.91,1.93,1.93,0,0,0-1.41.7c-.07.08-.09.1-.13.08h0v-.74c0-.07,0-.12-.08-.12a.63.63,0,0,0-.29.13,3.34,3.34,0,0,1-1,.4.06.06,0,0,0-.06.06s.11.06.2.07.58.07.58.51V92.8a.54.54,0,0,1-.47.6c-.1,0-.15,0-.15.08s0,.09.29.06.36,0,.74,0,.63,0,.79,0h.21c.17,0,.18,0,.18-.09s-.1-.09-.26-.11-.66-.11-.66-.6V90.34a.71.71,0,0,1,.23-.44,1.42,1.42,0,0,1,1.06-.43,1.33,1.33,0,0,1,1.28,1.36v2c0,.47-.22.55-.36.6s-.1,0-.1.08,0,.07.14.07H91C91.11,93.53,91.29,93.51,91.55,93.51Z"/><path class="cls-7" d="M93.59,90.19c0-.63-.58-.35-.58-.58a.11.11,0,0,1,.09-.11c.68-.19.89-.53,1.13-.53.06,0,.12.07.12.17v3.77c0,.54.83.31.83.58,0,.08-.06.11-.2.11s-.54,0-1,0-.61,0-.73,0-.15,0-.16-.11c0-.26.47.13.47-.82Zm.82-2.74c0,.13-.31.55-.45.55s-.44-.43-.44-.55.32-.55.44-.55S94.41,87.33,94.41,87.45Z"/><path class="cls-7" d="M95,93.65h-.33c-.18,0-.39,0-.64,0s-.4,0-.54,0h-.19a.18.18,0,0,1-.21-.16c0-.13.1-.15.17-.17s.3-.06.3-.65V90.19c0-.35-.19-.38-.36-.41s-.22,0-.22-.17a.16.16,0,0,1,.13-.16,2.34,2.34,0,0,0,.76-.36.79.79,0,0,1,.38-.17.2.2,0,0,1,.17.22v3.77c0,.25.2.31.48.36s.35.06.35.22S95.05,93.65,95,93.65Zm-1-.14c.25,0,.47,0,.65,0H95c.15,0,.15,0,.15-.06s-.1-.09-.27-.12-.56-.1-.56-.46V89.14c0-.07,0-.12-.07-.12a.7.7,0,0,0-.32.15,2.76,2.76,0,0,1-.79.38.06.06,0,0,0-.06.06s0,0,.14.07a.44.44,0,0,1,.44.51v2.48c0,.62-.19.71-.38.75s-.09,0-.09.07,0,.07.3.05S93.79,93.51,94,93.51ZM94,88.05c-.16,0-.49-.46-.49-.6s.33-.6.49-.6.5.46.5.6S94.14,88.05,94,88.05ZM94,87a.52.52,0,0,0,0,1c.11,0,.4-.39.4-.5S94.07,87,94,87Z"/><path class="cls-7" d="M97.69,92.71l.71-1.51a3.25,3.25,0,0,0,.46-1.33c0-.59-.65-.3-.65-.56s.11-.14.25-.14.42,0,.65,0,.37,0,.55,0,.28,0,.28.16-.38.07-.53.39l-1.6,3.4c-.2.43-.2.56-.36.56s-.18-.18-.21-.25L95.66,89.8c-.2-.47-.58-.31-.58-.5s0-.13.22-.13a8,8,0,0,0,.89,0,6.19,6.19,0,0,0,.65,0c.15,0,.24,0,.24.12s-.59.07-.59.39a3.13,3.13,0,0,0,.17.51Z"/><path class="cls-7" d="M97.45,93.73c-.15,0-.21-.16-.24-.25v0l-1.59-3.62a.56.56,0,0,0-.4-.35c-.09,0-.18-.06-.18-.17s.07-.18.27-.18l.18,0a6,6,0,0,0,.71,0,4,4,0,0,0,.49,0l.16,0c.15,0,.29,0,.29.17s-.15.17-.29.19-.3.07-.3.2a2.45,2.45,0,0,0,.17.49l1,2.42.65-1.41c0-.07.07-.14.1-.2a2.59,2.59,0,0,0,.36-1.11c0-.31-.19-.34-.38-.37s-.27,0-.27-.19.19-.19.3-.19l.32,0a1.84,1.84,0,0,0,.33,0l.27,0a1.27,1.27,0,0,1,.28,0q.33,0,.33.21c0,.09-.09.13-.19.16a.51.51,0,0,0-.34.25l-1.61,3.4c0,.11-.08.2-.11.27C97.64,93.63,97.6,93.73,97.45,93.73ZM95.3,89.22c-.17,0-.17,0-.17.08s0,0,.11.08a.63.63,0,0,1,.46.4l1.59,3.63v0c0,.09.08.18.15.18s.1,0,.19-.26l.12-.27,1.61-3.4a.61.61,0,0,1,.4-.31c.06,0,.12,0,.12-.06s0-.11-.23-.11l-.27,0-.28,0c-.12,0-.23,0-.34,0l-.31,0c-.17,0-.2,0-.2.09s0,.07.18.09.47.07.47.47A2.68,2.68,0,0,1,98.54,91c0,.07-.07.13-.1.2l-.75,1.62-1.07-2.63a3,3,0,0,1-.18-.53c0-.22.22-.26.38-.29s.21,0,.21-.1,0-.07-.19-.07l-.14,0a4.58,4.58,0,0,1-.51,0,6.28,6.28,0,0,1-.72,0Z"/><path class="cls-7" d="M100.73,90.91c0,1.73,1,2.24,1.69,2.24.9,0,1.25-.54,1.48-.54,0,0,0,0,0,.07a2.24,2.24,0,0,1-1.86,1A2.17,2.17,0,0,1,100,91.53,2.19,2.19,0,0,1,102,89.06a1.94,1.94,0,0,1,1.86,1.67c0,.19-.12.18-.36.18Zm2.07-.29c.14,0,.21-.05.21-.21a1.2,1.2,0,0,0-1.17-1.11c-.65,0-1.11.75-1.11,1.32Z"/><path class="cls-7" d="M102.08,93.73A2.37,2.37,0,0,1,102,89a2,2,0,0,1,1.91,1.72.2.2,0,0,1-.06.16c-.06.07-.16.07-.31.07h-2.78c0,1.69,1.08,2.14,1.64,2.14a1.89,1.89,0,0,0,1.16-.39.64.64,0,0,1,.32-.15q.09,0,.09.12C104,93,103,93.73,102.08,93.73ZM102,89.11a2.14,2.14,0,0,0-2,2.42,2.12,2.12,0,0,0,2.07,2.1,2.26,2.26,0,0,0,1.81-.95v0a.6.6,0,0,0-.25.13,2,2,0,0,1-1.22.41c-.6,0-1.74-.48-1.74-2.29v0h2.88c.12,0,.21,0,.24,0s0,0,0-.09A1.89,1.89,0,0,0,102,89.11Zm.78,1.56h-2.12v0a1.36,1.36,0,0,1,1.16-1.37,1.25,1.25,0,0,1,1.22,1.16C103.06,90.59,103,90.67,102.8,90.67Zm-2-.1h2c.12,0,.16,0,.16-.16a1.16,1.16,0,0,0-1.12-1.06C101.21,89.35,100.81,90.06,100.78,90.57Z"/><path class="cls-7" d="M105.61,92.68c0,1,.93.47.93.81,0,.09-.05.11-.17.11s-.4,0-1,0a9,9,0,0,0-1,0c-.08,0-.11,0-.11-.09,0-.22.53-.18.53-.61V90.19c0-.63-.75-.35-.75-.58,0-.06.08-.1.13-.11.81-.19,1-.53,1.26-.53a.16.16,0,0,1,.13.17v.79h0c.22-.3.6-.87,1-.87.22,0,.69.27.69.47s-.25.47-.38.47-.31-.24-.69-.24a.77.77,0,0,0-.68.62Z"/><path class="cls-7" d="M106.37,93.65h-.19c-.16,0-.4,0-.79,0a7.77,7.77,0,0,0-.88,0h-.09c-.14,0-.16-.07-.16-.14s.11-.18.22-.24.31-.15.31-.37V90.19c0-.35-.25-.38-.48-.41s-.27,0-.27-.17.1-.15.17-.16a3,3,0,0,0,.92-.38.68.68,0,0,1,.35-.15.2.2,0,0,1,.18.22v.66c.24-.33.58-.79,1-.79.24,0,.74.29.74.52s-.26.52-.43.52a.52.52,0,0,1-.26-.1.78.78,0,0,0-.43-.14.73.73,0,0,0-.63.57v2.3c0,.57.32.59.6.61s.33,0,.33.2S106.44,93.65,106.37,93.65Zm-1-.14c.39,0,.64,0,.8,0h.18c.12,0,.12,0,.12-.06s0-.08-.24-.1-.69,0-.69-.71v-2.3a.82.82,0,0,1,.73-.67.89.89,0,0,1,.49.16.34.34,0,0,0,.2.08c.09,0,.33-.28.33-.42s-.44-.42-.64-.42c-.39,0-.75.49-1,.79l-.06.08h-.09v-.84c0-.07,0-.12-.08-.12a.79.79,0,0,0-.3.13,2.94,2.94,0,0,1-1,.4s-.1,0-.1.06.08,0,.2.07.56.07.56.51V92.9a.5.5,0,0,1-.36.46c-.11.06-.17.09-.17.15s0,0,.06,0h.08A7.86,7.86,0,0,1,105.39,93.51Z"/><path class="cls-7" d="M107.65,90.32a1.27,1.27,0,0,1,1.42-1.26c.17,0,.9.08,1,.24a1.3,1.3,0,0,1,.06.51c0,.29,0,.41-.12.41s-.2-.91-1.15-.91a.67.67,0,0,0-.74.67c0,.35.27.57,1.38,1a1.19,1.19,0,0,1,.87,1.25A1.44,1.44,0,0,1,109,93.68c-.73,0-.92-.31-1.17-.31s-.24,0-.24-.84c0-.18,0-.51.13-.51s.12,1.38,1.25,1.38a.85.85,0,0,0,.93-.86c0-.55-.53-.72-1-.92C108.35,91.34,107.65,91.06,107.65,90.32Z"/><path class="cls-7" d="M109,93.73a1.83,1.83,0,0,1-.91-.22.62.62,0,0,0-.26-.09c-.29,0-.29,0-.29-.89v-.07a.78.78,0,0,1,.08-.45.13.13,0,0,1,.1,0c.11,0,.15.14.21.35.12.41.3,1,1,1a.8.8,0,0,0,.88-.81c0-.45-.39-.63-.77-.81l-.15-.07-.15-.07c-.54-.26-1.15-.56-1.15-1.27A1.3,1.3,0,0,1,109.07,89c.12,0,.91.07,1.06.26a1.15,1.15,0,0,1,.07.52V90c0,.13,0,.22,0,.27a.17.17,0,0,1-.13,0c-.06,0-.08-.06-.13-.17a1.06,1.06,0,0,0-1-.74.61.61,0,0,0-.69.62c0,.3.2.5,1.35,1a1.25,1.25,0,0,1,.9,1.3A1.48,1.48,0,0,1,109,93.73Zm-1.28-1.66h0a.81.81,0,0,0,0,.37v.08c0,.79,0,.79.19.79a.76.76,0,0,1,.3.1,1.73,1.73,0,0,0,.87.21,1.39,1.39,0,0,0,1.37-1.39,1.14,1.14,0,0,0-.84-1.2c-1.11-.44-1.41-.67-1.41-1.06a.72.72,0,0,1,.79-.72,1.15,1.15,0,0,1,1.11.8.61.61,0,0,0,.05.11s0,0,0,0,0-.1,0-.2v-.18c0-.32,0-.42,0-.45a2.28,2.28,0,0,0-1-.22,1.22,1.22,0,0,0-1.37,1.21c0,.65.55.92,1.09,1.18l.15.07.15.07c.39.18.83.38.83.9a.9.9,0,0,1-1,.91c-.82,0-1-.69-1.14-1.1C107.77,92.24,107.72,92.07,107.69,92.07Z"/><path class="cls-7" d="M111.41,90.19c0-.63-.57-.35-.57-.58a.11.11,0,0,1,.09-.11c.67-.19.88-.53,1.12-.53.07,0,.13.07.13.17v3.77c0,.54.83.31.83.58,0,.08-.06.11-.2.11s-.55,0-1,0-.6,0-.72,0-.15,0-.16-.11c0-.26.46.13.46-.82Zm.82-2.74c0,.13-.3.55-.44.55s-.44-.43-.44-.55.32-.55.44-.55S112.23,87.33,112.23,87.45Z"/><path class="cls-7" d="M112.81,93.65h-.33c-.18,0-.4,0-.65,0s-.39,0-.53,0h-.19a.18.18,0,0,1-.21-.16c0-.13.1-.15.17-.17s.29-.06.29-.65V90.19c0-.35-.18-.38-.35-.41s-.22,0-.22-.17a.16.16,0,0,1,.13-.16,2.57,2.57,0,0,0,.76-.36.76.76,0,0,1,.37-.17.2.2,0,0,1,.18.22v3.77c0,.25.2.31.48.36s.35.06.35.22S112.88,93.65,112.81,93.65Zm-1-.14c.26,0,.48,0,.65,0h.33c.15,0,.15,0,.15-.06s-.1-.09-.27-.12-.56-.1-.56-.46V89.14c0-.07,0-.12-.08-.12a.72.72,0,0,0-.31.15,2.59,2.59,0,0,1-.8.38s0,0,0,.06,0,0,.14.07.43.07.43.51v2.48c0,.62-.18.71-.37.75s-.09,0-.09.07,0,.07.29.05S111.62,93.51,111.83,93.51Zm0-5.46c-.16,0-.49-.46-.49-.6s.33-.6.49-.6.49.46.49.6S112,88.05,111.79,88.05Zm0-1.1a.52.52,0,0,0,0,1c.1,0,.39-.39.39-.5S111.89,87,111.79,87Z"/><path class="cls-7" d="M113.61,89.63c-.49,0-.57,0-.57-.08s.26-.26.8-.85c.21-.25.31-.48.4-.48s.14.22.14,1h1.15a.67.67,0,0,0,.41-.17.08.08,0,0,1,.07.08.42.42,0,0,1-.06.15l-.21.38h-1.36v3.05a.64.64,0,0,0,.73.63c.56,0,.71-.24.89-.24s.09,0,.09.09-.57.52-1.31.52c-.48,0-1.17-.14-1.17-1.22Z"/><path class="cls-7" d="M114.78,93.73a1.1,1.1,0,0,1-1.22-1.27V89.68c-.5,0-.57,0-.57-.13s.07-.13.24-.29.32-.31.57-.59a3.07,3.07,0,0,0,.2-.27c.1-.15.16-.23.24-.23s.16.15.17.22a5.49,5.49,0,0,1,0,.67v.09h1.11a.44.44,0,0,0,.33-.14.1.1,0,0,1,.08,0,.12.12,0,0,1,.12.13.28.28,0,0,1-.07.17l-.22.41h-1.35v3a.61.61,0,0,0,.69.58,1.28,1.28,0,0,0,.66-.16A.49.49,0,0,1,116,93a.13.13,0,0,1,.14.14C116.14,93.38,115.5,93.73,114.78,93.73Zm-.54-5.46s-.1.1-.15.18l-.21.28c-.26.29-.46.48-.58.6a1.63,1.63,0,0,0-.21.22,1.66,1.66,0,0,0,.52,0h0v2.88c0,.79.37,1.17,1.12,1.17a1.5,1.5,0,0,0,1.26-.47s0,0,0,0a.46.46,0,0,0-.18.07,1.45,1.45,0,0,1-.71.17.69.69,0,0,1-.78-.68v-3.1h1.38l.2-.36a.38.38,0,0,0,0-.12s0,0,0,0h0a.55.55,0,0,1-.4.16h-1.2v-.18a5.39,5.39,0,0,0,0-.66C114.29,88.27,114.26,88.27,114.24,88.27Z"/><path class="cls-7" d="M118.13,95.66s-.2,0-.35,0-.39,0-.39-.07c0-.23,1-1,1-1.84a1.9,1.9,0,0,0-.21-.7l-1.38-3.39c-.09-.23-.49-.24-.49-.39s.06-.13.21-.13.45,0,.74,0,.6,0,.77,0,.22,0,.22.14-.6,0-.6.43a.57.57,0,0,0,.06.25l1.12,2.86.81-2.37a1.68,1.68,0,0,0,.12-.55c0-.57-.67-.41-.67-.64s.13-.12.32-.12.29,0,.59,0,.43,0,.53,0,.2,0,.2.13c0,.24-.36,0-.57.61Z"/><path class="cls-7" d="M117.69,95.74c-.15,0-.27,0-.32-.06a.07.07,0,0,1,0-.06c0-.1.11-.24.28-.45a2.51,2.51,0,0,0,.68-1.39,1.69,1.69,0,0,0-.17-.61l0-.07-1.37-3.39a.5.5,0,0,0-.28-.21c-.11,0-.22-.1-.22-.2s.16-.18.26-.18l.33,0c.12,0,.26,0,.41,0s.39,0,.53,0l.24,0c.14,0,.27,0,.27.19s-.14.16-.27.18-.33.06-.33.25a.79.79,0,0,0,0,.24l1.08,2.72.76-2.24a1.58,1.58,0,0,0,.12-.53c0-.31-.21-.38-.41-.43s-.26-.08-.26-.21.2-.17.37-.17l.18,0a3.49,3.49,0,0,0,.41,0,3.25,3.25,0,0,0,.36,0l.17,0c.23,0,.25.13.25.18s-.09.16-.17.18-.28.09-.4.44l-2,5.76c0,.06-.1.06-.4.06h-.09Zm.39-.09Zm-1.6-6.43c-.16,0-.16,0-.16.08s.08.07.16.11a.57.57,0,0,1,.33.26l1.41,3.46a1.66,1.66,0,0,1,.18.65,2.64,2.64,0,0,1-.7,1.45,1.46,1.46,0,0,0-.26.39,1.24,1.24,0,0,0,.3,0h.35l2-5.74c.13-.4.33-.46.46-.5s.1,0,.1-.09,0-.08-.15-.08l-.16,0a3.46,3.46,0,0,1-.37,0,3.52,3.52,0,0,1-.42,0l-.17,0c-.2,0-.27,0-.27.07s.07.07.19.11.48.15.48.53a1.67,1.67,0,0,1-.12.56l-.86,2.5-1.17-3a.74.74,0,0,1-.06-.27c0-.29.25-.32.42-.35s.18,0,.18-.08,0-.09-.17-.09l-.24,0c-.14,0-.31,0-.53,0s-.29,0-.42,0Z"/><path class="cls-7" d="M123.23,91.45a2.37,2.37,0,0,1,2.34-2.39,2.16,2.16,0,0,1,2.28,2.34,2.23,2.23,0,0,1-2.27,2.28A2.15,2.15,0,0,1,123.23,91.45Zm3.89.11c0-1.08-.45-2.27-1.7-2.27-1,0-1.45.9-1.45,1.79s.48,2.38,1.71,2.38C126.56,93.46,127.12,92.86,127.12,91.56Z"/><path class="cls-7" d="M125.58,93.73a2.2,2.2,0,0,1-2.4-2.28A2.42,2.42,0,0,1,125.57,89a2.21,2.21,0,0,1,2.33,2.39A2.27,2.27,0,0,1,125.58,93.73Zm0-4.62a2.32,2.32,0,0,0-2.29,2.34,2.11,2.11,0,0,0,2.3,2.18,2.17,2.17,0,0,0,2.22-2.23A2.12,2.12,0,0,0,125.57,89.11Zm.11,4.4a1.54,1.54,0,0,1-1.36-.83,3.16,3.16,0,0,1-.4-1.6c0-.85.39-1.84,1.5-1.84,1.29,0,1.75,1.25,1.75,2.32C127.17,92.81,126.64,93.51,125.68,93.51Zm-.26-4.17c-1,0-1.4.94-1.4,1.74s.34,2.33,1.66,2.33c.91,0,1.39-.64,1.39-1.85S126.63,89.34,125.42,89.34Z"/><path class="cls-7" d="M128.72,89.19a4.15,4.15,0,0,1,.62-2.21,2.41,2.41,0,0,1,1.7-1.12c.14,0,.43,0,.43.22s0,.74-.16.74-.05-.44-.71-.44-.94.6-1,1.08a9.12,9.12,0,0,0-.08,1.73h.8a.64.64,0,0,0,.41-.17.08.08,0,0,1,.08.08.33.33,0,0,1-.07.15l-.21.38h-1v3.19c0,.67.74.42.74.65s-.14.09-.22.09h-1.63s-.17,0-.17-.06.51-.1.51-.6V89.63H128l.06-.44Z"/><path class="cls-7" d="M130.1,93.62h-1.78a.16.16,0,0,1-.12,0,.1.1,0,0,1,0-.08c0-.12.1-.17.2-.21s.3-.12.3-.39V89.68H128l.08-.53h.64a4.18,4.18,0,0,1,.63-2.2A2.44,2.44,0,0,1,131,85.81c.18,0,.48,0,.48.27,0,0,0,.79-.21.79s-.11-.07-.14-.13-.15-.31-.57-.31-.88.54-1,1a8.07,8.07,0,0,0-.09,1.48c0,.07,0,.13,0,.2h.75a.49.49,0,0,0,.34-.14s.05,0,.07,0a.13.13,0,0,1,.13.13.36.36,0,0,1-.07.17l-.23.41h-1v3.14c0,.38.25.43.47.47s.27,0,.27.18a.12.12,0,0,1,0,.1A.19.19,0,0,1,130.1,93.62Zm-1.72-.11h1.72l.07,0s0,0,0,0-.07-.06-.19-.08-.55-.11-.55-.57V89.58h1l.2-.36a.27.27,0,0,0,.06-.12l0,0h0a.54.54,0,0,1-.4.16h-.85v0a1.93,1.93,0,0,0,0-.24,8.34,8.34,0,0,1,.09-1.5c.11-.54.52-1.12,1.08-1.12a.62.62,0,0,1,.66.36s0,.08.05.08a1.6,1.6,0,0,0,.11-.69c0-.13-.23-.17-.38-.17a2.41,2.41,0,0,0-1.66,1.1,4.09,4.09,0,0,0-.61,2.18v0h-.66l-.05.34h.71V92.9a.48.48,0,0,1-.36.49c-.1,0-.15.06-.15.11s.07,0,.09,0Z"/><path class="cls-7" d="M136,87.23c0-.07.05-.47-.1-.48h-1.71c-.65,0-.68.16-.86.73,0,.11-.05.25-.18.25s-.11-.08-.11-.13l.12-1c0-.13,0-.41.19-.41.82,0,1.62,0,3,0,1.9,0,2.86,0,3.07,0s.3.06.31.31l.05.84c0,.1,0,.23-.11.23-.39,0,.17-.8-.9-.8h-1.5c-.47,0-.42,0-.42.51v5.36c0,.88.85.53.85.86,0,0,0,.12-.09.12-.25,0-.55,0-.85,0-1.18,0-1.38,0-1.44,0s-.13,0-.13-.13c0-.25.83-.15.83-.78Z"/><path class="cls-7" d="M137.54,93.65l-.39,0-.46,0c-1,0-1.26,0-1.38,0h-.06c-.12,0-.18-.05-.18-.18s.15-.19.31-.25.52-.18.52-.53V87.18c0-.34,0-.38-.06-.38h-1.7c-.59,0-.62.11-.79.63l0,.07a.11.11,0,0,1,0,0c0,.09-.06.22-.21.22a.17.17,0,0,1-.16-.17l.12-1v0c0-.14,0-.41.24-.41l1.11,0,1.87,0c1.42,0,2.33,0,2.77,0h.3c.27,0,.35.08.36.35l0,.84a.29.29,0,0,1,0,.24.17.17,0,0,1-.12,0c-.2,0-.21-.16-.22-.3s0-.5-.68-.5h-1.59a.69.69,0,0,0-.25,0s0,.13,0,.29v5.51c0,.51.29.57.54.63s.31.06.31.23a.14.14,0,0,1,0,.13A.12.12,0,0,1,137.54,93.65Zm-.85-.14.47,0,.38,0h0a.15.15,0,0,0,0-.06c0-.09-.06-.11-.23-.15a.64.64,0,0,1-.62-.72V87.11c0-.2,0-.3.06-.36s.14-.06.32,0h1.59c.72,0,.75.35.78.59s0,.21.12.21a.08.08,0,0,0,.05,0,.27.27,0,0,0,0-.16l0-.84c0-.22-.05-.26-.26-.26h-.3c-.43,0-1.34,0-2.77,0l-1.87,0-1.11,0c-.11,0-.13.16-.14.31v0l-.12,1s0,.08.06.08.09-.05.11-.16l0,0,0-.07c.17-.53.23-.7.89-.7h1.71c.18,0,.16.33.16.49v5.5c0,.42-.34.54-.58.63s-.25.09-.25.15,0,.08.08.08h.05C135.42,93.54,135.73,93.51,136.69,93.51Z"/><path class="cls-7" d="M139.65,90.91c0,1.73,1,2.24,1.69,2.24.9,0,1.25-.54,1.48-.54,0,0,0,0,0,.07a2.24,2.24,0,0,1-1.86,1,2.17,2.17,0,0,1-2.12-2.15,2.19,2.19,0,0,1,2.06-2.47,1.94,1.94,0,0,1,1.86,1.67c0,.19-.12.18-.36.18Zm2.06-.29c.15,0,.21-.05.21-.21a1.19,1.19,0,0,0-1.16-1.11c-.65,0-1.11.75-1.11,1.32Z"/><path class="cls-7" d="M141,93.73a2.37,2.37,0,0,1-.06-4.72,2,2,0,0,1,1.91,1.72.2.2,0,0,1-.06.16.38.38,0,0,1-.28.07H139.7c0,1.69,1.08,2.14,1.64,2.14a1.89,1.89,0,0,0,1.16-.39.61.61,0,0,1,.32-.15q.09,0,.09.12C142.91,93,142,93.73,141,93.73Zm-.06-4.62a2.14,2.14,0,0,0-2,2.42,2.12,2.12,0,0,0,2.07,2.1,2.26,2.26,0,0,0,1.81-.95v0a.6.6,0,0,0-.25.13,2,2,0,0,1-1.22.41c-.61,0-1.74-.48-1.74-2.29v0h2.88c.13,0,.21,0,.24,0s0,0,0-.09A1.89,1.89,0,0,0,140.94,89.11Zm.77,1.56H139.6v0a1.36,1.36,0,0,1,1.16-1.37A1.25,1.25,0,0,1,142,90.41C142,90.59,141.89,90.67,141.71,90.67Zm-2-.1h2c.13,0,.17,0,.17-.16a1.16,1.16,0,0,0-1.12-1.06C140.13,89.35,139.72,90.06,139.7,90.57Z"/><path class="cls-7" d="M146.32,89.92a.36.36,0,0,0,.09-.26c0-.24-.5-.15-.5-.35s.09-.14.18-.14a5.45,5.45,0,0,0,.76,0c.35,0,.53,0,.64,0a.12.12,0,0,1,.14.14c0,.16-.32,0-.82.58l-1.12,1.28,1.4,1.83c.29.38.73.29.73.48s0,.12-.15.12-.32,0-.81,0-.67,0-.79,0-.19,0-.19-.1.34-.12.34-.36c0,0,0-.12-.18-.35l-.81-1.06-.83,1a.48.48,0,0,0-.09.25c0,.39.53.26.53.48s0,.12-.17.12-.3,0-.81,0-.61,0-.7,0-.12,0-.12-.13.37,0,.92-.68l1.1-1.3-1.22-1.64c-.27-.38-.8-.34-.8-.53s.08-.15.21-.15.31,0,.72,0,.7,0,.85,0,.13,0,.13.11-.36.12-.36.29.11.21.93,1.36Z"/><path class="cls-7" d="M147.67,93.65h-.18c-.12,0-.31,0-.63,0s-.51,0-.64,0h-.15c-.08,0-.24,0-.24-.15s.09-.15.17-.18.17-.08.17-.18,0-.11-.17-.32l-.77-1-.79,1a.4.4,0,0,0-.08.22c0,.17.11.22.29.27s.24.08.24.21-.16.17-.22.17h-.14c-.13,0-.33,0-.67,0a5.71,5.71,0,0,0-.58,0h-.12a.16.16,0,0,1-.17-.18c0-.11.08-.14.19-.17a1.64,1.64,0,0,0,.74-.55L145,91.49l-1.2-1.61a1,1,0,0,0-.53-.34c-.15-.05-.28-.1-.28-.22s.15-.2.26-.2l.16,0c.12,0,.3,0,.56,0s.5,0,.65,0l.2,0a.18.18,0,0,1,.18.16c0,.12-.12.16-.21.19s-.15.06-.15.1,0,.14.27.45l.62.82.75-1a.31.31,0,0,0,.08-.23c0-.08-.09-.11-.23-.15s-.27-.07-.27-.2.08-.19.23-.19h.11a3.42,3.42,0,0,0,.65,0,4.49,4.49,0,0,0,.49,0l.15,0a.17.17,0,0,1,.19.19c0,.1-.07.12-.17.15a1.45,1.45,0,0,0-.67.46l-1.08,1.25L147.13,93a.89.89,0,0,0,.5.32c.13,0,.24.08.24.2S147.8,93.65,147.67,93.65Zm-.81-.14c.32,0,.52,0,.64,0h.17c.1,0,.1,0,.1-.07s-.05-.07-.17-.11a1,1,0,0,1-.55-.34l-1.42-1.86,1.14-1.32a1.56,1.56,0,0,1,.71-.48c.1,0,.11,0,.11-.06s0-.09-.1-.09l-.14,0a4.72,4.72,0,0,1-.5,0,4.88,4.88,0,0,1-.66,0h-.1c-.11,0-.13,0-.13.09s.08.08.19.11.31.07.31.24a.43.43,0,0,1-.1.29h0L145.52,91l0-.05c-.3-.43-.51-.7-.65-.88s-.29-.38-.29-.51.12-.16.21-.19.15-.06.15-.1-.06-.06-.08-.06l-.19,0c-.15,0-.35,0-.66,0s-.45,0-.57,0l-.15,0c-.14,0-.16,0-.16.1s.1.09.22.13a1.14,1.14,0,0,1,.58.37l1.24,1.68,0,0L144,92.82a1.68,1.68,0,0,1-.79.57c-.11,0-.12,0-.12.08s0,.08.07.08h.11a5.77,5.77,0,0,1,.59,0c.35,0,.55,0,.68,0s.25,0,.25-.06,0-.07-.17-.11-.36-.11-.36-.37a.53.53,0,0,1,.1-.28l.87-1.08.85,1.11c.19.25.19.33.19.39s-.13.23-.23.27-.11,0-.11.09,0,.07.28,0C146.34,93.53,146.53,93.51,146.86,93.51Z"/><path class="cls-7" d="M150.84,90.24c0-.54-.43-.91-1.08-.91-.5,0-.91,0-.91.63,0,.16.06.32.06.43s0,.2-.23.2-.49-.16-.49-.35c0-.48.6-1.21,1.76-1.18.65,0,1.66.19,1.66,1.08v2.17c0,.36-.1,1,.45,1l.18,0s.14,0,.14.07-.47.26-.61.26a.8.8,0,0,1-.82-.53,2.5,2.5,0,0,1-1.61.61c-.68,0-1.13-.25-1.13-1,0-.56.18-1.22,2.63-1.63Zm0,1.07c-.67.14-2,.31-2,1.23,0,.6.3.83.86.83.38,0,1.09-.29,1.09-.85Z"/><path class="cls-7" d="M149.34,93.73c-.79,0-1.18-.35-1.18-1s.2-1.26,2.63-1.67v-.77c0-.51-.41-.86-1-.86s-.86.09-.86.58a2,2,0,0,0,0,.24.68.68,0,0,1,0,.19c0,.13,0,.25-.28.25s-.54-.17-.54-.4a1.07,1.07,0,0,1,.38-.74,1.92,1.92,0,0,1,1.36-.49H150c.4,0,1.71.08,1.71,1.13v2.32a1,1,0,0,0,.12.68.37.37,0,0,0,.28.1h.18s.19,0,.19.12c0,.31-.66.31-.66.31a.85.85,0,0,1-.84-.5A2.55,2.55,0,0,1,149.34,93.73Zm.42-4.45a1,1,0,0,1,1.13,1v.86h0c-2.39.4-2.59,1-2.59,1.58s.34.95,1.08.95a2.49,2.49,0,0,0,1.58-.6l.05,0,0,.06a.78.78,0,0,0,.78.5c.17,0,.56,0,.56-.21s0,0-.09,0h-.18a.46.46,0,0,1-.35-.13,1.08,1.08,0,0,1-.15-.76V90.14c0-1-1.23-1-1.61-1h-.07a1.83,1.83,0,0,0-1.29.46,1,1,0,0,0-.35.68c0,.14.28.29.44.29s.18-.06.18-.15a.55.55,0,0,0,0-.17,2.06,2.06,0,0,1,0-.26C148.8,89.33,149.25,89.28,149.76,89.28Zm0,4.14c-.61,0-.91-.28-.91-.88,0-.88,1.08-1.1,1.79-1.24l.2,0,.06,0v1.28C150.89,93.11,150.15,93.42,149.75,93.42Zm1-2-.14,0c-.68.13-1.71.35-1.71,1.14,0,.54.25.78.81.78.35,0,1-.28,1-.8Z"/><path class="cls-7" d="M152.76,90.32a1.27,1.27,0,0,1,1.42-1.26c.18,0,.91.08,1,.24a1.5,1.5,0,0,1,0,.51c0,.29.05.41-.11.41s-.2-.91-1.16-.91a.66.66,0,0,0-.73.67c0,.35.27.57,1.37,1a1.2,1.2,0,0,1,.88,1.25,1.44,1.44,0,0,1-1.42,1.44c-.74,0-.93-.31-1.18-.31s-.23,0-.23-.84c0-.18,0-.51.13-.51s.11,1.38,1.25,1.38a.85.85,0,0,0,.93-.86c0-.55-.53-.72-1-.92S152.76,91.06,152.76,90.32Z"/><path class="cls-7" d="M154.09,93.73a1.87,1.87,0,0,1-.92-.22.62.62,0,0,0-.26-.09c-.28,0-.28,0-.28-.89v-.07c0-.16,0-.36.08-.45a.12.12,0,0,1,.1,0c.11,0,.15.14.21.35.11.41.29,1,1,1a.8.8,0,0,0,.88-.81c0-.45-.39-.63-.77-.81l-.16-.07-.15-.07c-.53-.26-1.15-.56-1.15-1.27A1.31,1.31,0,0,1,154.18,89c.13,0,.92.07,1.07.26a1.07,1.07,0,0,1,.06.52v0c0,.06,0,.11,0,.15s0,.22,0,.27a.16.16,0,0,1-.12,0c-.06,0-.09-.06-.14-.17a1,1,0,0,0-1-.74.61.61,0,0,0-.68.62c0,.3.19.5,1.34,1a1.25,1.25,0,0,1,.9,1.3A1.47,1.47,0,0,1,154.09,93.73Zm-1.28-1.66h0c-.06.06-.05.25-.05.37v.08c0,.79,0,.79.18.79a.75.75,0,0,1,.31.1,1.7,1.7,0,0,0,.87.21,1.39,1.39,0,0,0,1.37-1.39,1.14,1.14,0,0,0-.85-1.2c-1.1-.45-1.4-.67-1.4-1.06a.71.71,0,0,1,.78-.72,1.14,1.14,0,0,1,1.11.8.48.48,0,0,0,.06.11h0a.45.45,0,0,0,0-.2.66.66,0,0,1,0-.15v0a1,1,0,0,0,0-.46,2.33,2.33,0,0,0-1-.22,1.22,1.22,0,0,0-1.37,1.21c0,.65.56.92,1.1,1.18l.15.07.15.07c.39.18.83.38.83.9a.9.9,0,0,1-1,.91c-.82,0-1-.69-1.14-1.1C152.89,92.24,152.84,92.07,152.81,92.07Z"/><path class="cls-7" d="M61.28,99.07c0-.76-.92-.55-.92-.78s.09-.12.17-.12c.39,0,.77,0,1.16,0s.65,0,1,0,.2.06.2.11c0,.21-.75,0-.75.79v2.27c0,.15,0,.19.15.19h3.85c.1,0,.08-.26.08-.3V99.07c0-.72-.79-.54-.79-.78,0-.07,0-.12.18-.12.35,0,.89,0,1.09,0,.39,0,.55,0,.76,0s.29.11.29.17-.7,0-.7.73v5.57c0,.76,1,.58,1,.84,0,0,0,.12-.11.12-.28,0-.61,0-1,0-.67,0-1,0-1.16,0s-.26,0-.26-.13.74-.11.74-.77v-2.52c0-.17,0-.26-.08-.26H62.23c-.12,0-.12.06-.12.18v2.61c0,.72,1,.48,1,.81,0,0-.07.08-.17.08s-.9,0-1.45,0a5.86,5.86,0,0,0-.91,0c-.08,0-.11,0-.11-.15,0-.31.82,0,.82-1Z"/><path class="cls-7" d="M65.62,105.66a.26.26,0,0,1-.17,0,.22.22,0,0,1,0-.14c0-.13.14-.18.28-.23s.46-.16.46-.54v-2.62a.16.16,0,0,0,0-.1H62.23c-.07,0-.07,0-.07.13v2.61c0,.39.32.47.6.54s.39.1.39.27-.08.13-.22.13h-.31l-1.14,0a5.63,5.63,0,0,0-.86,0h0c-.11,0-.16-.07-.16-.2s.13-.18.27-.22.55-.14.55-.78V99.07c0-.45-.35-.53-.62-.59s-.3-.07-.3-.19,0-.17.22-.17l.58,0,.58,0,.48,0,.49,0c.21,0,.25.09.25.16s-.11.14-.24.17a.56.56,0,0,0-.51.62v2.27c0,.14,0,.14.1.14h3.85s0-.07,0-.23V99.07c0-.42-.28-.5-.51-.57s-.28-.09-.28-.21.13-.17.23-.17.46,0,.69,0h.4l.49,0,.27,0c.23,0,.34.07.34.22s-.11.13-.22.16-.48.13-.48.57v5.57c0,.44.34.54.62.61s.33.09.33.23a.18.18,0,0,1-.16.17h-.43a4.86,4.86,0,0,0-.56,0c-.43,0-.7,0-.9,0h-.35Zm-3.39-3.79h3.88a.12.12,0,0,1,.1,0,.19.19,0,0,1,0,.17v2.62a.62.62,0,0,1-.53.63c-.13,0-.21.08-.21.14a.08.08,0,0,0,0,.06.22.22,0,0,0,.14,0H66c.2,0,.48,0,.91,0a5,5,0,0,1,.57,0h.42s.06-.06.06-.07-.12-.09-.25-.13c-.28-.08-.7-.19-.7-.71V99.07a.62.62,0,0,1,.55-.66c.07,0,.15,0,.15-.07s0-.12-.24-.12l-.26,0-.5,0h-.41l-.68,0c-.13,0-.13,0-.13.07s.08.07.21.11a.66.66,0,0,1,.58.67v2.17a.48.48,0,0,1-.06.31.11.11,0,0,1-.07,0H62.26c-.2,0-.2-.08-.2-.24V99.07a.66.66,0,0,1,.59-.71c.08,0,.16,0,.16-.08s-.08-.06-.15-.06l-.48,0-.49,0-.58,0-.58,0c-.12,0-.12,0-.12.07s.12.07.23.09c.27.06.68.16.69.69v5.38c0,.71-.38.81-.63.88s-.19,0-.19.12,0,.1.06.1h0a6.06,6.06,0,0,1,.88,0l1.14,0h.31c.09,0,.12,0,.12,0s-.12-.12-.32-.17-.67-.17-.67-.64V102.1C62.06,102,62.06,101.87,62.23,101.87Z"/><path class="cls-7" d="M68.93,102.91c0,1.73,1,2.24,1.69,2.24.9,0,1.25-.54,1.48-.54,0,0,0,0,0,.07a2.24,2.24,0,0,1-1.86,1,2.17,2.17,0,0,1-2.12-2.15,2.19,2.19,0,0,1,2.06-2.47,1.94,1.94,0,0,1,1.86,1.67c0,.19-.12.18-.36.18Zm2.07-.29c.14,0,.21-.05.21-.21A1.2,1.2,0,0,0,70,101.3c-.65,0-1.11.75-1.11,1.32Z"/><path class="cls-7" d="M70.28,105.73a2.37,2.37,0,0,1-.06-4.72,2,2,0,0,1,1.91,1.72.2.2,0,0,1-.06.16c-.06.07-.16.06-.31.07H69c0,1.69,1.08,2.14,1.64,2.14a1.89,1.89,0,0,0,1.16-.39.64.64,0,0,1,.32-.15q.09,0,.09.12C72.19,105,71.24,105.73,70.28,105.73Zm-.06-4.62a2.14,2.14,0,0,0-2,2.42,2.12,2.12,0,0,0,2.07,2.1,2.26,2.26,0,0,0,1.81-.95v0a.6.6,0,0,0-.25.13,2,2,0,0,1-1.22.41c-.6,0-1.74-.48-1.74-2.29v0h2.88c.12,0,.21,0,.24,0s0,0,0-.09A1.89,1.89,0,0,0,70.22,101.11Zm.78,1.56H68.88v0A1.36,1.36,0,0,1,70,101.25a1.25,1.25,0,0,1,1.22,1.16C71.26,102.59,71.18,102.67,71,102.67Zm-2-.1h2c.12,0,.16,0,.16-.16A1.16,1.16,0,0,0,70,101.35C69.41,101.35,69,102.06,69,102.57Z"/><path class="cls-7" d="M75.27,102.24c0-.54-.43-.91-1.08-.91s-.91,0-.91.63c0,.16.06.32.06.43s0,.2-.23.2-.5-.16-.5-.35c0-.48.6-1.21,1.77-1.18.65,0,1.66.19,1.66,1.08v2.17c0,.36-.1,1,.45,1l.18,0s.13,0,.13.07-.46.26-.61.26a.78.78,0,0,1-.81-.53,2.52,2.52,0,0,1-1.61.61c-.68,0-1.14-.25-1.14-1,0-.56.18-1.22,2.64-1.63Zm0,1.07c-.67.14-2,.31-2,1.23,0,.6.3.83.86.83.38,0,1.09-.29,1.09-.85Z"/><path class="cls-7" d="M73.77,105.73c-.8,0-1.18-.35-1.18-1s.2-1.26,2.63-1.67v-.77c0-.51-.41-.86-1-.86s-.86.09-.86.58a1,1,0,0,0,0,.24,1.48,1.48,0,0,1,0,.19c0,.12,0,.25-.28.25s-.55-.16-.55-.4a1.16,1.16,0,0,1,.38-.74,2,2,0,0,1,1.37-.49h.07c.4,0,1.71.08,1.71,1.13v2.17a.81.81,0,0,1,0,.15,1.07,1.07,0,0,0,.13.68.37.37,0,0,0,.28.1h.18s.18,0,.18.12c0,.31-.65.31-.66.31a.85.85,0,0,1-.83-.5A2.57,2.57,0,0,1,73.77,105.73Zm.42-4.45a1,1,0,0,1,1.13,1v.86h0c-2.39.4-2.6,1-2.6,1.58s.35.95,1.09.95a2.44,2.44,0,0,0,1.57-.6l.06,0,0,.06a.76.76,0,0,0,.77.5c.18,0,.56,0,.56-.21s0,0-.08,0h-.18a.45.45,0,0,1-.35-.13,1.13,1.13,0,0,1-.16-.76s0-.09,0-.14v-2.17c0-1-1.23-1-1.61-1a1.91,1.91,0,0,0-1.37.46,1.07,1.07,0,0,0-.35.68c0,.14.28.29.45.29s.18-.06.18-.15a.55.55,0,0,0,0-.17,1.09,1.09,0,0,1,0-.26C73.23,101.33,73.68,101.28,74.19,101.28Zm0,4.14c-.61,0-.91-.28-.91-.88,0-.88,1.08-1.1,1.79-1.24l.2,0,.06,0v1.28C75.32,105.11,74.58,105.42,74.18,105.42Zm1-2-.14,0c-.68.13-1.71.35-1.71,1.14,0,.54.25.78.81.78.35,0,1-.28,1-.8Z"/><path class="cls-7" d="M78.52,104.75c0,.73.87.42.87.71,0,.12-.08.14-.24.14s-.47,0-1,0-.71,0-.82,0-.12,0-.12-.13.51-.13.51-.58V99c0-.63-.71-.36-.71-.58a.11.11,0,0,1,.09-.11c.81-.19,1-.53,1.26-.53.07,0,.13.06.13.17Z"/><path class="cls-7" d="M79.15,105.65h-.23c-.18,0-.42,0-.74,0s-.56,0-.68,0h-.14c-.11,0-.17-.06-.17-.18s.09-.13.19-.18.32-.15.32-.4V99c0-.35-.24-.39-.45-.42s-.26,0-.26-.16a.15.15,0,0,1,.13-.16,2.73,2.73,0,0,0,.92-.39.75.75,0,0,1,.35-.14.2.2,0,0,1,.18.22v6.84c0,.41.29.46.54.5s.33.06.33.21S79.26,105.65,79.15,105.65Zm-1-.14c.32,0,.57,0,.75,0h.22c.17,0,.19,0,.19-.09s-.08-.08-.25-.11-.62-.11-.62-.6V97.91c0-.07,0-.12-.08-.12a.79.79,0,0,0-.3.13,2.76,2.76,0,0,1-1,.39.08.08,0,0,0,0,.07s.07.05.18.06.53.08.53.52v5.93a.52.52,0,0,1-.38.49c-.06,0-.13.06-.13.09s0,.09.2.07S77.82,105.51,78.18,105.51Z"/><path class="cls-7" d="M80,101.63c-.5,0-.57,0-.57-.08s.26-.26.8-.85c.21-.25.31-.48.4-.48s.13.22.13,1h1.16a.67.67,0,0,0,.41-.17.08.08,0,0,1,.07.08.42.42,0,0,1-.06.15l-.21.38H80.71v3.05a.65.65,0,0,0,.74.63c.55,0,.71-.24.89-.24s.08,0,.08.09-.56.52-1.3.52c-.48,0-1.17-.14-1.17-1.22Z"/><path class="cls-7" d="M81.12,105.73a1.1,1.1,0,0,1-1.22-1.27v-2.78c-.5,0-.57,0-.57-.13s.06-.12.23-.29.33-.31.58-.59a3.07,3.07,0,0,0,.2-.27c.1-.15.16-.23.24-.23s.16.15.17.22,0,.34,0,.66v.1h1.11a.46.46,0,0,0,.33-.14.1.1,0,0,1,.08,0,.12.12,0,0,1,.12.13.28.28,0,0,1-.07.17l-.22.41H80.76v3a.61.61,0,0,0,.69.58,1.28,1.28,0,0,0,.66-.16.43.43,0,0,1,.23-.08.12.12,0,0,1,.13.14C82.47,105.38,81.84,105.73,81.12,105.73Zm-.54-5.46s-.1.1-.16.18a3.07,3.07,0,0,1-.2.28c-.26.29-.46.48-.59.6s-.2.19-.2.22a1.66,1.66,0,0,0,.52,0h0v2.88c0,.79.37,1.17,1.12,1.17a1.47,1.47,0,0,0,1.25-.47s0,0,0,0a.41.41,0,0,0-.18.07,1.45,1.45,0,0,1-.71.17.7.7,0,0,1-.79-.68v-3.1h1.39l.19-.36a.27.27,0,0,0,.06-.12,0,0,0,0,0,0,0h0a.55.55,0,0,1-.4.16H80.66v-.19c0-.32,0-.52,0-.65S80.6,100.27,80.58,100.27Z"/><path class="cls-7" d="M84.07,101.8a2.35,2.35,0,0,1,1.52-.74c1.34,0,1.75,1.16,1.75,2.07v1.75c0,.55.84.33.84.59,0,.11-.1.13-.21.13s-.48,0-.88,0-.75,0-.86,0-.17,0-.17-.11.51-.16.51-.54V103c0-1.3-.9-1.54-1.27-1.54s-1.23.41-1.23.94v2.22c0,.9.93.61.93.81s0,.14-.18.14-.75,0-1.07,0-.79,0-1,0a.09.09,0,0,1-.1-.1c0-.21.62-.1.62-.61V99c0-.63-.81-.36-.81-.58a.1.1,0,0,1,.08-.11c.77-.15,1.13-.53,1.37-.53.06,0,.12.06.12.17Z"/><path class="cls-7" d="M88,105.65h-.29c-.16,0-.36,0-.59,0s-.5,0-.67,0h-.19c-.18,0-.22-.09-.22-.16s.1-.14.2-.19.31-.15.31-.35V103c0-1.47-1.17-1.49-1.22-1.49-.46,0-1.18.4-1.18.89v2.22c0,.57.38.62.66.66s.27,0,.27.15-.11.19-.23.19h-.44l-.63,0-.62,0h-.34a.15.15,0,0,1-.15-.15c0-.12.12-.16.24-.2s.38-.13.38-.41V99c0-.35-.27-.39-.51-.42s-.3,0-.3-.16a.15.15,0,0,1,.12-.16,3.41,3.41,0,0,0,1-.37,1,1,0,0,1,.4-.16.2.2,0,0,1,.17.22v3.78a2.21,2.21,0,0,1,1.47-.68c1.33,0,1.8,1.14,1.8,2.12v1.75c0,.26.2.32.49.37s.35.07.35.22S88,105.65,88,105.65Zm-.88-.14c.24,0,.44,0,.6,0H88c.15,0,.16,0,.16-.08s-.1-.09-.27-.12-.57-.11-.57-.47v-1.75c0-1-.45-2-1.7-2a2.21,2.21,0,0,0-1.48.73l-.09.08v-4c0-.07,0-.12-.07-.12a.93.93,0,0,0-.36.14,3,3,0,0,1-1,.39s0,0,0,.06.11.05.21.06.6.08.6.52v5.93c0,.35-.27.44-.45.5s-.17.07-.17.11a0,0,0,0,0,.05,0h.33l.63,0c.18,0,.42,0,.63,0h.44c.12,0,.13,0,.13-.09s-.12,0-.18,0c-.28,0-.75-.1-.75-.76v-2.22c0-.56.78-1,1.28-1,.06,0,1.32,0,1.32,1.59V105c0,.26-.21.36-.36.44s-.15.07-.15.1,0,.06.12.06h.19C86.58,105.53,86.82,105.51,87.09,105.51Z"/><path class="cls-7" d="M90.74,103.75c0-.21,0-.33.12-.33s.14.13.2.35a2.23,2.23,0,0,0,2.2,1.57,1.77,1.77,0,0,0,2-1.66c0-2-4.27-.89-4.27-3.63a2.07,2.07,0,0,1,2.33-2,3.84,3.84,0,0,1,1.77.37c.09,0,.11-.11.22-.11s.11,0,.12.15l.16,1.42c0,.09,0,.16-.11.16s-.19-.22-.22-.31a2,2,0,0,0-2-1.37c-.83,0-1.71.4-1.71,1.37,0,2,4.26.82,4.26,3.71,0,.88-.62,2.21-3,2.21A2.77,2.77,0,0,1,91,105.1Z"/><path class="cls-7" d="M92.78,105.73c-.77,0-1.77-.38-1.82-.62l-.27-1.36a.4.4,0,0,1,0-.32.16.16,0,0,1,.13-.06c.16,0,.19.13.22.29l0,.1a2.2,2.2,0,0,0,2.15,1.53,1.73,1.73,0,0,0,1.93-1.61c0-.9-.91-1.15-1.86-1.43-1.13-.32-2.41-.69-2.41-2.2a2.12,2.12,0,0,1,2.38-2,3.36,3.36,0,0,1,1.63.32.39.39,0,0,0,.14.05s0,0,.07,0a.19.19,0,0,1,.15-.07c.07,0,.16,0,.17.19l.16,1.43a.17.17,0,0,1,0,.16.17.17,0,0,1-.12.05c-.16,0-.23-.23-.27-.35a2,2,0,0,0-2-1.33c-.83,0-1.66.41-1.66,1.32s.83,1.09,1.79,1.37c1.16.34,2.47.72,2.47,2.34a2.07,2.07,0,0,1-.62,1.47A3.38,3.38,0,0,1,92.78,105.73Zm-1.92-2.26,0,0s0,.08,0,.25h0l.26,1.35a2.88,2.88,0,0,0,1.73.54c2.81,0,3-1.8,3-2.16,0-1.55-1.22-1.9-2.4-2.24-1-.28-1.86-.54-1.86-1.47s.88-1.42,1.76-1.42a2,2,0,0,1,2,1.4c.06.19.12.28.18.28h.05a.13.13,0,0,0,0-.09l-.16-1.43c0-.1,0-.1-.07-.1s-.05,0-.08,0a.22.22,0,0,1-.14.06.45.45,0,0,1-.19-.06,3.2,3.2,0,0,0-1.58-.31A2,2,0,0,0,91,100.05c0,1.44,1.19,1.78,2.34,2.11,1,.28,1.93.55,1.93,1.52a1.82,1.82,0,0,1-2,1.71A2.3,2.3,0,0,1,91,103.78a.44.44,0,0,1,0-.1C91,103.51,90.93,103.47,90.86,103.47Z"/><path class="cls-7" d="M96.3,103.45a2.37,2.37,0,0,1,2.36-2.39c.53,0,1.24.15,1.27.39s0,.48,0,.62,0,.22-.08.22-.22-.2-.25-.24a1.52,1.52,0,0,0-1.3-.65c-.9,0-1.24.93-1.24,1.68a1.87,1.87,0,0,0,1.85,2.07c.82,0,1.29-.61,1.44-.61s.09,0,.09.07a2.11,2.11,0,0,1-2.07,1.07A2.16,2.16,0,0,1,96.3,103.45Z"/><path class="cls-7" d="M98.38,105.73a2.21,2.21,0,0,1-2.13-2.28A2.42,2.42,0,0,1,98.66,101c.51,0,1.28.14,1.32.43a3.08,3.08,0,0,1,0,.52v.11c0,.18,0,.27-.13.27s-.22-.16-.28-.24v0a1.47,1.47,0,0,0-1.26-.63c-.82,0-1.19.85-1.19,1.63a1.81,1.81,0,0,0,1.8,2,1.94,1.94,0,0,0,1.18-.46c.12-.09.2-.15.26-.15a.14.14,0,0,1,.14.12A2.12,2.12,0,0,1,98.38,105.73Zm.28-4.62a2.33,2.33,0,0,0-2.31,2.34,2.11,2.11,0,0,0,2,2.18,2.08,2.08,0,0,0,2-1l0,0a1,1,0,0,0-.2.13,2,2,0,0,1-1.24.48,1.93,1.93,0,0,1-1.9-2.12c0-.83.4-1.73,1.29-1.73a1.56,1.56,0,0,1,1.34.67l0,0s.13.19.19.19,0,0,0-.17V102a3,3,0,0,0,0-.51C99.86,101.28,99.26,101.11,98.66,101.11Z"/><path class="cls-7" d="M101.26,102.19c0-.63-.57-.35-.57-.58a.11.11,0,0,1,.09-.11c.67-.19.88-.53,1.12-.53.07,0,.13.07.13.17v3.77c0,.54.83.31.83.58,0,.08-.06.11-.2.11s-.55,0-1,0-.61,0-.72,0-.15,0-.16-.11c0-.26.46.13.46-.82Zm.82-2.74c0,.13-.3.55-.44.55s-.44-.43-.44-.55.31-.55.44-.55S102.08,99.33,102.08,99.45Z"/><path class="cls-7" d="M102.66,105.65h-.33c-.18,0-.4,0-.65,0s-.39,0-.53,0H101a.18.18,0,0,1-.21-.16c0-.13.1-.15.17-.17s.29-.06.29-.65v-2.48c0-.35-.19-.38-.35-.41s-.22,0-.22-.17a.16.16,0,0,1,.13-.16,2.57,2.57,0,0,0,.76-.36.76.76,0,0,1,.37-.17.2.2,0,0,1,.18.22v3.77c0,.25.2.31.48.36s.35.06.35.22S102.73,105.65,102.66,105.65Zm-1-.14c.26,0,.48,0,.65,0h.33c.15,0,.15,0,.15-.06s-.1-.09-.27-.12-.56-.1-.56-.46v-3.77c0-.07,0-.12-.08-.12a.72.72,0,0,0-.31.15,2.71,2.71,0,0,1-.8.38s-.05,0-.05.06,0,0,.13.07.44.07.44.51v2.48c0,.62-.18.71-.37.75s-.09,0-.09.07.05.07.29.05S101.47,105.51,101.68,105.51Zm0-5.46c-.16,0-.49-.46-.49-.6s.33-.6.49-.6.49.46.49.6S101.81,100.05,101.64,100.05Zm0-1.1a.52.52,0,0,0,0,1c.1,0,.39-.39.39-.5S101.74,99,101.64,99Z"/><path class="cls-7" d="M103.73,102.91c0,1.73,1,2.24,1.69,2.24.9,0,1.25-.54,1.48-.54,0,0,0,0,0,.07a2.24,2.24,0,0,1-1.86,1,2.17,2.17,0,0,1-2.12-2.15,2.19,2.19,0,0,1,2.06-2.47,1.94,1.94,0,0,1,1.86,1.67c0,.19-.12.18-.36.18Zm2.07-.29c.14,0,.21-.05.21-.21a1.2,1.2,0,0,0-1.17-1.11c-.65,0-1.11.75-1.11,1.32Z"/><path class="cls-7" d="M105.08,105.73A2.37,2.37,0,0,1,105,101a2,2,0,0,1,1.91,1.72.2.2,0,0,1-.06.16c-.06.07-.16.06-.31.07h-2.78c0,1.69,1.08,2.14,1.64,2.14a1.89,1.89,0,0,0,1.16-.39.64.64,0,0,1,.32-.15q.09,0,.09.12C107,105,106,105.73,105.08,105.73Zm-.06-4.62a2.14,2.14,0,0,0-2,2.42,2.12,2.12,0,0,0,2.07,2.1,2.26,2.26,0,0,0,1.81-.95v0a.6.6,0,0,0-.25.13,2,2,0,0,1-1.22.41c-.6,0-1.74-.48-1.74-2.29v0h2.88c.13,0,.21,0,.24,0s0,0,0-.09A1.89,1.89,0,0,0,105,101.11Zm.78,1.56h-2.12v0a1.36,1.36,0,0,1,1.16-1.37,1.25,1.25,0,0,1,1.22,1.16C106.06,102.59,106,102.67,105.8,102.67Zm-2-.1h2c.12,0,.16,0,.16-.16a1.15,1.15,0,0,0-1.12-1.06C104.21,101.35,103.81,102.06,103.78,102.57Z"/><path class="cls-7" d="M108.61,104.75c0,.73.93.42.93.71,0,.12-.08.14-.23.14s-.39,0-1,0-.77,0-.89,0-.19,0-.19-.12.62,0,.62-.68v-2.61c0-.63-.78-.35-.78-.58a.11.11,0,0,1,.1-.11c.87-.19,1.08-.53,1.32-.53.06,0,.12.07.12.17v.7a2.29,2.29,0,0,1,1.53-.78c1.4,0,1.71,1.16,1.71,2v1.73c0,.73.82.42.82.71,0,.12-.08.14-.18.14s-.4,0-.92,0-.62,0-.75,0-.19,0-.19-.12.45,0,.45-.68v-2a1.28,1.28,0,0,0-1.23-1.31,1.18,1.18,0,0,0-1.24.82Z"/><path class="cls-7" d="M112.49,105.65h-.19c-.16,0-.39,0-.73,0s-.43,0-.56,0h-.19c-.12,0-.24,0-.24-.17s.09-.14.16-.17.29-.11.29-.51v-2a1.23,1.23,0,0,0-1.18-1.26,1.34,1.34,0,0,0-1,.39.72.72,0,0,0-.21.38v2.41c0,.41.31.46.58.5s.35.06.35.21-.17.19-.28.19h-.22c-.17,0-.39,0-.78,0s-.59,0-.73,0h-.16c-.12,0-.24,0-.24-.17s.11-.14.21-.17a.45.45,0,0,0,.41-.51v-2.61c0-.35-.26-.38-.49-.41s-.29,0-.29-.17a.16.16,0,0,1,.14-.16,2.9,2.9,0,0,0,1-.39.75.75,0,0,1,.35-.14.2.2,0,0,1,.17.22v.59a2,2,0,0,1,1.48-.72,1.79,1.79,0,0,1,1.76,2v1.73c0,.41.27.46.5.5s.32.06.32.21S112.56,105.65,112.49,105.65Zm-.92-.14c.35,0,.58,0,.73,0s.32,0,.32-.08-.07-.08-.23-.11-.59-.11-.59-.6V103a1.68,1.68,0,0,0-1.66-1.91,1.91,1.91,0,0,0-1.41.7c-.07.08-.1.1-.14.08h0v-.74c0-.07,0-.12-.07-.12a.62.62,0,0,0-.3.13,3.25,3.25,0,0,1-1,.4.06.06,0,0,0-.06.06s.1.06.2.07.58.07.58.51v2.61a.54.54,0,0,1-.48.6c-.1,0-.14,0-.14.08s0,.09.29.06.36,0,.74,0,.62,0,.78,0h.22c.17,0,.18,0,.18-.09s-.1-.09-.27-.11-.66-.11-.66-.6v-2.41a.8.8,0,0,1,.24-.44,1.39,1.39,0,0,1,1-.43,1.33,1.33,0,0,1,1.28,1.36v2c0,.47-.21.55-.35.6s-.1,0-.1.08,0,.07.14.07H111C111.14,105.53,111.32,105.51,111.57,105.51Z"/><path class="cls-7" d="M112.67,103.45a2.37,2.37,0,0,1,2.36-2.39c.52,0,1.24.15,1.27.39s0,.48,0,.62,0,.22-.08.22-.22-.2-.26-.24a1.5,1.5,0,0,0-1.3-.65c-.89,0-1.24.93-1.24,1.68a1.88,1.88,0,0,0,1.86,2.07c.82,0,1.28-.61,1.44-.61s.08,0,.08.07a2.11,2.11,0,0,1-2.06,1.07A2.16,2.16,0,0,1,112.67,103.45Z"/><path class="cls-7" d="M114.75,105.73a2.21,2.21,0,0,1-2.13-2.28A2.42,2.42,0,0,1,115,101c.51,0,1.28.14,1.32.43a4.68,4.68,0,0,1,0,.52v.11c0,.18,0,.27-.13.27s-.22-.16-.28-.24l0,0a1.46,1.46,0,0,0-1.26-.63c-.81,0-1.19.85-1.19,1.63a1.81,1.81,0,0,0,1.81,2,1.94,1.94,0,0,0,1.18-.46c.12-.09.2-.15.26-.15a.14.14,0,0,1,.13.12A2.12,2.12,0,0,1,114.75,105.73Zm.28-4.62a2.33,2.33,0,0,0-2.31,2.34,2.11,2.11,0,0,0,2,2.18,2.06,2.06,0,0,0,2-1l0,0a.78.78,0,0,0-.2.13,2,2,0,0,1-1.24.48,1.94,1.94,0,0,1-1.91-2.12c0-.83.41-1.73,1.29-1.73A1.54,1.54,0,0,1,116,102l0,0s.12.19.19.19,0,0,0-.17V102a4.5,4.5,0,0,0,0-.51C116.23,101.28,115.62,101.11,115,101.11Z"/><path class="cls-7" d="M117.87,102.91c0,1.73,1,2.24,1.69,2.24.9,0,1.25-.54,1.48-.54,0,0,0,0,0,.07a2.24,2.24,0,0,1-1.86,1,2.17,2.17,0,0,1-2.12-2.15,2.19,2.19,0,0,1,2.06-2.47,1.94,1.94,0,0,1,1.86,1.67c0,.19-.12.18-.36.18Zm2.07-.29c.14,0,.21-.05.21-.21A1.2,1.2,0,0,0,119,101.3c-.65,0-1.11.75-1.11,1.32Z"/><path class="cls-7" d="M119.22,105.73a2.37,2.37,0,0,1-.06-4.72,2,2,0,0,1,1.91,1.72.2.2,0,0,1-.06.16c-.06.07-.16.06-.31.07h-2.78c0,1.69,1.08,2.14,1.64,2.14a1.89,1.89,0,0,0,1.16-.39.64.64,0,0,1,.32-.15q.09,0,.09.12C121.13,105,120.18,105.73,119.22,105.73Zm-.06-4.62a2.14,2.14,0,0,0-2,2.42,2.12,2.12,0,0,0,2.07,2.1,2.26,2.26,0,0,0,1.81-.95v0a.6.6,0,0,0-.25.13,2,2,0,0,1-1.22.41c-.6,0-1.74-.48-1.74-2.29v0h2.88c.12,0,.21,0,.24,0s0,0,0-.09A1.89,1.89,0,0,0,119.16,101.11Zm.78,1.56h-2.12v0a1.36,1.36,0,0,1,1.16-1.37,1.25,1.25,0,0,1,1.22,1.16C120.2,102.59,120.12,102.67,119.94,102.67Zm-2-.1h2c.12,0,.16,0,.16-.16a1.15,1.15,0,0,0-1.12-1.06C118.35,101.35,118,102.06,117.92,102.57Z"/><path class="cls-7" d="M127.56,98.08a5.3,5.3,0,0,1,2.82.81c.09,0,.15-.11.26-.11s.11.17.14.85.12.9-.06.9-.2-.27-.24-.34a3,3,0,0,0-2.75-1.81c-2,0-3,1.37-3,3.32s1,3.65,3.07,3.65a3.08,3.08,0,0,0,2.83-1.53.19.19,0,0,1,.15-.14.12.12,0,0,1,.1.12l-.25,1s-.75.83-3.11.83a3.52,3.52,0,0,1-3.7-3.66A3.78,3.78,0,0,1,127.56,98.08Z"/><path class="cls-7" d="M127.48,105.73a3.57,3.57,0,0,1-3.75-3.71,3.83,3.83,0,0,1,3.83-4,4.34,4.34,0,0,1,2.51.66.92.92,0,0,0,.31.15.18.18,0,0,0,.09,0,.29.29,0,0,1,.17-.07c.15,0,.16.15.19.78v.12c0,.15,0,.28,0,.4s0,.43,0,.51a.12.12,0,0,1-.1,0c-.13,0-.2-.17-.25-.3a.13.13,0,0,1,0-.07,2.93,2.93,0,0,0-2.71-1.78c-1.9,0-3,1.19-3,3.27,0,1.79,1,3.6,3,3.6a3.08,3.08,0,0,0,2.79-1.5.22.22,0,0,1,.19-.17.16.16,0,0,1,.14.18l-.24,1C130.62,105,129.8,105.73,127.48,105.73Zm.08-7.6a3.73,3.73,0,0,0-3.73,3.89,3.47,3.47,0,0,0,3.65,3.61c2.38,0,3.06-.8,3.07-.8l.24-1a.08.08,0,0,0,0,0l0,0s-.08,0-.1.1a3.1,3.1,0,0,1-2.88,1.57c-2.05,0-3.12-1.86-3.12-3.7,0-2.14,1.13-3.37,3.09-3.37a3,3,0,0,1,2.79,1.83.39.39,0,0,1,0,.09c0,.07.1.23.16.23h0a.9.9,0,0,0,0-.43c0-.12,0-.26,0-.41v-.12c0-.47,0-.68-.09-.68a.21.21,0,0,0-.12,0,.22.22,0,0,1-.14.06.8.8,0,0,1-.36-.17A4.23,4.23,0,0,0,127.56,98.13Z"/><path class="cls-7" d="M132,102.91c0,1.73,1.05,2.24,1.69,2.24.9,0,1.25-.54,1.48-.54,0,0,0,0,0,.07a2.24,2.24,0,0,1-1.86,1,2.17,2.17,0,0,1-2.12-2.15,2.19,2.19,0,0,1,2.06-2.47,1.94,1.94,0,0,1,1.86,1.67c0,.19-.12.18-.36.18Zm2.07-.29c.14,0,.21-.05.21-.21a1.2,1.2,0,0,0-1.17-1.11c-.65,0-1.11.75-1.11,1.32Z"/><path class="cls-7" d="M133.35,105.73a2.37,2.37,0,0,1-.06-4.72,2,2,0,0,1,1.91,1.72.2.2,0,0,1-.06.16c0,.06-.14.07-.28.07h-2.81c0,1.69,1.08,2.14,1.64,2.14a1.89,1.89,0,0,0,1.16-.39.64.64,0,0,1,.32-.15q.09,0,.09.12C135.26,105,134.31,105.73,133.35,105.73Zm-.06-4.62a2.14,2.14,0,0,0-2,2.42,2.12,2.12,0,0,0,2.07,2.1,2.26,2.26,0,0,0,1.81-.95v0a.6.6,0,0,0-.25.13,2,2,0,0,1-1.22.41c-.6,0-1.74-.48-1.74-2.29v0h2.91c.11,0,.18,0,.21,0s0,0,0-.09A1.89,1.89,0,0,0,133.29,101.11Zm.78,1.56H132v0a1.36,1.36,0,0,1,1.16-1.37,1.25,1.25,0,0,1,1.22,1.16C134.33,102.59,134.25,102.67,134.07,102.67Zm-2-.1h2c.12,0,.16,0,.16-.16a1.16,1.16,0,0,0-1.12-1.06C132.48,101.35,132.08,102.06,132.05,102.57Z"/><path class="cls-7" d="M136.88,104.75c0,.73.93.42.93.71,0,.12-.08.14-.23.14s-.39,0-1,0-.77,0-.89,0-.19,0-.19-.12.62,0,.62-.68v-2.61c0-.63-.78-.35-.78-.58a.11.11,0,0,1,.09-.11c.88-.19,1.09-.53,1.33-.53.06,0,.12.07.12.17v.7a2.29,2.29,0,0,1,1.53-.78c1.4,0,1.71,1.16,1.71,2v1.73c0,.73.82.42.82.71,0,.12-.08.14-.18.14s-.4,0-.92,0-.62,0-.75,0-.19,0-.19-.12.45,0,.45-.68v-2a1.28,1.28,0,0,0-1.23-1.31,1.18,1.18,0,0,0-1.24.82Z"/><path class="cls-7" d="M140.76,105.65h-.19c-.16,0-.39,0-.73,0s-.43,0-.56,0h-.19c-.12,0-.24,0-.24-.17s.09-.14.16-.17.29-.11.29-.51v-2a1.23,1.23,0,0,0-1.18-1.26,1.34,1.34,0,0,0-1,.39.72.72,0,0,0-.21.38v2.41c0,.41.31.46.58.5s.35.06.35.21-.17.19-.28.19h-.22c-.17,0-.39,0-.78,0s-.59,0-.73,0h-.16c-.12,0-.24,0-.24-.17s.11-.14.21-.17a.45.45,0,0,0,.41-.51v-2.61c0-.35-.26-.38-.49-.41s-.29,0-.29-.17a.16.16,0,0,1,.13-.16,2.88,2.88,0,0,0,1-.39.75.75,0,0,1,.35-.14.2.2,0,0,1,.17.22v.59a2,2,0,0,1,1.48-.72,1.79,1.79,0,0,1,1.76,2v1.73c0,.41.27.46.5.5s.32.06.32.21S140.83,105.65,140.76,105.65Zm-.92-.14c.35,0,.58,0,.73,0s.32,0,.32-.08-.07-.08-.23-.11-.59-.11-.59-.6V103a1.68,1.68,0,0,0-1.66-1.91,2,2,0,0,0-1.42.7c-.06.08-.09.1-.13.08h0v-.74c0-.07,0-.12-.07-.12a.62.62,0,0,0-.3.13,3.25,3.25,0,0,1-1,.4.06.06,0,0,0-.06.06s.1.06.2.07.58.07.58.51v2.61a.54.54,0,0,1-.48.6c-.1,0-.14,0-.14.08s0,.09.29.06c.14,0,.36,0,.74,0s.62,0,.78,0h.22c.17,0,.18,0,.18-.09s-.1-.09-.27-.11-.66-.11-.66-.6v-2.41a.8.8,0,0,1,.24-.44,1.39,1.39,0,0,1,1.05-.43,1.33,1.33,0,0,1,1.28,1.36v2c0,.47-.21.55-.35.6s-.1,0-.1.08,0,.07.14.07h.18C139.41,105.53,139.59,105.51,139.84,105.51Z"/><path class="cls-7" d="M141.46,101.63c-.5,0-.57,0-.57-.08s.26-.26.8-.85c.21-.25.31-.48.4-.48s.13.22.13,1h1.16a.67.67,0,0,0,.41-.17.08.08,0,0,1,.07.08.42.42,0,0,1-.06.15l-.21.38h-1.37v3.05a.65.65,0,0,0,.74.63c.55,0,.71-.24.89-.24s.08,0,.08.09-.56.52-1.3.52c-.48,0-1.17-.14-1.17-1.22Z"/><path class="cls-7" d="M142.63,105.73a1.1,1.1,0,0,1-1.22-1.27v-2.78c-.5,0-.57,0-.57-.13s.06-.13.23-.29.33-.31.58-.59a3.07,3.07,0,0,0,.2-.27c.1-.15.16-.23.24-.23s.16.15.17.22,0,.34,0,.67v.09h1.11a.46.46,0,0,0,.33-.14.1.1,0,0,1,.08,0,.13.13,0,0,1,.12.13.36.36,0,0,1-.07.17l-.22.41h-1.35v3a.61.61,0,0,0,.69.58,1.28,1.28,0,0,0,.66-.16.43.43,0,0,1,.23-.08.12.12,0,0,1,.13.14C144,105.38,143.35,105.73,142.63,105.73Zm-.54-5.46s-.1.1-.16.18a3.07,3.07,0,0,1-.2.28c-.26.29-.46.48-.59.6s-.2.19-.2.22a1.62,1.62,0,0,0,.52,0h0v2.88c0,.79.36,1.17,1.12,1.17a1.49,1.49,0,0,0,1.25-.47s0,0,0,0a.41.41,0,0,0-.18.07,1.49,1.49,0,0,1-.71.17.7.7,0,0,1-.79-.68v-3.1h1.39l.19-.36a.27.27,0,0,0,.06-.12s0,0,0,0h0a.55.55,0,0,1-.4.16h-1.21v-.18c0-.32,0-.53,0-.66S142.11,100.27,142.09,100.27Z"/><path class="cls-7" d="M144.78,102.91c0,1.73,1.05,2.24,1.69,2.24.9,0,1.25-.54,1.48-.54,0,0,0,0,0,.07a2.23,2.23,0,0,1-1.85,1,2.17,2.17,0,0,1-2.13-2.15,2.19,2.19,0,0,1,2.06-2.47,1.94,1.94,0,0,1,1.86,1.67c0,.19-.11.18-.36.18Zm2.07-.29c.15,0,.21-.05.21-.21a1.2,1.2,0,0,0-1.17-1.11c-.65,0-1.11.75-1.11,1.32Z"/><path class="cls-7" d="M146.14,105.73a2.37,2.37,0,0,1-.07-4.72,2,2,0,0,1,1.91,1.72.23.23,0,0,1,0,.16c-.07.07-.17.06-.32.07h-2.78c0,1.69,1.08,2.14,1.64,2.14a1.87,1.87,0,0,0,1.16-.39.64.64,0,0,1,.32-.15q.09,0,.09.12C148,105,147.09,105.73,146.14,105.73Zm-.07-4.62a2.27,2.27,0,0,0,.07,4.52,2.24,2.24,0,0,0,1.8-.95v0a.66.66,0,0,0-.25.13,2,2,0,0,1-1.22.41c-.6,0-1.74-.48-1.74-2.29v0h2.88c.12,0,.21,0,.25,0a.17.17,0,0,0,0-.09A1.88,1.88,0,0,0,146.07,101.11Zm.78,1.56h-2.12v0a1.36,1.36,0,0,1,1.16-1.37,1.25,1.25,0,0,1,1.22,1.16C147.11,102.59,147,102.67,146.85,102.67Zm-2-.1h2c.12,0,.16,0,.16-.16a1.15,1.15,0,0,0-1.12-1.06C145.27,101.35,144.86,102.06,144.83,102.57Z"/><path class="cls-7" d="M149.66,104.68c0,1,.93.47.93.81,0,.09-.05.11-.16.11s-.4,0-1,0a9.49,9.49,0,0,0-1,0c-.08,0-.11,0-.11-.09,0-.22.53-.18.53-.61v-2.71c0-.63-.75-.35-.75-.58,0-.06.08-.1.13-.11.81-.19,1-.53,1.26-.53.07,0,.13.07.13.17v.79h0c.22-.3.6-.87,1-.87.22,0,.69.27.69.47s-.25.47-.37.47-.32-.24-.7-.24a.77.77,0,0,0-.68.62Z"/><path class="cls-7" d="M150.43,105.65h-.2c-.16,0-.4,0-.79,0a7.77,7.77,0,0,0-.88,0h-.09c-.13,0-.16-.07-.16-.14s.11-.18.23-.24.3-.15.3-.37v-2.71c0-.35-.25-.38-.47-.41s-.28,0-.28-.17.1-.15.17-.16a3,3,0,0,0,.92-.38.68.68,0,0,1,.35-.15.2.2,0,0,1,.18.22v.66c.24-.33.59-.79,1-.79.25,0,.74.29.74.52s-.26.52-.42.52a.49.49,0,0,1-.26-.1.82.82,0,0,0-.44-.14.73.73,0,0,0-.63.57v2.3c0,.57.32.59.6.61s.33,0,.33.2S150.5,105.65,150.43,105.65Zm-1-.14c.39,0,.64,0,.8,0h.19c.12,0,.12,0,.12-.06s-.06-.08-.25-.1-.69,0-.69-.71v-2.3a.76.76,0,0,1,1.22-.51.4.4,0,0,0,.21.08.65.65,0,0,0,.32-.42c0-.16-.43-.42-.64-.42-.39,0-.74.49-1,.79l0,.08h-.1v-.84c0-.07,0-.12-.08-.12a.79.79,0,0,0-.3.13,3,3,0,0,1-.94.4s-.1,0-.1.06.07,0,.19.07.56.07.56.51v2.71a.5.5,0,0,1-.36.46c-.11.06-.17.09-.17.15s0,0,.06,0h.08A8.22,8.22,0,0,1,149.44,105.51Z"/><path class="cls-7" d="M156.62,102.24c0-.54-.43-.91-1.08-.91-.5,0-.91,0-.91.63,0,.16.06.32.06.43s0,.2-.23.2-.49-.16-.49-.35c0-.48.59-1.21,1.76-1.18.65,0,1.66.19,1.66,1.08v2.17c0,.36-.1,1,.45,1l.18,0s.13,0,.13.07-.46.26-.6.26a.8.8,0,0,1-.82-.53,2.5,2.5,0,0,1-1.61.61c-.68,0-1.13-.25-1.13-1,0-.56.18-1.22,2.63-1.63Zm0,1.07c-.67.14-2,.31-2,1.23,0,.6.3.83.86.83.38,0,1.09-.29,1.09-.85Z"/><path class="cls-7" d="M155.12,105.73c-.8,0-1.18-.35-1.18-1s.2-1.26,2.63-1.67v-.77c0-.51-.41-.86-1-.86s-.86.09-.86.58a1,1,0,0,0,0,.24.68.68,0,0,1,0,.19c0,.12,0,.25-.28.25s-.54-.16-.54-.4a1.1,1.1,0,0,1,.37-.74,2,2,0,0,1,1.37-.49h.07c.4,0,1.71.08,1.71,1.13v2.17a.81.81,0,0,1,0,.15,1.07,1.07,0,0,0,.13.68.37.37,0,0,0,.28.1H158s.18,0,.18.12c0,.31-.65.31-.65.31a.85.85,0,0,1-.84-.5A2.57,2.57,0,0,1,155.12,105.73Zm.42-4.45a1,1,0,0,1,1.13,1v.86h0c-2.39.4-2.59,1-2.59,1.58s.34.95,1.08.95a2.44,2.44,0,0,0,1.57-.6l.06,0,0,.06a.77.77,0,0,0,.78.5c.17,0,.55,0,.55-.21s0,0-.08,0h-.18a.45.45,0,0,1-.35-.13,1.08,1.08,0,0,1-.15-.76v-2.31c0-1-1.23-1-1.61-1a1.93,1.93,0,0,0-1.37.46,1,1,0,0,0-.34.68c0,.14.28.29.44.29s.18-.06.18-.15a.55.55,0,0,0,0-.17,2.06,2.06,0,0,1,0-.26C154.58,101.33,155,101.28,155.54,101.28Zm0,4.14c-.61,0-.91-.28-.91-.88,0-.88,1.08-1.1,1.79-1.24l.2,0,.06,0v1.28C156.67,105.11,155.93,105.42,155.53,105.42Zm1-2-.14,0c-.68.13-1.71.35-1.71,1.14,0,.54.25.78.81.78.35,0,1-.28,1-.8Z"/><path class="cls-7" d="M158.69,101.63c-.49,0-.57,0-.57-.08s.26-.26.8-.85c.21-.25.31-.48.4-.48s.14.22.14,1h1.15A.67.67,0,0,0,161,101a.08.08,0,0,1,.07.08.42.42,0,0,1-.06.15l-.21.38h-1.36v3.05a.64.64,0,0,0,.73.63c.56,0,.71-.24.89-.24s.09,0,.09.09-.57.52-1.31.52c-.48,0-1.17-.14-1.17-1.22Z"/><path class="cls-7" d="M159.86,105.73a1.1,1.1,0,0,1-1.22-1.27v-2.78c-.5,0-.57,0-.57-.13s.07-.12.24-.29.32-.31.57-.59a3.07,3.07,0,0,0,.2-.27c.1-.15.16-.23.24-.23s.16.15.17.22a5.39,5.39,0,0,1,0,.66v.1h1.1a.44.44,0,0,0,.33-.14.1.1,0,0,1,.08,0,.12.12,0,0,1,.12.13.28.28,0,0,1-.07.17l-.22.41h-1.34v3a.6.6,0,0,0,.68.58,1.35,1.35,0,0,0,.67-.16.42.42,0,0,1,.22-.08.13.13,0,0,1,.14.14C161.22,105.38,160.58,105.73,159.86,105.73Zm-.54-5.46s-.1.1-.15.18l-.21.28c-.26.29-.46.48-.59.6a2.1,2.1,0,0,0-.2.22,1.66,1.66,0,0,0,.52,0h.05v2.88c0,.79.37,1.17,1.12,1.17a1.5,1.5,0,0,0,1.26-.47s0,0,0,0a.46.46,0,0,0-.18.07,1.42,1.42,0,0,1-.71.17.69.69,0,0,1-.78-.68v-3.1h1.38l.2-.36a.38.38,0,0,0,0-.12,0,0,0,0,0,0,0h0a.55.55,0,0,1-.4.16h-1.2v-.19a5.2,5.2,0,0,0,0-.65C159.37,100.27,159.34,100.27,159.32,100.27Z"/><path class="cls-7" d="M163.75,103.75c0-.21,0-.33.12-.33s.14.13.2.35a2.23,2.23,0,0,0,2.2,1.57,1.76,1.76,0,0,0,2-1.66c0-2-4.26-.89-4.26-3.63a2.06,2.06,0,0,1,2.33-2,3.84,3.84,0,0,1,1.77.37c.09,0,.11-.11.22-.11s.11,0,.12.15l.16,1.42c0,.09,0,.16-.12.16s-.18-.22-.22-.31a2,2,0,0,0-2-1.37c-.83,0-1.71.4-1.71,1.37,0,2,4.26.82,4.26,3.71,0,.88-.62,2.21-3,2.21a2.75,2.75,0,0,1-1.78-.58Z"/><path class="cls-7" d="M165.79,105.73c-.77,0-1.77-.38-1.83-.62l-.26-1.36a.37.37,0,0,1,0-.32.15.15,0,0,1,.13-.06c.16,0,.19.13.22.29a.3.3,0,0,1,0,.1,2.22,2.22,0,0,0,2.16,1.53,1.72,1.72,0,0,0,1.92-1.61c0-.9-.9-1.15-1.85-1.43-1.13-.32-2.41-.69-2.41-2.2a2.12,2.12,0,0,1,2.38-2,3.36,3.36,0,0,1,1.63.32.39.39,0,0,0,.14.05s0,0,.07,0a.19.19,0,0,1,.15-.07c.07,0,.16,0,.17.19l.16,1.43a.17.17,0,0,1-.17.21c-.15,0-.23-.23-.26-.35a2,2,0,0,0-2-1.33c-.83,0-1.66.41-1.66,1.32s.83,1.09,1.79,1.37c1.16.34,2.47.72,2.47,2.34a2.07,2.07,0,0,1-.62,1.47A3.4,3.4,0,0,1,165.79,105.73Zm-1.92-2.26a.06.06,0,0,0-.05,0s0,.08,0,.25h0l.26,1.35a2.88,2.88,0,0,0,1.73.54c2.81,0,3-1.8,3-2.16,0-1.55-1.22-1.9-2.4-2.24-1-.28-1.86-.54-1.86-1.47s.88-1.42,1.76-1.42a2,2,0,0,1,2,1.4c.06.19.12.28.17.28h.06a.22.22,0,0,0,0-.09l-.16-1.43c0-.1-.05-.1-.07-.1s-.06,0-.09,0a.18.18,0,0,1-.13.06.45.45,0,0,1-.19-.06,3.2,3.2,0,0,0-1.58-.31,2,2,0,0,0-2.28,1.92c0,1.44,1.19,1.78,2.34,2.11,1,.28,1.92.55,1.92,1.52a1.82,1.82,0,0,1-2,1.71,2.3,2.3,0,0,1-2.25-1.61.44.44,0,0,1,0-.1C164,103.51,163.94,103.47,163.87,103.47Z"/><path class="cls-7" d="M172,102.24c0-.54-.43-.91-1.08-.91-.5,0-.91,0-.91.63,0,.16.06.32.06.43s0,.2-.23.2-.49-.16-.49-.35c0-.48.6-1.21,1.76-1.18.65,0,1.66.19,1.66,1.08v2.17c0,.36-.09,1,.45,1l.18,0c.05,0,.14,0,.14.07s-.46.26-.61.26a.8.8,0,0,1-.82-.53,2.5,2.5,0,0,1-1.61.61c-.68,0-1.13-.25-1.13-1,0-.56.18-1.22,2.63-1.63Zm0,1.07c-.67.14-2,.31-2,1.23,0,.6.31.83.86.83.38,0,1.09-.29,1.09-.85Z"/><path class="cls-7" d="M170.49,105.73c-.79,0-1.18-.35-1.18-1s.2-1.26,2.63-1.67v-.77c0-.51-.41-.86-1-.86s-.86.09-.86.58a2,2,0,0,0,0,.24.68.68,0,0,1,0,.19c0,.13,0,.25-.28.25s-.54-.17-.54-.4a1.11,1.11,0,0,1,.38-.74A1.92,1.92,0,0,1,171,101h.07c.4,0,1.71.08,1.71,1.13v2.32a1,1,0,0,0,.13.68.33.33,0,0,0,.27.1h.18c.05,0,.19,0,.19.12,0,.31-.66.31-.66.31a.85.85,0,0,1-.84-.5A2.55,2.55,0,0,1,170.49,105.73Zm.42-4.45a1,1,0,0,1,1.13,1v.86h0c-2.39.4-2.59,1-2.59,1.58s.34.95,1.08.95a2.49,2.49,0,0,0,1.58-.6l.05,0,0,.06a.76.76,0,0,0,.77.5c.17,0,.56,0,.56-.21s0,0-.09,0h-.18a.46.46,0,0,1-.35-.13,1.08,1.08,0,0,1-.15-.76v-2.31c0-1-1.23-1-1.61-1H171a1.83,1.83,0,0,0-1.29.46,1,1,0,0,0-.35.68c0,.14.28.29.44.29s.18-.06.18-.15a1.11,1.11,0,0,0,0-.17,1.09,1.09,0,0,1,0-.26C170,101.33,170.41,101.28,170.91,101.28Zm0,4.14c-.61,0-.91-.28-.91-.88,0-.88,1.08-1.1,1.8-1.24l.19,0,.06,0v1.28C172,105.11,171.3,105.42,170.9,105.42Zm1-2-.13,0c-.69.13-1.72.35-1.72,1.14,0,.54.25.78.81.78.36,0,1-.28,1-.8Z"/><path class="cls-7" d="M175.21,104.75c0,.73.92.42.92.71,0,.12-.07.14-.23.14s-.39,0-1,0-.76,0-.89,0-.19,0-.19-.12.62,0,.62-.68v-2.61c0-.63-.78-.35-.78-.58a.12.12,0,0,1,.1-.11c.87-.19,1.08-.53,1.32-.53a.16.16,0,0,1,.13.17v.7a2.25,2.25,0,0,1,1.52-.78c1.41,0,1.71,1.16,1.71,2v1.73c0,.73.82.42.82.71,0,.12-.07.14-.18.14s-.4,0-.91,0-.62,0-.76,0-.19,0-.19-.12.45,0,.45-.68v-2a1.27,1.27,0,0,0-1.22-1.31,1.17,1.17,0,0,0-1.24.82Z"/><path class="cls-7" d="M179.08,105.65h-.19c-.15,0-.38,0-.72,0s-.43,0-.56,0h-.2c-.12,0-.24,0-.24-.17s.09-.14.17-.17.28-.11.28-.51v-2a1.23,1.23,0,0,0-1.17-1.26,1.35,1.35,0,0,0-1,.39.68.68,0,0,0-.2.38v2.41c0,.41.3.46.57.5s.35.06.35.21-.17.19-.28.19h-.22c-.16,0-.38,0-.78,0s-.59,0-.73,0H174c-.12,0-.24,0-.24-.17s.11-.14.22-.17a.45.45,0,0,0,.4-.51v-2.61c0-.35-.26-.38-.49-.41s-.29,0-.29-.17a.17.17,0,0,1,.14-.16,3,3,0,0,0,1-.39.69.69,0,0,1,.34-.14.2.2,0,0,1,.18.22v.59a2,2,0,0,1,1.47-.72,1.79,1.79,0,0,1,1.76,2v1.73c0,.41.27.46.51.5s.31.06.31.21S179.15,105.65,179.08,105.65Zm-.91-.14c.34,0,.57,0,.73,0s.31,0,.31-.08-.07-.08-.23-.11-.59-.11-.59-.6V103a1.67,1.67,0,0,0-1.66-1.91,1.93,1.93,0,0,0-1.41.7c-.07.08-.09.1-.13.08h0v-.74c0-.07,0-.12-.08-.12a.63.63,0,0,0-.29.13,3.46,3.46,0,0,1-1,.4.06.06,0,0,0-.06.06s.11.06.2.07.58.07.58.51v2.61a.54.54,0,0,1-.48.6c-.09,0-.14,0-.14.08s0,.09.29.06.36,0,.74,0,.62,0,.79,0h.21c.17,0,.18,0,.18-.09s-.1-.09-.26-.11-.66-.11-.66-.6v-2.41a.71.71,0,0,1,.23-.44,1.42,1.42,0,0,1,1.06-.43,1.33,1.33,0,0,1,1.27,1.36v2c0,.47-.21.55-.35.6s-.1,0-.1.08,0,.07.14.07h.19C177.73,105.53,177.91,105.51,178.17,105.51Z"/><path class="cls-7" d="M186.92,103.1c-.1-.25-.16-.4-.46-.4h-2.31c-.2,0-.39,0-.49.22l-.67,1.47a1.07,1.07,0,0,0-.08.36c0,.74.75.42.75.7s-.15.15-.28.15c-.3,0-.59,0-.89,0s-.56,0-.84,0c-.06,0-.09,0-.09-.11,0-.22.49,0,.77-.64l2.51-5.36c.62-1.32.65-1.49.78-1.49s.19.31.22.39L188,103.8a6.31,6.31,0,0,0,.52,1.2c.32.48.93.25.93.51,0,.09-.08.09-.15.09-.43,0-.86,0-1.29,0s-.57,0-.85,0c-.07,0-.23,0-.23-.1,0-.25.63-.15.63-.55a4.1,4.1,0,0,0-.33-1Zm-2.83-1c-.07.14,0,.18.14.18h2.08c.23,0,.22-.07.16-.21l-1-2.53c-.05-.12-.1-.12-.16,0Z"/><path class="cls-7" d="M183.48,105.66h-.1l-.45,0-.44,0-.42,0-.42,0a.14.14,0,0,1-.14-.16c0-.13.11-.16.22-.2a.75.75,0,0,0,.55-.46l2.51-5.36.36-.79c.3-.64.34-.73.47-.73s.2.22.25.37,0,0,0,.05l2.18,5.41.12.32a5.69,5.69,0,0,0,.4.87.86.86,0,0,0,.62.33c.16,0,.32,0,.32.21s-.13.14-.2.14l-.65,0-.64,0-.42,0-.43,0c-.07,0-.28,0-.28-.15s.15-.2.29-.25.34-.12.34-.3a2.75,2.75,0,0,0-.24-.75l-.09-.23-.34-.87c-.1-.23-.15-.35-.41-.35h-2.31c-.2,0-.35,0-.45.19l-.67,1.47a1.18,1.18,0,0,0-.07.34c0,.42.25.46.47.5s.28,0,.28.2a.21.21,0,0,1-.05.15A.25.25,0,0,1,183.48,105.66Zm-1-.15.45,0,.44,0h.1a.16.16,0,0,0,.11,0,.13.13,0,0,0,0-.08c0-.06-.06-.07-.2-.1s-.55-.1-.55-.6a1,1,0,0,1,.08-.38l.67-1.47c.12-.25.34-.25.54-.25h2.31c.32,0,.4.18.5.41v0l.34.86a1.71,1.71,0,0,0,.09.22,3.07,3.07,0,0,1,.24.79c0,.26-.23.34-.41.4s-.22.08-.22.15,0,0,.18,0l.42,0,.43,0,.65,0,.64,0c.09,0,.1,0,.1,0s-.07-.08-.24-.11a.92.92,0,0,1-.68-.38,4.22,4.22,0,0,1-.41-.89l-.12-.31-2.18-5.41a.14.14,0,0,1,0-.06c-.07-.2-.12-.3-.16-.3s-.12.11-.37.67c-.1.21-.21.47-.37.8l-2.51,5.35a.88.88,0,0,1-.61.52c-.12,0-.15,0-.15.1s0,.06,0,.06l.41,0Zm3.82-3.23h-2.08c-.07,0-.16,0-.2-.07a.19.19,0,0,1,0-.19l1.18-2.55c0-.06.07-.12.13-.12h0c.06,0,.1.07.12.12l1,2.53c0,.09,0,.16,0,.21S186.43,102.28,186.31,102.28Zm-.95-2.83,0,.07-1.19,2.55a.13.13,0,0,0,0,.09.29.29,0,0,0,.12,0h2.08a.29.29,0,0,0,.14,0,.27.27,0,0,0,0-.12l-1-2.53S185.37,99.45,185.36,99.45Z"/><path class="cls-7" d="M191.18,104.75c0,.73.92.42.92.71,0,.12-.07.14-.23.14s-.39,0-1,0-.76,0-.89,0-.19,0-.19-.12.62,0,.62-.68v-2.61c0-.63-.78-.35-.78-.58a.12.12,0,0,1,.1-.11c.87-.19,1.08-.53,1.32-.53a.16.16,0,0,1,.13.17v.7a2.25,2.25,0,0,1,1.52-.78c1.41,0,1.71,1.16,1.71,2v1.73c0,.73.82.42.82.71,0,.12-.07.14-.18.14s-.4,0-.91,0-.62,0-.76,0-.19,0-.19-.12.45,0,.45-.68v-2a1.27,1.27,0,0,0-1.22-1.31,1.17,1.17,0,0,0-1.24.82Z"/><path class="cls-7" d="M195.05,105.65h-.19c-.15,0-.38,0-.72,0s-.43,0-.56,0h-.2c-.12,0-.24,0-.24-.17s.09-.14.17-.17.28-.11.28-.51v-2a1.23,1.23,0,0,0-1.17-1.26,1.35,1.35,0,0,0-1,.39.68.68,0,0,0-.2.38v2.41c0,.41.3.46.57.5s.35.06.35.21-.17.19-.28.19h-.22c-.16,0-.38,0-.78,0s-.59,0-.73,0H190c-.12,0-.24,0-.24-.17s.11-.14.22-.17a.45.45,0,0,0,.4-.51v-2.61c0-.35-.26-.38-.49-.41s-.29,0-.29-.17a.17.17,0,0,1,.14-.16,3,3,0,0,0,1-.39.69.69,0,0,1,.34-.14.2.2,0,0,1,.18.22v.59a2,2,0,0,1,1.47-.72,1.79,1.79,0,0,1,1.76,2v1.73c0,.41.27.46.51.5s.31.06.31.21S195.12,105.65,195.05,105.65Zm-.91-.14c.34,0,.57,0,.73,0s.31,0,.31-.08-.07-.08-.23-.11-.59-.11-.59-.6V103a1.67,1.67,0,0,0-1.66-1.91,1.93,1.93,0,0,0-1.41.7c-.07.08-.09.1-.13.08h0v-.74c0-.07,0-.12-.08-.12a.63.63,0,0,0-.29.13,3.46,3.46,0,0,1-1,.4.06.06,0,0,0-.06.06s.11.06.2.07.58.07.58.51v2.61a.54.54,0,0,1-.47.6c-.1,0-.15,0-.15.08s0,.09.29.06.36,0,.74,0,.62,0,.79,0h.21c.17,0,.18,0,.18-.09s-.1-.09-.26-.11-.66-.11-.66-.6v-2.41a.71.71,0,0,1,.23-.44,1.42,1.42,0,0,1,1.06-.43,1.33,1.33,0,0,1,1.27,1.36v2c0,.47-.21.55-.35.6s-.1,0-.1.08,0,.07.14.07h.19C193.7,105.53,193.88,105.51,194.14,105.51Z"/><path class="cls-7" d="M195.75,101.63c-.49,0-.57,0-.57-.08s.27-.26.8-.85c.21-.25.32-.48.4-.48s.14.22.14,1h1.15a.67.67,0,0,0,.41-.17.08.08,0,0,1,.07.08.42.42,0,0,1-.06.15l-.21.38h-1.36v3.05a.64.64,0,0,0,.73.63c.56,0,.72-.24.89-.24s.09,0,.09.09-.57.52-1.3.52c-.49,0-1.18-.14-1.18-1.22Z"/><path class="cls-7" d="M196.93,105.73a1.11,1.11,0,0,1-1.23-1.27v-2.78c-.5,0-.57,0-.57-.13s.07-.12.24-.29.32-.31.57-.59l.21-.27c.09-.15.15-.23.23-.23s.16.15.17.22a5.39,5.39,0,0,1,0,.66v.1h1.1A.49.49,0,0,0,198,101s0,0,.07,0a.12.12,0,0,1,.12.13.28.28,0,0,1-.07.17l-.22.41h-1.34v3a.6.6,0,0,0,.68.58,1.32,1.32,0,0,0,.67-.16.42.42,0,0,1,.22-.08.12.12,0,0,1,.14.14C198.28,105.38,197.65,105.73,196.93,105.73Zm-.55-5.46s-.1.1-.15.18l-.21.28c-.26.29-.45.48-.58.6a1.63,1.63,0,0,0-.21.22,1.66,1.66,0,0,0,.52,0h.05v2.88c0,.79.37,1.17,1.13,1.17a1.49,1.49,0,0,0,1.25-.47s0,0,0,0a.46.46,0,0,0-.18.07,1.42,1.42,0,0,1-.71.17.69.69,0,0,1-.78-.68v-3.1h1.38l.2-.36a.38.38,0,0,0,0-.12,0,0,0,0,0,0,0h0a.54.54,0,0,1-.4.16h-1.2v-.19a5.2,5.2,0,0,0,0-.65C196.43,100.27,196.4,100.27,196.38,100.27Z"/><path class="cls-7" d="M198.3,103.45a2.37,2.37,0,0,1,2.35-2.39,2.15,2.15,0,0,1,2.27,2.34,2.23,2.23,0,0,1-2.26,2.28A2.15,2.15,0,0,1,198.3,103.45Zm3.89.11c0-1.08-.45-2.27-1.7-2.27-1,0-1.45.9-1.45,1.79s.48,2.38,1.71,2.38C201.63,105.46,202.19,104.86,202.19,103.56Z"/><path class="cls-7" d="M200.66,105.73a2.2,2.2,0,0,1-2.41-2.28,2.42,2.42,0,0,1,2.4-2.44A2.21,2.21,0,0,1,203,103.4,2.27,2.27,0,0,1,200.66,105.73Zm0-4.62a2.32,2.32,0,0,0-2.3,2.34,2.11,2.11,0,0,0,2.31,2.18,2.17,2.17,0,0,0,2.21-2.23A2.11,2.11,0,0,0,200.65,101.11Zm.1,4.4a1.54,1.54,0,0,1-1.36-.83,3.27,3.27,0,0,1-.4-1.6c0-.85.39-1.84,1.5-1.84,1.29,0,1.75,1.25,1.75,2.32C202.24,104.81,201.71,105.51,200.75,105.51Zm-.26-4.17c-1,0-1.4.94-1.4,1.74s.35,2.33,1.66,2.33c.91,0,1.39-.64,1.39-1.85S201.71,101.34,200.49,101.34Z"/><path class="cls-7" d="M204.6,104.75c0,.73.92.42.92.71,0,.12-.07.14-.23.14s-.39,0-1,0-.76,0-.89,0-.19,0-.19-.12.62,0,.62-.68v-2.61c0-.63-.78-.35-.78-.58a.12.12,0,0,1,.1-.11c.87-.19,1.08-.53,1.32-.53a.16.16,0,0,1,.13.17v.7a2.25,2.25,0,0,1,1.52-.78c1.41,0,1.71,1.16,1.71,2v1.73c0,.73.82.42.82.71,0,.12-.07.14-.18.14s-.4,0-.91,0-.62,0-.76,0-.19,0-.19-.12.45,0,.45-.68v-2a1.27,1.27,0,0,0-1.22-1.31,1.17,1.17,0,0,0-1.24.82Z"/><path class="cls-7" d="M208.47,105.65h-.19c-.15,0-.39,0-.72,0s-.43,0-.56,0h-.2c-.12,0-.24,0-.24-.17s.09-.14.17-.17.28-.11.28-.51v-2a1.23,1.23,0,0,0-1.17-1.26,1.35,1.35,0,0,0-1,.39.68.68,0,0,0-.2.38v2.41c0,.41.3.46.57.5s.35.06.35.21-.17.19-.28.19h-.22c-.16,0-.38,0-.78,0s-.59,0-.73,0h-.16c-.12,0-.24,0-.24-.17s.11-.14.22-.17a.45.45,0,0,0,.4-.51v-2.61c0-.35-.26-.38-.49-.41s-.29,0-.29-.17a.17.17,0,0,1,.14-.16,3,3,0,0,0,1-.39.69.69,0,0,1,.34-.14.2.2,0,0,1,.18.22v.59a2,2,0,0,1,1.47-.72,1.79,1.79,0,0,1,1.76,2v1.73c0,.41.27.46.51.5s.31.06.31.21S208.54,105.65,208.47,105.65Zm-.91-.14c.34,0,.57,0,.73,0s.31,0,.31-.08-.07-.08-.23-.11-.59-.11-.59-.6V103a1.67,1.67,0,0,0-1.66-1.91,1.93,1.93,0,0,0-1.41.7c-.07.08-.09.1-.13.08h0v-.74c0-.07,0-.12-.08-.12a.59.59,0,0,0-.29.13,3.46,3.46,0,0,1-1,.4.06.06,0,0,0-.06.06s.1.06.2.07.58.07.58.51v2.61a.54.54,0,0,1-.48.6c-.1,0-.14,0-.14.08s0,.09.29.06.36,0,.74,0,.62,0,.79,0h.21c.17,0,.18,0,.18-.09s-.1-.09-.26-.11-.66-.11-.66-.6v-2.41a.71.71,0,0,1,.23-.44,1.42,1.42,0,0,1,1.06-.43,1.33,1.33,0,0,1,1.27,1.36v2c0,.47-.21.55-.35.6s-.1,0-.1.08,0,.07.14.07H207C207.12,105.53,207.3,105.51,207.56,105.51Z"/><path class="cls-7" d="M209.59,102.19c0-.63-.57-.35-.57-.58a.11.11,0,0,1,.09-.11c.67-.19.88-.53,1.13-.53.06,0,.12.07.12.17v3.77c0,.54.83.31.83.58,0,.08-.06.11-.2.11s-.54,0-1,0-.6,0-.72,0-.15,0-.16-.11c0-.26.46.13.46-.82Zm.82-2.74c0,.13-.3.55-.44.55s-.44-.43-.44-.55.32-.55.44-.55S210.41,99.33,210.41,99.45Z"/><path class="cls-7" d="M211,105.65h-.33c-.18,0-.4,0-.65,0s-.39,0-.53,0h-.19a.18.18,0,0,1-.21-.16c0-.13.1-.15.17-.17s.3-.06.3-.65v-2.48c0-.35-.19-.38-.36-.41s-.22,0-.22-.17a.16.16,0,0,1,.13-.16,2.45,2.45,0,0,0,.76-.36.75.75,0,0,1,.38-.17.2.2,0,0,1,.17.22v3.77c0,.25.2.31.48.36s.35.06.35.22S211.06,105.65,211,105.65Zm-1-.14c.26,0,.48,0,.65,0H211c.15,0,.15,0,.15-.06s-.1-.09-.27-.12-.56-.1-.56-.46v-3.77c0-.07,0-.12-.07-.12a.7.7,0,0,0-.32.15,2.63,2.63,0,0,1-.79.38.06.06,0,0,0-.06.06s0,0,.14.07.43.07.43.51v2.48c0,.62-.18.71-.37.75s-.09,0-.09.07,0,.07.29.05S209.8,105.51,210,105.51Zm0-5.46c-.16,0-.49-.46-.49-.6s.33-.6.49-.6.49.46.49.6S210.14,100.05,210,100.05Zm0-1.1a.52.52,0,0,0,0,1c.1,0,.39-.39.39-.5S210.07,99,210,99Z"/><path class="cls-7" d="M211.28,103.45a2.37,2.37,0,0,1,2.34-2.39,2.16,2.16,0,0,1,2.28,2.34,2.23,2.23,0,0,1-2.27,2.28A2.14,2.14,0,0,1,211.28,103.45Zm3.88.11c0-1.08-.45-2.27-1.7-2.27-1,0-1.45.9-1.45,1.79s.49,2.38,1.71,2.38C214.61,105.46,215.16,104.86,215.16,103.56Z"/><path class="cls-7" d="M213.63,105.73a2.2,2.2,0,0,1-2.4-2.28,2.41,2.41,0,0,1,2.39-2.44A2.21,2.21,0,0,1,216,103.4,2.27,2.27,0,0,1,213.63,105.73Zm0-4.62a2.32,2.32,0,0,0-2.29,2.34,2.1,2.1,0,0,0,2.3,2.18,2.18,2.18,0,0,0,2.22-2.23A2.12,2.12,0,0,0,213.62,101.11Zm.1,4.4a1.54,1.54,0,0,1-1.36-.83,3.27,3.27,0,0,1-.4-1.6c0-.85.4-1.84,1.5-1.84,1.29,0,1.75,1.25,1.75,2.32C215.21,104.81,214.68,105.51,213.72,105.51Zm-.26-4.17c-1,0-1.4.94-1.4,1.74s.35,2.33,1.66,2.33c.91,0,1.39-.64,1.39-1.85S214.68,101.34,213.46,101.34Z"/></g></g></svg>